<svg xmlns="http://www.w3.org/2000/svg" width="12.452" height="7.692" viewBox="0 0 12.452 7.692">
  <g id="basil" transform="translate(-27.095 -23.749)">
    <g id="&#x421;&#x433;&#x440;&#x443;&#x43F;&#x43F;&#x438;&#x440;&#x43E;&#x432;&#x430;&#x442;&#x44C;_4657" data-name="&#x421;&#x433;&#x440;&#x443;&#x43F;&#x43F;&#x438;&#x440;&#x43E;&#x432;&#x430;&#x442;&#x44C; 4657" transform="translate(23.738 23.749)">
      <path id="&#x41A;&#x43E;&#x43D;&#x442;&#x443;&#x440;_11188" data-name="&#x41A;&#x43E;&#x43D;&#x442;&#x443;&#x440; 11188" d="M87.051,24.086a.343.343,0,0,0-.307-.307,10.293,10.293,0,0,0-3.455.321.344.344,0,1,0,.185.662,9.81,9.81,0,0,1,2.91-.317c.036.895,0,3.655-1.613,5.269A4.9,4.9,0,0,1,83.1,30.778a.344.344,0,0,0,.255.638,5.58,5.58,0,0,0,1.9-1.217C87.428,28.03,87.067,24.246,87.051,24.086Z" transform="translate(-71.275 -23.749)"/>
      <path id="&#x41A;&#x43E;&#x43D;&#x442;&#x443;&#x440;_11189" data-name="&#x41A;&#x43E;&#x43D;&#x442;&#x443;&#x440; 11189" d="M76.836,28.628A.343.343,0,0,0,77,28.586c.059-.033.119-.064.18-.095a.344.344,0,0,0-.309-.614q-.1.051-.2.106a.344.344,0,0,0,.166.645Z" transform="translate(-66.135 -27.037)"/>
      <path id="&#x41A;&#x43E;&#x43D;&#x442;&#x443;&#x440;_11192" data-name="&#x41A;&#x43E;&#x43D;&#x442;&#x443;&#x440; 11192" d="M32,38.343a6.184,6.184,0,0,0-.036-.71A6.87,6.87,0,0,1,33.58,33.11a.344.344,0,1,0-.486-.486,6.386,6.386,0,0,0-1.628,3.3,3.075,3.075,0,0,0-.523-.709,4.824,4.824,0,0,0-3.524-1.04.344.344,0,0,0-.307.307A4.825,4.825,0,0,0,28.153,38a.344.344,0,0,0,.486-.486,3.886,3.886,0,0,1-.856-2.674,3.891,3.891,0,0,1,2.674.856,3.3,3.3,0,0,1,.816,1.941c0,.07,0,.137,0,.2l-2.179-2.18a.344.344,0,0,0-.487.487l2.179,2.179c-1.286.015,1.921.008,1.219.013Z" transform="translate(-23.738 -30.801)"/>
    </g>
  </g>
</svg>
