<svg xmlns="http://www.w3.org/2000/svg" width="14.776" height="20" viewBox="0 0 14.776 20">
  <g id="pin" transform="translate(-48.08)">
    <g id="&#x421;&#x433;&#x440;&#x443;&#x43F;&#x43F;&#x438;&#x440;&#x43E;&#x432;&#x430;&#x442;&#x44C;_4224" data-name="&#x421;&#x433;&#x440;&#x443;&#x43F;&#x43F;&#x438;&#x440;&#x43E;&#x432;&#x430;&#x442;&#x44C; 4224" transform="translate(48.08)">
      <g id="&#x421;&#x433;&#x440;&#x443;&#x43F;&#x43F;&#x438;&#x440;&#x43E;&#x432;&#x430;&#x442;&#x44C;_4223" data-name="&#x421;&#x433;&#x440;&#x443;&#x43F;&#x43F;&#x438;&#x440;&#x43E;&#x432;&#x430;&#x442;&#x44C; 4223" transform="translate(0)">
        <path id="&#x41A;&#x43E;&#x43D;&#x442;&#x443;&#x440;_1" data-name="&#x41A;&#x43E;&#x43D;&#x442;&#x443;&#x440; 1" d="M55.468,0A7.4,7.4,0,0,0,48.08,7.388a8.524,8.524,0,0,0,.627,2.844,11.915,11.915,0,0,0,.854,1.6L54.626,19.5a.963.963,0,0,0,1.684,0l5.066-7.676a11.864,11.864,0,0,0,.854-1.6,8.522,8.522,0,0,0,.626-2.844A7.4,7.4,0,0,0,55.468,0Zm5.96,9.9a10.916,10.916,0,0,1-.778,1.456l-5.066,7.676c-.1.152-.132.152-.232,0l-5.066-7.676a10.922,10.922,0,0,1-.778-1.456,7.737,7.737,0,0,1-.559-2.507,6.519,6.519,0,0,1,13.038,0A7.744,7.744,0,0,1,61.429,9.9Z" transform="translate(-48.08)"/>
        <path id="&#x41A;&#x43E;&#x43D;&#x442;&#x443;&#x440;_2" data-name="&#x41A;&#x43E;&#x43D;&#x442;&#x443;&#x440; 2" d="M115.991,64.008a3.911,3.911,0,1,0,3.911,3.911A3.916,3.916,0,0,0,115.991,64.008Zm0,6.953a3.042,3.042,0,1,1,3.042-3.042A3.046,3.046,0,0,1,115.991,70.961Z" transform="translate(-108.603 -60.531)"/>
      </g>
    </g>
  </g>
</svg>
