<svg xmlns="http://www.w3.org/2000/svg" width="20" height="20" viewBox="0 0 20 20">
  <g id="phone-call_1_" data-name="phone-call (1)" transform="translate(-0.001 0)">
    <path id="&#x41A;&#x43E;&#x43D;&#x442;&#x443;&#x440;_3" data-name="&#x41A;&#x43E;&#x43D;&#x442;&#x443;&#x440; 3" d="M19.987,16.461a1.535,1.535,0,0,0-.761-1.137l-4.934-2.841a1.548,1.548,0,0,0-1.864.247l-.972.972a.712.712,0,0,1-.952.053,28.089,28.089,0,0,1-2.242-2.017A28.1,28.1,0,0,1,6.246,9.5.712.712,0,0,1,6.3,8.544l.972-.972a1.548,1.548,0,0,0,.247-1.864L4.676.774A1.546,1.546,0,0,0,2.244.453L.779,1.917C-.243,2.939-.259,4.809.733,7.182a23.25,23.25,0,0,0,5.014,7.072,23.249,23.249,0,0,0,7.072,5.014,8.247,8.247,0,0,0,3.1.732,2.954,2.954,0,0,0,2.167-.779l1.464-1.464a1.535,1.535,0,0,0,.439-1.3Zm-6.018-3.416L18.9,15.885a.9.9,0,0,1,.274,1.311L12.62,13.454l.266-.266a.9.9,0,0,1,1.083-.143ZM3.455.656a.891.891,0,0,1,.66.442L6.956,6.032a.9.9,0,0,1-.143,1.083l-.245.245L2.8.823a.887.887,0,0,1,.53-.176.915.915,0,0,1,.12.008ZM17.625,18.763c-.812.812-2.473.778-4.556-.093A22.6,22.6,0,0,1,6.2,13.8,22.6,22.6,0,0,1,1.331,6.932C.46,4.848.426,3.187,1.238,2.375L2.325,1.288,6.093,7.834l-.253.253a1.359,1.359,0,0,0-.1,1.816A28.746,28.746,0,0,0,7.8,12.2,28.761,28.761,0,0,0,10.1,14.26a1.359,1.359,0,0,0,1.816-.1l.231-.231,6.566,3.748-1.086,1.086Z" transform="translate(0 0)"/>
  </g>
</svg>
