<svg xmlns="http://www.w3.org/2000/svg" width="16.954" height="19" viewBox="0 0 16.954 19">
  <g id="user_2_" data-name="user (2)" transform="translate(0.5 0.5)">
    <g id="&#x421;&#x433;&#x440;&#x443;&#x43F;&#x43F;&#x438;&#x440;&#x43E;&#x432;&#x430;&#x442;&#x44C;_4226" data-name="&#x421;&#x433;&#x440;&#x443;&#x43F;&#x43F;&#x438;&#x440;&#x43E;&#x432;&#x430;&#x442;&#x44C; 4226" transform="translate(0 9.676)">
      <g id="&#x421;&#x433;&#x440;&#x443;&#x43F;&#x43F;&#x438;&#x440;&#x43E;&#x432;&#x430;&#x442;&#x44C;_4225" data-name="&#x421;&#x433;&#x440;&#x443;&#x43F;&#x43F;&#x438;&#x440;&#x43E;&#x432;&#x430;&#x442;&#x44C; 4225">
        <path id="&#x41A;&#x43E;&#x43D;&#x442;&#x443;&#x440;_4" data-name="&#x41A;&#x43E;&#x43D;&#x442;&#x443;&#x440; 4" d="M19.3,257.323a7.986,7.986,0,0,0-7.977,7.977.347.347,0,0,0,.694,0,7.283,7.283,0,0,1,14.567,0,.347.347,0,0,0,.694,0A7.986,7.986,0,0,0,19.3,257.323Z" transform="translate(-11.328 -257.323)" stroke="#2b2c34" stroke-width="1"/>
      </g>
    </g>
    <g id="&#x421;&#x433;&#x440;&#x443;&#x43F;&#x43F;&#x438;&#x440;&#x43E;&#x432;&#x430;&#x442;&#x44C;_4228" data-name="&#x421;&#x433;&#x440;&#x443;&#x43F;&#x43F;&#x438;&#x440;&#x43E;&#x432;&#x430;&#x442;&#x44C; 4228" transform="translate(4.162)">
      <g id="&#x421;&#x433;&#x440;&#x443;&#x43F;&#x43F;&#x438;&#x440;&#x43E;&#x432;&#x430;&#x442;&#x44C;_4227" data-name="&#x421;&#x433;&#x440;&#x443;&#x43F;&#x43F;&#x438;&#x440;&#x43E;&#x432;&#x430;&#x442;&#x44C; 4227">
        <path id="&#x41A;&#x43E;&#x43D;&#x442;&#x443;&#x440;_5" data-name="&#x41A;&#x43E;&#x43D;&#x442;&#x443;&#x440; 5" d="M143.143,0a3.815,3.815,0,1,0,3.815,3.815A3.82,3.82,0,0,0,143.143,0Zm0,6.936a3.121,3.121,0,1,1,3.121-3.121A3.125,3.125,0,0,1,143.143,6.936Z" transform="translate(-139.328)" stroke="#2b2c34" stroke-width="1"/>
      </g>
    </g>
  </g>
</svg>
