<svg xmlns="http://www.w3.org/2000/svg" width="429" height="305" viewBox="0 0 429 305">
  <g id="Сгруппировать_5794" data-name="Сгруппировать 5794" transform="translate(-997 -2417)">
    <text id="_4" data-name="4" transform="translate(1084 2659)" fill="#2b2c34" font-size="250" font-family="Montserrat-Bold, Montserrat" font-weight="700"><tspan x="-86.125" y="0">4</tspan></text>
    <text id="_4-2" data-name="4" transform="translate(1339 2659)" fill="#2b2c34" font-size="250" font-family="Montserrat-Bold, Montserrat" font-weight="700"><tspan x="-86.125" y="0">4</tspan></text>
    <ellipse id="Эллипс_708" data-name="Эллипс 708" cx="5.5" cy="7" rx="5.5" ry="7" transform="translate(1191 2523)" fill="#fff"/>
    <g id="lifebuoy" transform="translate(1134.36 2537)">
      <g id="Сгруппировать_5597" data-name="Сгруппировать 5597" transform="translate(16.753 6.531)">
        <path id="Контур_11288" data-name="Контур 11288" d="M281.7,60.279h-.072l.043-5.783h.019c3.131,0,7.176-5.836,10.135-10.1.943-1.36,1.862-2.681,2.748-3.859,8.445-11.183,19.734-19.006,27.011-18.7a6.852,6.852,0,0,1,5.75,3.174l-4.922,3.021c-.067-.105-.235-.378-1.106-.421-4.438-.182-14.257,5.994-22.118,16.411-.843,1.115-1.714,2.37-2.609,3.667C292.49,53.591,287.851,60.279,281.7,60.279Z" transform="translate(-208.062 -21.827)" fill="#ffd93b"/>
        <path id="Контур_11289" data-name="Контур 11289" d="M66.114,128.639c-2.882-3.715-6.918-6.439-11.2-9.316-3.954-2.662-8.043-5.419-11.351-9.12-8.881-9.958-10.35-26.135-3.571-39.338L45.135,73.5c-5.707,11.131-4.582,24.636,2.753,32.851,2.82,3.16,6.434,5.592,10.259,8.172,4.467,3.007,9.087,6.118,12.538,10.571Z" transform="translate(-35.755 -56.191)" fill="#ffd93b"/>
        <path id="Контур_11290" data-name="Контур 11290" d="M356.219,291.862l-2.059-5.4c8.579-3.27,14.506-8.627,17.134-15.492,3.021-7.895,1.652-17.833-3.954-28.744-2.595-5.036-6.5-8.89-10.264-12.615C350.3,222.918,343.3,216,343.609,202.576l5.778.134c-.259,10.935,5.3,16.426,11.748,22.788,4.1,4.045,8.33,8.23,11.346,14.085,6.386,12.414,7.847,23.985,4.213,33.459C373.454,281.483,366.373,287.994,356.219,291.862Z" transform="translate(-251.487 -148.493)" fill="#ffd93b"/>
      </g>
      <path id="Контур_11291" data-name="Контур 11291" d="M82.7,0a73.995,73.995,0,1,0,73.995,73.995A73.977,73.977,0,0,0,82.7,0Zm0,110.284A36.263,36.263,0,1,1,118.983,74,36.264,36.264,0,0,1,82.7,110.284Z" transform="translate(-0.045)" fill="#e24b4b"/>
      <path id="Контур_11292" data-name="Контур 11292" d="M161.625,54.56A73.91,73.91,0,0,1,173.4,94.775,74.644,74.644,0,0,1,55.2,155.431,74,74,0,1,0,161.625,54.56Z" transform="translate(-32.629 -38.235)" fill="#d03f3f"/>
      <g id="Сгруппировать_5598" data-name="Сгруппировать 5598" transform="translate(8.659)">
        <path id="Контур_11293" data-name="Контур 11293" d="M158.736,5.956,174.827,40.2a35.895,35.895,0,0,1,26.025,0L216.942,5.956a74.086,74.086,0,0,0-58.206,0Z" transform="translate(-113.844)" fill="#e9eff4"/>
        <path id="Контур_11294" data-name="Контур 11294" d="M46.458,179.135A36.11,36.11,0,0,1,48.9,166.123L14.66,150.032a74.086,74.086,0,0,0,0,58.206L48.9,192.147A36.249,36.249,0,0,1,46.458,179.135Z" transform="translate(-8.704 -105.14)" fill="#e9eff4"/>
        <path id="Контур_11295" data-name="Контур 11295" d="M216.931,394.574l-16.076-34.206a35.788,35.788,0,0,1-26.058,0L158.72,394.579a74.07,74.07,0,0,0,58.211,0Z" transform="translate(-113.833 -252.54)" fill="#e9eff4"/>
        <path id="Контур_11296" data-name="Контур 11296" d="M371.517,179.135a36.028,36.028,0,0,1-2.456,13.027l34.206,16.076a74.086,74.086,0,0,0,0-58.206l-34.211,16.076A36.011,36.011,0,0,1,371.517,179.135Z" transform="translate(-261.233 -105.14)" fill="#e9eff4"/>
      </g>
      <g id="Сгруппировать_5599" data-name="Сгруппировать 5599" transform="translate(20.996 1.114)">
        <path id="Контур_11297" data-name="Контур 11297" d="M104.6,31.908C97.873,18.714,90.912,5.065,72.5,10.939,65.308,13.232,58.96,18.886,55.073,26.45l-5.137-2.638c4.577-8.924,12.155-15.621,20.8-18.379C93.846-1.939,103.029,16.11,109.75,29.285c3.279,6.425,6.372,12.5,9.561,12.524C119.311,41.809,108.869,40.291,104.6,31.908Z" transform="translate(-49.936 -3.723)" fill="#ffd93b"/>
        <path id="Контур_11298" data-name="Контур 11298" d="M349.394,83.493l-5.778-.134c.3-12.873,11.93-31.525,18.044-39.587.3-.4.646-.833,1.02-1.293,1.685-2.1,4.232-5.266,3.174-6.99l4.921-3.026c3.193,5.19-1.053,10.48-3.591,13.635l-.914,1.163C359.874,55.7,349.639,73,349.394,83.493Z" transform="translate(-255.742 -23.864)" fill="#ffd93b"/>
      </g>
      <g id="Сгруппировать_5600" data-name="Сгруппировать 5600" transform="translate(53.551 44.892)">
        <path id="Контур_11299" data-name="Контур 11299" d="M187.839,433.394a73.751,73.751,0,0,0,29.1-5.956l-9.479-20.174a74.339,74.339,0,0,1-36.188,9.359c-2.456,0-4.878-.158-7.277-.388l-5.261,11.2A73.751,73.751,0,0,0,187.839,433.394Z" transform="translate(-158.736 -330.296)" fill="#d3d9dd"/>
        <path id="Контур_11300" data-name="Контур 11300" d="M442.737,179.135a73.752,73.752,0,0,0-5.956-29.1l-10.264,4.821c.206,2.25.345,4.519.345,6.827a74.266,74.266,0,0,1-9.982,37.208l19.9,9.35A73.752,73.752,0,0,0,442.737,179.135Z" transform="translate(-339.639 -150.032)" fill="#d3d9dd"/>
      </g>
      <path id="Контур_11301" data-name="Контур 11301" d="M190.767,329.874c-15.425,0-32.583-4.582-40.693-15.8-6.5-9.005-6.645-20-6.779-30.635-.129-10.413-.259-20.246-6.094-27.782l4.572-3.543c7.023,9.067,7.167,20.342,7.3,31.248.129,10.183.254,19.8,5.687,27.327,10.3,14.262,39.855,16.158,54.749,10.489l2.059,5.4C206.043,328.687,198.632,329.874,190.767,329.874Z" transform="translate(-90.093 -176.676)" fill="#ffd93b"/>
      <path id="Контур_11302" data-name="Контур 11302" d="M113.2,37.342a62.36,62.36,0,0,1-1.723,14.7,36.234,36.234,0,1,0-48.21,52.566,104.034,104.034,0,0,1-40.215,7.9c-1.2,0-2.442,0-3.638-.1A73.183,73.183,0,0,1,8.64,74.014,74,74,0,0,1,82.654,0a72.681,72.681,0,0,1,20.538,2.92A64.86,64.86,0,0,1,113.2,37.342Z" fill="#fff" opacity="0.15"/>
    </g>
    <g id="Сгруппировать_5621" data-name="Сгруппировать 5621" transform="translate(1153.746 2542.402)">
      <path id="Контур_11542" data-name="Контур 11542" d="M11797,5411.518l-5.978-5.7,6.727-7.047-9.451-9.9,9.451-9.9-9.451-9.9,9.451-9.9-6.727-7.047,5.978-5.7,12.17,12.75-9.448,9.9,9.448,9.9-9.448,9.9,9.448,9.9Z" transform="translate(-11712.266 -5338.32)" fill="#00b052"/>
      <path id="Контур_11543" data-name="Контур 11543" d="M12716.8,8790.688l9.9.321.061,1.745.066,2.184.138,4.469h9.211v5.7l1.862.059,2.895.091.447,13.795,1.447.046,12.348.4.311,9.613,8.327-.262-.55-17.424-13.807-.449-.437-13.807-6.192-.2-4.789-.149-2.827-.091-.056-1.792-.068-2.184-.312-9.831-17.708-.563Z" transform="translate(-12615.742 -8681.655)" fill="#00b052"/>
      <path id="Контур_11544" data-name="Контур 11544" d="M9363.542,5408.271a4.61,4.61,0,0,0,0,6.592,4.8,4.8,0,0,0,6.7,0,4.591,4.591,0,0,0,0-6.592A4.8,4.8,0,0,0,9363.542,5408.271Zm34.136-8.282v74.9l50.045-38.639v50.6h-42.017l14.691,14.69,2.182,2.181,4.468,4.469,14.071,14.082,22.856,22.856H9359.257V5435.6h-26.968v-35.607Z" transform="translate(-9322.441 -5390.436)" fill="#00b052"/>
      <path id="Контур_11546" data-name="Контур 11546" d="M9368.715,8484.124l35.276-14.847-3.267-7.758-35.274,14.847Z" transform="translate(-9354.709 -8369.461)" fill="#00b052"/>
      <path id="Контур_11547" data-name="Контур 11547" d="M9021.225,10163.216l-11.62-11.916-21.489,20.95-12.066-12.375-9.179,8.946,23.685,24.295,6.453-6.293h0Z" transform="translate(-8966.87 -10013.704)" fill="#00b052"/>
      <path id="Контур_11548" data-name="Контур 11548" d="M10420.7,5654.571h11.655v-3.44c0-4.282-2.528-6.53-5.9-6.53-3.862,0-5.759,2.668-5.759,7.934Z" transform="translate(-10381.521 -5628.455)" fill="#fff"/>
    </g>
    <g id="lifebuoy-2" data-name="lifebuoy" transform="translate(1134.36 2537)">
      <g id="Сгруппировать_5597-2" data-name="Сгруппировать 5597" transform="translate(16.753 6.531)">
        <path id="Контур_11289-2" data-name="Контур 11289" d="M66.114,128.639c-2.882-3.715-6.918-6.439-11.2-9.316-3.954-2.662-8.043-5.419-11.351-9.12-8.881-9.958-10.35-26.135-3.571-39.338L45.135,73.5c-5.707,11.131-4.582,24.636,2.753,32.851,2.82,3.16,6.434,5.592,10.259,8.172,4.467,3.007,9.087,6.118,12.538,10.571Z" transform="translate(-35.755 -56.191)" fill="#ffd93b"/>
        <path id="Контур_11290-2" data-name="Контур 11290" d="M356.219,291.862l-2.059-5.4c8.579-3.27,14.506-8.627,17.134-15.492,3.021-7.895,1.652-17.833-3.954-28.744-2.595-5.036-6.5-8.89-10.264-12.615C350.3,222.918,343.3,216,343.609,202.576l5.778.134c-.259,10.935,5.3,16.426,11.748,22.788,4.1,4.045,8.33,8.23,11.346,14.085,6.386,12.414,7.847,23.985,4.213,33.459C373.454,281.483,366.373,287.994,356.219,291.862Z" transform="translate(-251.487 -148.493)" fill="#ffd93b"/>
      </g>
      <path id="Контур_11291-2" data-name="Контур 11291" d="M8.7,73.995a73.995,73.995,0,1,0,147.989,0C156.693,33.115,8.7,33.115,8.7,73.995ZM82.7,110.284A36.264,36.264,0,0,1,46.458,74c0-9.312-31.938-17.5-15.748-23.005s24.609-9.066,80.789-5.828c22.222,3.084,7.485,18.56,7.485,28.834A36.3,36.3,0,0,1,82.7,110.284Z" transform="translate(-0.045)" fill="#e24b4b"/>
      <path id="Контур_11292-2" data-name="Контур 11292" d="M165.776,61.868S173.4,79.933,173.4,94.775A74.644,74.644,0,0,1,55.2,155.431a74.018,74.018,0,0,0,134.1-43.183C189.3,88.934,167.557,60.41,165.776,61.868Z" transform="translate(-32.629 -38.235)" fill="#d03f3f"/>
      <g id="Сгруппировать_5598-2" data-name="Сгруппировать 5598" transform="translate(8.659)">
        <path id="Контур_11294-2" data-name="Контур 11294" d="M46.458,179.135A36.11,36.11,0,0,1,48.9,166.123L14.66,150.032a74.086,74.086,0,0,0,0,58.206L48.9,192.147A36.249,36.249,0,0,1,46.458,179.135Z" transform="translate(-8.704 -105.14)" fill="#e9eff4"/>
        <path id="Контур_11295-2" data-name="Контур 11295" d="M216.931,394.574l-16.076-34.206a35.788,35.788,0,0,1-26.058,0L158.72,394.579a74.07,74.07,0,0,0,58.211,0Z" transform="translate(-113.833 -252.54)" fill="#e9eff4"/>
        <path id="Контур_11296-2" data-name="Контур 11296" d="M371.517,179.135a36.028,36.028,0,0,1-2.456,13.027l34.206,16.076a74.086,74.086,0,0,0,0-58.206l-34.211,16.076A36.011,36.011,0,0,1,371.517,179.135Z" transform="translate(-261.233 -105.14)" fill="#e9eff4"/>
      </g>
      <g id="Сгруппировать_5600-2" data-name="Сгруппировать 5600" transform="translate(53.551 44.892)">
        <path id="Контур_11299-2" data-name="Контур 11299" d="M187.839,433.394a73.751,73.751,0,0,0,29.1-5.956l-9.479-20.174a74.339,74.339,0,0,1-36.188,9.359c-2.456,0-4.878-.158-7.277-.388l-5.261,11.2A73.751,73.751,0,0,0,187.839,433.394Z" transform="translate(-158.736 -330.296)" fill="#d3d9dd"/>
        <path id="Контур_11300-2" data-name="Контур 11300" d="M442.737,179.135a73.752,73.752,0,0,0-5.956-29.1l-10.264,4.821c.206,2.25.345,4.519.345,6.827a74.266,74.266,0,0,1-9.982,37.208l19.9,9.35A73.752,73.752,0,0,0,442.737,179.135Z" transform="translate(-339.639 -150.032)" fill="#d3d9dd"/>
      </g>
      <path id="Контур_11301-2" data-name="Контур 11301" d="M190.767,329.874c-15.425,0-32.583-4.582-40.693-15.8-6.5-9.005-6.645-20-6.779-30.635-.129-10.413-.259-20.246-6.094-27.782l4.572-3.543c7.023,9.067,7.167,20.342,7.3,31.248.129,10.183.254,19.8,5.687,27.327,10.3,14.262,39.855,16.158,54.749,10.489l2.059,5.4C206.043,328.687,198.632,329.874,190.767,329.874Z" transform="translate(-90.093 -176.676)" fill="#ffd93b"/>
    </g>
    <g id="Сгруппировать_5626" data-name="Сгруппировать 5626" transform="translate(1153.746 2542.402)">
      <path id="Контур_11542-2" data-name="Контур 11542" d="M11797,5411.518l-5.978-5.7,6.727-7.047-9.451-9.9,9.451-9.9-9.451-9.9,9.451-9.9-6.727-7.047,5.978-5.7,12.17,12.75-9.448,9.9,9.448,9.9-9.448,9.9,9.448,9.9Z" transform="translate(-11712.266 -5338.32)" fill="#00b052"/>
      <path id="Контур_11544-2" data-name="Контур 11544" d="M9363.542,5408.271a4.61,4.61,0,0,0,0,6.592,4.8,4.8,0,0,0,6.7,0,4.591,4.591,0,0,0,0-6.592A4.8,4.8,0,0,0,9363.542,5408.271Zm34.136-8.282v74.9l50.045-38.639v50.6h-42.017s17.057-14.59,2.972,0-34.322,6.5-34.322,6.5l-15.1-4.944v-52.8h-26.968v-35.607Z" transform="translate(-9322.441 -5390.436)" fill="#00b052"/>
      <path id="Контур_11545" data-name="Контур 11545" d="M10540.456,5063.3l5.063-7.473-15.256-10.338-5.063,7.473Z" transform="matrix(0.914, -0.407, 0.407, 0.914, -11634.184, -325.398)" fill="#1d5632"/>
      <path id="Контур_11546-2" data-name="Контур 11546" d="M9368.715,8484.124l35.276-14.847-3.267-7.758-35.274,14.847Z" transform="translate(-9354.709 -8369.461)" fill="#00b052"/>
    </g>
  </g>
</svg>
