<svg xmlns="http://www.w3.org/2000/svg" width="15" height="15.048" viewBox="0 0 15 15.048">
  <g id="Сгруппировать_4670" data-name="Сгруппировать 4670" transform="translate(0 0.049)">
    <path id="Контур_11214" data-name="Контур 11214" d="M14.848,10.638a3.052,3.052,0,0,0-2.137-.971A2.928,2.928,0,0,0,12.3,6.293C11.165,5.048,9.958,3.841,8.713,2.7a2.929,2.929,0,0,0-3.375-.409,6.848,6.848,0,0,0-.21-.925.22.22,0,1,0-.42.13,6.829,6.829,0,0,1,.225,1.063c-.05.04-.1.08-.148.123A28.492,28.492,0,0,0,2.68,4.792c-.043.048-.084.1-.123.148a3.034,3.034,0,0,1-2.034-.8.554.554,0,0,1-.046-.494.6.6,0,0,1,.315-.4,1.438,1.438,0,0,1,1.088.162.22.22,0,0,0,.289-.295C1.952,2.661,1.924,2.273,2.1,2.1s.559-.143,1.012.073A.22.22,0,0,0,3.4,1.886,1.438,1.438,0,0,1,3.241.8a.6.6,0,0,1,.4-.315c.185-.06.385-.246.658.137A.22.22,0,0,0,4.654.365.846.846,0,0,0,3.5.065,1.027,1.027,0,0,0,2.839.62a1.441,1.441,0,0,0-.009.985,1.053,1.053,0,0,0-1.046.186A1.053,1.053,0,0,0,1.6,2.837a1.441,1.441,0,0,0-.985.009,1.026,1.026,0,0,0-.555.664.981.981,0,0,0,.093.864,3.052,3.052,0,0,0,2.137.97A2.928,2.928,0,0,0,2.7,8.719c1.137,1.245,2.344,2.452,3.589,3.589a2.91,2.91,0,0,0,.939.577.22.22,0,1,0,.155-.411,2.465,2.465,0,0,1-.674-.385A24.352,24.352,0,0,1,12.57,8.8a2.469,2.469,0,0,1-.577,1.122A28.052,28.052,0,0,1,9.92,12a1.646,1.646,0,0,1-1.379.628.22.22,0,1,0-.019.439l.127,0a1.621,1.621,0,0,0,1.012-.351,3.052,3.052,0,0,0,.97,2.137.941.941,0,0,0,.513.152,1.14,1.14,0,0,0,.352-.059,1.027,1.027,0,0,0,.664-.555,1.441,1.441,0,0,0,.009-.985A.927.927,0,0,0,13.4,12.176a1.441,1.441,0,0,0,.985-.009,1.027,1.027,0,0,0,.556-.664.981.981,0,0,0-.093-.864ZM5.08,3.013a2.486,2.486,0,0,1,3.337.016l.218.2A24.7,24.7,0,0,0,2.4,6.387a2.47,2.47,0,0,1,.609-1.3A28.041,28.041,0,0,1,5.08,3.013ZM2.38,6.94A23.987,23.987,0,0,1,9,3.574q.647.609,1.278,1.24a24.416,24.416,0,0,0-7.1,3.777l-.155-.168A2.484,2.484,0,0,1,2.38,6.94Zm1.1,1.975a23.779,23.779,0,0,1,7.152-3.75q.612.624,1.2,1.264a24.25,24.25,0,0,0-7.091,3.79q-.642-.643-1.261-1.3Zm2.9,2.876q-.669-.617-1.32-1.259A24.108,24.108,0,0,1,12.142,6.79a2.485,2.485,0,0,1,.486,1.465c0,.019,0,.037,0,.056a24.781,24.781,0,0,0-6.254,3.479Zm8.149-.423a.6.6,0,0,1-.315.4A1.438,1.438,0,0,1,13.12,11.6a.22.22,0,0,0-.289.295c.216.454.244.842.073,1.012s-.559.143-1.012-.073a.22.22,0,0,0-.295.289,1.438,1.438,0,0,1,.162,1.088.6.6,0,0,1-.4.315.554.554,0,0,1-.494-.046,3.034,3.034,0,0,1-.8-2.034c.05-.04.1-.08.148-.124A28.481,28.481,0,0,0,12.32,10.22c.043-.048.084-.1.123-.148a3.033,3.033,0,0,1,2.034.8A.554.554,0,0,1,14.523,11.367Z" transform="translate(0 -0.007)" />
  </g>
</svg>
