<svg id="Сгруппировать_4659" data-name="Сгруппировать 4659" xmlns="http://www.w3.org/2000/svg" width="12.559" height="14.775" viewBox="0 0 12.559 14.775">
  <path id="Контур_11195" data-name="Контур 11195" d="M52.989,76.7a.321.321,0,0,0,.448-.073l.116-.162a.321.321,0,1,0-.525-.37q-.055.079-.111.157a.321.321,0,0,0,.073.449Z" transform="translate(-48.622 -66.375)" />
  <path id="Контур_11196" data-name="Контур 11196" d="M39.8,62.65a.321.321,0,0,0-.431.144,12.312,12.312,0,0,1-8.023,6.533,23.362,23.362,0,0,0,2.275-2.336.321.321,0,1,0-.491-.414,21.529,21.529,0,0,1-3.212,3.1.321.321,0,0,0,.191.579.326.326,0,0,0,.058-.005,13.068,13.068,0,0,0,9.777-7.172.321.321,0,0,0-.144-.43Z" transform="translate(-29.79 -55.483)" />
  <path id="Контур_11197" data-name="Контур 11197" d="M64.711,24.373l-.354-.49a.321.321,0,0,0-.344-.122,4.361,4.361,0,0,0-1.821,1.055.321.321,0,1,0,.437.471,3.871,3.871,0,0,1,1.342-.842l.03.041a6.8,6.8,0,0,0-1.574,1.705.322.322,0,0,0,.068.421,1.409,1.409,0,0,1,.344.406,6.4,6.4,0,0,1,.03,2.7c-.226-.121-.526-.287-.842-.474a.321.321,0,0,0-.357.018c-.341.255-.682.485-.923.641-.092-.272-.219-.664-.329-1.075a.322.322,0,0,0-.269-.236c-.364-.047-.7-.1-.954-.147a6.388,6.388,0,0,1,1.693-2.1,1.45,1.45,0,0,1,.713-.1.321.321,0,1,0,.068-.639,2.1,2.1,0,0,0-1.03.145c-.912.383-2.1,2.533-2.228,2.776a.322.322,0,0,0,.218.468l.138.027A13.113,13.113,0,0,1,57.3,32.432a.321.321,0,0,0,.551.33A13.712,13.712,0,0,0,59.4,29.134c.14.023.292.046.453.069.2.7.413,1.275.423,1.3a.322.322,0,0,0,.468.162c.024-.015.551-.336,1.138-.762.586.341,1.069.583,1.091.594a.321.321,0,0,0,.461-.233c.047-.273.445-2.7-.035-3.56a2.008,2.008,0,0,0-.284-.389,6.143,6.143,0,0,1,1.505-1.485.321.321,0,0,0,.088-.459Z" transform="translate(-52.214 -23.75)" />
</svg>
