<svg xmlns="http://www.w3.org/2000/svg" width="156.685" height="146.818" viewBox="0 0 156.685 146.818">
  <g id="chef-hat" transform="translate(0.001 -0.5)">
    <path id="Контур_11159" data-name="Контур 11159" d="M135.192,37.571a26.32,26.32,0,0,0-11.373,1.676A41.093,41.093,0,0,0,50.694,24.934,33.368,33.368,0,1,0,34.752,89.625a4.573,4.573,0,0,1,3.7,4.511v50.031a6.062,6.062,0,0,0,6.062,6.063H122.59a6.063,6.063,0,0,0,6.063-6.063V94.788a4.6,4.6,0,0,1,4.6-4.6,26.343,26.343,0,0,0,1.938-52.615Zm0,0" transform="translate(-5.213 -5.213)" fill="#fff2ec"/>
    <path id="Контур_11160" data-name="Контур 11160" d="M257.605,33.185a7.528,7.528,0,0,0,7.947,4.547,26.442,26.442,0,0,1,5.432-.161,26.022,26.022,0,0,1,6.07,1.175A41.134,41.134,0,0,0,228.5,8.953a41.163,41.163,0,0,1,29.1,24.232Zm0,0" transform="translate(-158.577 -5.213)" fill="#ffa375"/>
    <path id="Контур_11161" data-name="Контур 11161" d="M380.692,129.579a26.341,26.341,0,0,0-35.111-23.693,26.445,26.445,0,0,1,17.539,23.693c.635,15.068-11.392,25.95-26.319,25.95a4.6,4.6,0,0,0-4.6,4.6v50.912a6.063,6.063,0,0,1-6.063,6.063h17.572a6.062,6.062,0,0,0,6.062-6.063v-49.38a4.6,4.6,0,0,1,4.6-4.6,26.342,26.342,0,0,0,26.319-27.481Zm0,0" transform="translate(-226.332 -72.087)" fill="#ffa375"/>
    <path id="Контур_11162" data-name="Контур 11162" d="M114.691,434.043h78.073a6.063,6.063,0,0,0,6.063-6.063v-11h-90.2v11a6.062,6.062,0,0,0,6.062,6.063Zm0,0" transform="translate(-75.387 -289.025)" fill="#fff2ec"/>
    <path id="Контур_11163" data-name="Контур 11163" d="M332.2,427.981a6.063,6.063,0,0,1-6.062,6.063h17.571a6.061,6.061,0,0,0,6.032-5.444c.02-.2.031-.41.031-.619v-11H332.2Zm0,0" transform="translate(-226.334 -289.025)" fill="#ffa375"/>
    <path id="Контур_11164" data-name="Контур 11164" d="M143.527,306.271v21.25a2.3,2.3,0,0,0,4.6,0v-21.25a2.3,2.3,0,1,0-4.6,0Zm0,0" transform="translate(-99.605 -210.602)" fill="#ff5c0c"/>
    <path id="Контур_11165" data-name="Контур 11165" d="M189.515,327.521v-21.25a2.3,2.3,0,1,0-4.6,0v21.25a2.3,2.3,0,1,0,4.6,0Zm0,0" transform="translate(-128.33 -210.603)" fill="#ff5c0c"/>
    <path id="Контур_11166" data-name="Контур 11166" d="M232.39,327.521v-21.25a2.3,2.3,0,1,0-4.6,0v21.25a2.3,2.3,0,1,0,4.6,0Zm0,0" transform="translate(-158.083 -210.603)" fill="#ff5c0c"/>
    <path id="Контур_11167" data-name="Контур 11167" d="M273.78,327.521v-21.25a2.3,2.3,0,1,0-4.6,0v21.25a2.3,2.3,0,1,0,4.6,0Zm0,0" transform="translate(-186.808 -210.603)" fill="#ff5c0c"/>
    <path id="Контур_11168" data-name="Контур 11168" d="M314.357,329.82a2.3,2.3,0,0,0,2.3-2.3v-21.25a2.3,2.3,0,0,0-4.6,0v21.25A2.3,2.3,0,0,0,314.357,329.82Zm0,0" transform="translate(-216.562 -210.603)" fill="#ff5c0c"/>
    <path id="Контур_11169" data-name="Контур 11169" d="M358.047,327.521v-21.25a2.3,2.3,0,1,0-4.6,0v21.25a2.3,2.3,0,0,0,4.6,0Zm0,0" transform="translate(-245.286 -210.603)" fill="#ff5c0c"/>
    <path id="Контур_11170" data-name="Контур 11170" d="M156.657,57.4a28.646,28.646,0,0,0-36.484-26.307,43.658,43.658,0,0,0-14.505-21.2A43.4,43.4,0,0,0,56.578,6.564a2.3,2.3,0,0,0,2.35,3.952,38.8,38.8,0,0,1,57.446,24.068,2.3,2.3,0,0,0,3.055,1.6,24.044,24.044,0,1,1,8.611,46.494,6.908,6.908,0,0,0-6.9,6.9v36.079H105.153a2.3,2.3,0,1,0,0,4.6H121.14v8.7a3.767,3.767,0,0,1-3.763,3.764H39.3a3.768,3.768,0,0,1-3.764-3.764v-8.7H94.458a2.3,2.3,0,0,0,0-4.6H35.541V88.925a6.865,6.865,0,0,0-5.583-6.772,31.065,31.065,0,0,1,5.653-61.6h.049a31.1,31.1,0,0,1,9.145,1.368,2.3,2.3,0,0,0,2.533-.843A39.3,39.3,0,0,1,50.946,16.8a2.3,2.3,0,1,0-3.29-3.211,43.778,43.778,0,0,0-3.06,3.491,35.725,35.725,0,0,0-8.936-1.13H35.6a35.663,35.663,0,0,0-6.485,70.72,2.267,2.267,0,0,1,1.824,2.252v50.031a8.37,8.37,0,0,0,8.361,8.362h78.073a8.37,8.37,0,0,0,8.361-8.362V89.576a2.306,2.306,0,0,1,2.3-2.3A28.642,28.642,0,0,0,156.657,57.4Zm0,0" transform="translate(0)" fill="#ff5c0c"/>
  </g>
</svg>
