<svg xmlns="http://www.w3.org/2000/svg" width="226.127" height="200.84" viewBox="0 0 226.127 200.84">
  <g id="OBJECTS" transform="translate(-59.441 -247.482)">
    <path id="Контур_11140" data-name="Контур 11140" d="M223.33,62l-.55-3a2.11,2.11,0,0,0-2-1.67h-8.57a1.13,1.13,0,0,1-.62.18H166.47a1.72,1.72,0,0,1-1.63-1.37l-.45-2.44a1.11,1.11,0,0,1,1.12-1.37h36.14a.48.48,0,0,0,.49-.59l-.2-1.06a.74.74,0,0,0-.7-.59H172.49a1.71,1.71,0,0,1-1.62-1.37l-.45-2.44a1.11,1.11,0,0,1,1.11-1.37h36.33a1.35,1.35,0,0,0,.66-1.49l-.55-3a2.08,2.08,0,0,0-1.45-1.58H166.88a1.73,1.73,0,0,1-1.62-1.37l-.45-2.44a1.11,1.11,0,0,1,1.12-1.37h45.14a1.28,1.28,0,0,1,.48.09h7.68a.49.49,0,0,0,.49-.6l-.2-1.05a.68.68,0,0,0-.25-.42H177.91a1.74,1.74,0,0,1-1.63-1.37l-.45-2.44A1.11,1.11,0,0,1,177,26.55h33.11a1.34,1.34,0,0,0,1.36-1.67l-.55-3a2.1,2.1,0,0,0-1.21-1.49h-38.6a1.72,1.72,0,0,1-1.62-1.37L169,16.61a1.11,1.11,0,0,1,1.12-1.37H190.3a1.35,1.35,0,0,0,1.36-1.67l-.55-3a2.1,2.1,0,0,0-2-1.67H168a1.55,1.55,0,0,0-.31,0H70.6A14.36,14.36,0,0,0,56.24,23.29v26A14.35,14.35,0,0,0,70.6,63.66h64l12.92,12.92v6.54L135.45,71.06H55.68a1.66,1.66,0,0,0-.32,0H34.23a2.11,2.11,0,0,0-2,1.67l-.55,3a1.35,1.35,0,0,0,1.36,1.67H53.25a1.11,1.11,0,0,1,1.11,1.37l-.45,2.43a1.71,1.71,0,0,1-1.62,1.37H13.69A2.12,2.12,0,0,0,12.48,84l-.55,3a1.35,1.35,0,0,0,1.36,1.67H46.41a1.11,1.11,0,0,1,1.11,1.37l-.45,2.43a1.71,1.71,0,0,1-1.62,1.37H4.08a.79.79,0,0,0-.25.42l-.19,1.06a.47.47,0,0,0,.48.59H11.8a1.61,1.61,0,0,1,.48-.08H57.43a1.11,1.11,0,0,1,1.11,1.37l-.45,2.43A1.71,1.71,0,0,1,56.47,101H16.83a2.13,2.13,0,0,0-1.45,1.58l-.55,3a1.36,1.36,0,0,0,.67,1.5H51.82a1.11,1.11,0,0,1,1.12,1.37l-.45,2.43a1.72,1.72,0,0,1-1.63,1.37H22.12a.76.76,0,0,0-.71.6l-.19,1a.48.48,0,0,0,.48.6H57.84a1.11,1.11,0,0,1,1.16,1.4l-.45,2.43a1.72,1.72,0,0,1-1.62,1.37H11.75a1.19,1.19,0,0,1-.63-.17H2.56a2.1,2.1,0,0,0-2,1.67l-.55,3a1.35,1.35,0,0,0,1.36,1.67H75.81v13l13-13h64a14.35,14.35,0,0,0,14.35-14.36v-26a14.35,14.35,0,0,0-14.35-14.35H147.6v-7.4H222A1.35,1.35,0,0,0,223.33,62Z" transform="translate(59.47 244)" fill="rgba(255,92,12,0.09)"/>
    <path id="Контур_11141" data-name="Контур 11141" d="M56.56,132.43a2.67,2.67,0,0,0-3.71-.61l-2.69,1.93a2.67,2.67,0,0,0-.61,3.72l25.66,35.71a2.67,2.67,0,0,0,3.71.61l2.69-1.93a2.68,2.68,0,0,0,.61-3.72Z" transform="translate(59.47 244)" fill="#f9eae3"/>
    <path id="Контур_11142" data-name="Контур 11142" d="M37.89,152c-5.6,5.18-16.56,15-15.43,20.66.42,2.08,1.63,4.8,4.31,8.54s4.88,5.8,6.72,6.8c5,2.87,17.81-4.37,24.51-8a63.32,63.32,0,0,1,15.43-6L48.57,139.34A63.31,63.31,0,0,1,37.89,152Z" transform="translate(59.47 244)" fill="#f9eae3"/>
    <path id="Контур_11143" data-name="Контур 11143" d="M69.58,193.94c-1.48-.24-4.9,1.76-9.69-1.57a16.26,16.26,0,0,1-5.64-8,89.909,89.909,0,0,1-8.47,4c2.33,5.83,6.64,11.26,10.62,13.52s6.1,2.86,9.45,2.15c4.05-.86,5.48-3.16,5.9-5.07C72.11,197.34,71.09,194.19,69.58,193.94Z" transform="translate(59.47 244)" fill="#f9eae3"/>
    <path id="Контур_11144" data-name="Контур 11144" d="M25.55,182.11a32.21,32.21,0,0,1-3.33-5.59,4.659,4.659,0,0,0-.47.3,6.52,6.52,0,0,0,7.6,10.58c.15-.11.3-.22.44-.34a32.74,32.74,0,0,1-4.24-4.95Z" transform="translate(59.47 244)" fill="#f9eae3"/>
    <path id="Контур_11145" data-name="Контур 11145" d="M77.31,144.6c-3.67-5.11-9.57-7.16-13.17-4.57l-.1.08L77.33,158.6l.11-.07C81,156,81,149.71,77.31,144.6Z" transform="translate(59.47 244)" fill="#e0e0e0"/>
    <path id="Контур_11146" data-name="Контур 11146" d="M138.18,65.59H58.41a1.55,1.55,0,0,0-.31,0H37a2.1,2.1,0,0,0-2,1.67l-.55,3A1.35,1.35,0,0,0,35.8,71.9H56a1.11,1.11,0,0,1,1.12,1.37l-.45,2.44A1.72,1.72,0,0,1,55,77.08H16.43a2.12,2.12,0,0,0-1.21,1.49l-.55,3A1.34,1.34,0,0,0,16,83.21H49.14a1.11,1.11,0,0,1,1.12,1.37L49.81,87a1.72,1.72,0,0,1-1.62,1.37H6.82a.7.7,0,0,0-.25.42l-.2,1a.49.49,0,0,0,.49.6h7.68a1.51,1.51,0,0,1,.48-.09H60.16a1.11,1.11,0,0,1,1.12,1.37l-.45,2.44a1.73,1.73,0,0,1-1.62,1.37H19.57a2.12,2.12,0,0,0-1.45,1.58l-.55,3a1.35,1.35,0,0,0,.66,1.49H54.56A1.11,1.11,0,0,1,55.67,103l-.45,2.44a1.71,1.71,0,0,1-1.62,1.37H24.85a.75.75,0,0,0-.7.59l-.2,1.06a.48.48,0,0,0,.49.59H60.58a1.11,1.11,0,0,1,1.12,1.37l-.45,2.44a1.72,1.72,0,0,1-1.63,1.37H14.48a1.13,1.13,0,0,1-.62-.18H5.29a2.11,2.11,0,0,0-2,1.67l-.54,3a1.34,1.34,0,0,0,1.36,1.67H78.54v13l13-13h64A14.35,14.35,0,0,0,169.85,106V80a14.36,14.36,0,0,0-14.36-14.36h-5.25V77.66Z" transform="translate(59.47 244)" fill="none" stroke="#ff5c0c" stroke-width="2"/>
    <path id="Контур_11147" data-name="Контур 11147" d="M226.06,56.53l-.55-3a2.1,2.1,0,0,0-2-1.67H215a1.18,1.18,0,0,1-.62.17H169.2a1.72,1.72,0,0,1-1.62-1.36l-.45-2.44a1.11,1.11,0,0,1,1.12-1.37h36.14a.48.48,0,0,0,.48-.6l-.19-1a.76.76,0,0,0-.71-.6H175.23a1.73,1.73,0,0,1-1.63-1.36l-.45-2.44a1.11,1.11,0,0,1,1.12-1.37H210.6a1.37,1.37,0,0,0,.66-1.5l-.55-3a2.13,2.13,0,0,0-1.45-1.58H169.62A1.71,1.71,0,0,1,168,32.05l-.45-2.43a1.11,1.11,0,0,1,1.11-1.37h45.15a1.61,1.61,0,0,1,.48.08H222a.47.47,0,0,0,.48-.59l-.19-1.06a.79.79,0,0,0-.25-.42h-41.4A1.71,1.71,0,0,1,179,24.89l-.45-2.43a1.11,1.11,0,0,1,1.11-1.37H212.8a1.35,1.35,0,0,0,1.36-1.67l-.55-3A2.14,2.14,0,0,0,212.4,15H173.8a1.71,1.71,0,0,1-1.62-1.37l-.45-2.43a1.11,1.11,0,0,1,1.11-1.37H193a1.35,1.35,0,0,0,1.36-1.67l-.55-3a2.11,2.11,0,0,0-2-1.67H170.73a1.66,1.66,0,0,0-.32,0H73.33A14.35,14.35,0,0,0,59,17.82v26A14.35,14.35,0,0,0,73.33,58.2h64l13,13v-13H224.7a1.35,1.35,0,0,0,1.36-1.67Z" transform="translate(59.47 244)" fill="#ff5c0c"/>
    <path id="Контур_11148" data-name="Контур 11148" d="M81.66,168.32a2.66,2.66,0,0,1-3.72-.61L52.29,132a2.65,2.65,0,0,1,.61-3.71l2.68-1.93a2.67,2.67,0,0,1,3.72.61L85,162.68a2.65,2.65,0,0,1-.61,3.71Z" transform="translate(59.47 244)" fill="#ff5c0c"/>
    <path id="Контур_11149" data-name="Контур 11149" d="M51.3,133.87a63.64,63.64,0,0,1-10.67,12.7c-5.6,5.17-16.56,15-15.43,20.66.42,2.08,1.62,4.8,4.31,8.54s4.88,5.75,6.72,6.81c5,2.87,17.81-4.38,24.5-8a63.28,63.28,0,0,1,15.44-6.07Z" transform="translate(59.47 244)" fill="#ffb692"/>
    <path id="Контур_11150" data-name="Контур 11150" d="M74.49,193.46c.35-1.58-.66-4.74-2.17-5s-4.91,1.75-9.7-1.57a16.39,16.39,0,0,1-5.64-8,91.243,91.243,0,0,1-8.47,4c2.34,5.83,6.64,11.25,10.63,13.52s6.09,2.85,9.44,2.14C72.63,197.67,74.06,195.37,74.49,193.46Z" transform="translate(59.47 244)" fill="#ff5c0c"/>
    <path id="Контур_11151" data-name="Контур 11151" d="M25,171.05c-.16.09-.31.2-.47.3a6.52,6.52,0,1,0,7.61,10.59c.15-.11.29-.23.43-.35a32.12,32.12,0,0,1-4.23-4.94,32,32,0,0,1-3.34-5.6Z" transform="translate(59.47 244)" fill="#ffb692"/>
    <path id="Контур_11152" data-name="Контур 11152" d="M80.17,153.07c3.6-2.59,3.54-8.83-.13-13.94s-9.56-7.15-13.16-4.57l-.1.09,13.28,18.49Z" transform="translate(59.47 244)" fill="#ffb692"/>
  </g>
</svg>
