<svg xmlns="http://www.w3.org/2000/svg" xmlns:xlink="http://www.w3.org/1999/xlink" width="43" height="43" viewBox="0 0 43 43">
  <defs>
    <clipPath id="clip-path">
      <path id="Path_5494" data-name="Path 5494" d="M79.239,65.739c.092-.783.711-1.545.711-2.351s-.625-1.569-.72-2.348a3.509,3.509,0,0,1,.056-.976h0c.039-.241.083-.485.107-.723v-.012c.006-.048.009-.1.012-.141v-.162h0a1.064,1.064,0,0,0-.006-.134v-.024a.951.951,0,0,0-.015-.128v-.024a1.02,1.02,0,0,0-.027-.131c-.194-.779-.979-1.369-1.262-2.107s-.094-1.712-.461-2.411-1.28-1.09-1.732-1.741-.5-1.637-1.027-2.232-1.5-.753-2.1-1.28-.872-1.47-1.527-1.923-1.635-.375-2.34-.747-1.2-1.217-1.944-1.5-1.672.032-2.452-.158-1.45-.893-2.25-.987c-.783-.092-1.61.435-2.417.435s-1.637-.521-2.419-.423c-.8.1-1.48.806-2.244,1-.779.194-1.711-.116-2.45.166s-1.238,1.137-1.941,1.509-1.688.3-2.339.75-.925,1.4-1.521,1.929-1.565.691-2.092,1.285-.564,1.577-1.018,2.235S42.47,53.422,42.1,54.127s-.173,1.664-.455,2.414-1.066,1.333-1.253,2.114c-.012.044-.018.086-.027.131v.024c-.006.042-.012.086-.015.128V59.1h0v.159a1.027,1.027,0,0,0,.012.141v.009c.024.238.07.482.11.723h0a3.513,3.513,0,0,1,.059.976c-.092.783-.711,1.545-.711,2.351s.625,1.569.72,2.348c.1.8-.321,1.688-.134,2.452s.979,1.369,1.262,2.107.092,1.711.462,2.414,1.28,1.09,1.732,1.741.49,1.632,1.018,2.228,1.5.753,2.1,1.28.872,1.47,1.527,1.923,1.634.372,2.343.744,1.2,1.221,1.944,1.5,1.672-.032,2.452.158,1.45.893,2.25.987c.783.092,1.61-.435,2.417-.435s1.637.521,2.419.423c.8-.1,1.48-.806,2.244-1,.779-.194,1.711.116,2.45-.166s1.238-1.137,1.941-1.509,1.688-.3,2.339-.75.925-1.4,1.521-1.929,1.565-.691,2.092-1.285.564-1.577,1.018-2.235,1.355-1.042,1.726-1.747.173-1.664.455-2.414,1.066-1.333,1.256-2.114C79.566,67.424,79.144,66.541,79.239,65.739Z" transform="translate(-39.819 -43.486)" fill="none"/>
    </clipPath>
  </defs>
  <g id="Group_2908" data-name="Group 2908" transform="translate(0.015 0.007)">
    <path id="Path_5490" data-name="Path 5490" d="M71.88,44.123a21.5,21.5,0,1,0,6.295,15.2A21.5,21.5,0,0,0,71.88,44.123Z" transform="translate(-35.19 -37.83)" fill="#dddede"/>
    <g id="Group_2743" data-name="Group 2743" transform="translate(-0.015 -0.007)">
      <g id="Group_2742" data-name="Group 2742">
        <path id="Path_5492" data-name="Path 5492" d="M71.88,44.123a21.5,21.5,0,1,0,6.295,15.2A21.5,21.5,0,0,0,71.88,44.123Zm4.188,18.941a2.033,2.033,0,0,1-.536,2.17,3.4,3.4,0,0,0-.893,2.369,3.058,3.058,0,0,1-.22,1.142,3.008,3.008,0,0,1-.817.834,3.39,3.39,0,0,0-1.438,2.086,2.032,2.032,0,0,1-1.48,1.672,3.405,3.405,0,0,0-1.893,1.684A2.03,2.03,0,0,1,66.954,76.3a4.409,4.409,0,0,0-1.238.378,4.543,4.543,0,0,0-1,.8,3.017,3.017,0,0,1-.932.715,2.986,2.986,0,0,1-1.155.083,4.544,4.544,0,0,0-1.3.07,4.392,4.392,0,0,0-1.161.538,3.106,3.106,0,0,1-1.08.473,3.037,3.037,0,0,1-1.134-.194,4.494,4.494,0,0,0-1.28-.244h0a4.522,4.522,0,0,0-1.285.25,3.063,3.063,0,0,1-1.134.2,3.085,3.085,0,0,1-1.08-.467,4.395,4.395,0,0,0-1.164-.533,3.266,3.266,0,0,0-.775-.08c-.175,0-.352.009-.521.018a3.061,3.061,0,0,1-1.158-.08,3.038,3.038,0,0,1-.932-.711,4.4,4.4,0,0,0-1.006-.8,4.444,4.444,0,0,0-1.241-.372,3.049,3.049,0,0,1-1.107-.357,3.044,3.044,0,0,1-.732-.911,3.414,3.414,0,0,0-1.9-1.682,2.036,2.036,0,0,1-1.488-1.67A3.4,3.4,0,0,0,39.7,69.639a3.064,3.064,0,0,1-.822-.837,3.01,3.01,0,0,1-.223-1.14,3.415,3.415,0,0,0-.9-2.366,2.03,2.03,0,0,1-.542-2.167,3.412,3.412,0,0,0-.3-2.518,3.042,3.042,0,0,1-.339-1.128,3.1,3.1,0,0,1,.336-1.134,4.409,4.409,0,0,0,.39-1.217,4.515,4.515,0,0,0-.092-1.3,3.052,3.052,0,0,1-.059-1.155,3.051,3.051,0,0,1,.6-1.015,3.4,3.4,0,0,0,.893-2.369,3.059,3.059,0,0,1,.221-1.14,3.008,3.008,0,0,1,.818-.837,3.39,3.39,0,0,0,1.438-2.086,2.032,2.032,0,0,1,1.479-1.673,3.405,3.405,0,0,0,1.893-1.684,3.015,3.015,0,0,1,.729-.916,2.994,2.994,0,0,1,1.107-.36,4.41,4.41,0,0,0,1.238-.378,4.543,4.543,0,0,0,1-.8,3.017,3.017,0,0,1,.932-.715,3,3,0,0,1,1.158-.083,4.543,4.543,0,0,0,1.3-.07,4.392,4.392,0,0,0,1.161-.538,3.107,3.107,0,0,1,1.08-.473,3.047,3.047,0,0,1,1.134.194,4.494,4.494,0,0,0,1.28.244h0a4.521,4.521,0,0,0,1.283-.25,3.063,3.063,0,0,1,1.134-.2,3.121,3.121,0,0,1,1.083.467,4.395,4.395,0,0,0,1.164.533,4.651,4.651,0,0,0,1.3.066,2.03,2.03,0,0,1,2.09.791,4.4,4.4,0,0,0,1.006.8,4.444,4.444,0,0,0,1.241.372,2.034,2.034,0,0,1,1.839,1.268,4.419,4.419,0,0,0,.789,1.024,4.588,4.588,0,0,0,1.113.658,2.036,2.036,0,0,1,1.488,1.67,3.4,3.4,0,0,0,1.446,2.083,3.1,3.1,0,0,1,.822.833,3.01,3.01,0,0,1,.223,1.14,3.415,3.415,0,0,0,.9,2.366,3.023,3.023,0,0,1,.6,1.012,3.047,3.047,0,0,1-.056,1.155,3.412,3.412,0,0,0,.3,2.518,3.042,3.042,0,0,1,.339,1.128,3.1,3.1,0,0,1-.336,1.134,4.41,4.41,0,0,0-.39,1.217,4.119,4.119,0,0,0,.087,1.305Z" transform="translate(-35.175 -37.823)" fill="#000504"/>
      </g>
    </g>
    <g id="Group_2904" data-name="Group 2904" transform="translate(1.377 1.682)">
      <g id="Group_2745" data-name="Group 2745" transform="translate(0 0)">
        <g id="Group_2744" data-name="Group 2744" clip-path="url(#clip-path)">
          <path id="Path_5493" data-name="Path 5493" d="M66.905,150.552a.738.738,0,0,0-.64-.262,4.778,4.778,0,0,0-2.467.982,4.585,4.585,0,0,0-1.351,2.255.723.723,0,0,0,.161.655.748.748,0,0,0,.564.268.677.677,0,0,0,.078,0,4.761,4.761,0,0,0,2.467-.987,4.53,4.53,0,0,0,1.348-2.255A.713.713,0,0,0,66.905,150.552Z" transform="translate(-55.701 -118.5)" fill="#fff"/>
        </g>
      </g>
      <g id="Group_2747" data-name="Group 2747" transform="translate(0 0)">
        <g id="Group_2746" data-name="Group 2746" clip-path="url(#clip-path)">
          <path id="Path_5495" data-name="Path 5495" d="M57.9,126.985a6.988,6.988,0,0,0-2.684-1.256,5.362,5.362,0,0,0-2.735.229.617.617,0,0,0-.408.5.741.741,0,0,0,.3.7,6.988,6.988,0,0,0,2.684,1.256,4.77,4.77,0,0,0,.916.086,5.485,5.485,0,0,0,1.815-.316.617.617,0,0,0,.408-.5.729.729,0,0,0-.3-.7Z" transform="translate(-48.425 -101.192)" fill="#fff"/>
        </g>
      </g>
      <g id="Group_2749" data-name="Group 2749" transform="translate(0 0)">
        <g id="Group_2748" data-name="Group 2748" clip-path="url(#clip-path)">
          <path id="Path_5497" data-name="Path 5497" d="M65.789,111.962a6.715,6.715,0,0,0-1.03-2.748.753.753,0,0,0-.669-.357.624.624,0,0,0-.533.352,5.122,5.122,0,0,0-.482,2.667,6.613,6.613,0,0,0,1.03,2.748.751.751,0,0,0,.634.357h.039a.624.624,0,0,0,.533-.352,5.177,5.177,0,0,0,.479-2.667Z" transform="translate(-56.141 -89.401)" fill="#fff"/>
        </g>
      </g>
      <g id="Group_2751" data-name="Group 2751" transform="translate(0 0)">
        <g id="Group_2750" data-name="Group 2750" clip-path="url(#clip-path)">
          <path id="Path_5499" data-name="Path 5499" d="M75.843,132.193a.74.74,0,0,0-.643-.25,4.708,4.708,0,0,0-2.441,1.027,4.6,4.6,0,0,0-1.307,2.28.72.72,0,0,0,.173.652.747.747,0,0,0,.554.256.482.482,0,0,0,.09-.006,4.709,4.709,0,0,0,2.443-1.03,4.567,4.567,0,0,0,1.3-2.28A.71.71,0,0,0,75.843,132.193Z" transform="translate(-62.028 -105.614)" fill="#fff"/>
        </g>
      </g>
      <g id="Group_2753" data-name="Group 2753" transform="translate(0 0)">
        <g id="Group_2752" data-name="Group 2752" clip-path="url(#clip-path)">
          <path id="Path_5501" data-name="Path 5501" d="M83.375,149.025h0a7.419,7.419,0,0,0-2.438-1.789,5.97,5.97,0,0,0-2.813-.417.62.62,0,0,0-.53.4.714.714,0,0,0,.155.738,7.4,7.4,0,0,0,2.435,1.789,5.861,5.861,0,0,0,2.268.443c.211,0,.4-.012.548-.024a.62.62,0,0,0,.53-.4A.717.717,0,0,0,83.375,149.025Z" transform="translate(-66.325 -116.047)" fill="#fff"/>
        </g>
      </g>
      <g id="Group_2755" data-name="Group 2755" transform="translate(0 0)">
        <g id="Group_2754" data-name="Group 2754" clip-path="url(#clip-path)">
          <path id="Path_5503" data-name="Path 5503" d="M57.991,137.222a.753.753,0,0,0-.613-.36,4.925,4.925,0,0,0-2.631.6,4.425,4.425,0,0,0-1.691,1.985h0a.7.7,0,0,0,.056.655.753.753,0,0,0,.613.36H53.9a4.921,4.921,0,0,0,2.458-.6,4.425,4.425,0,0,0,1.691-1.985.7.7,0,0,0-.056-.652Z" transform="translate(-49.08 -109.069)" fill="#fff"/>
        </g>
      </g>
      <g id="Group_2757" data-name="Group 2757" transform="translate(0 0)">
        <g id="Group_2756" data-name="Group 2756" clip-path="url(#clip-path)">
          <path id="Path_5505" data-name="Path 5505" d="M44.461,126.435a6.619,6.619,0,0,0-.944-2.768,7.461,7.461,0,0,0-2.158-2.125.68.68,0,0,0-.735-.027.634.634,0,0,0-.295.616,6.618,6.618,0,0,0,.941,2.768,7.5,7.5,0,0,0,2.158,2.125.736.736,0,0,0,.4.122.657.657,0,0,0,.339-.1A.634.634,0,0,0,44.461,126.435Z" transform="translate(-40.179 -98.225)" fill="#fff"/>
        </g>
      </g>
      <g id="Group_2759" data-name="Group 2759" transform="translate(0 0)">
        <g id="Group_2758" data-name="Group 2758" clip-path="url(#clip-path)">
          <path id="Path_5507" data-name="Path 5507" d="M94.282,161.661a.76.76,0,0,0-.6-.452.634.634,0,0,0-.586.241,4.752,4.752,0,0,0-.964,2.479,6.194,6.194,0,0,0,.569,2.825.77.77,0,0,0,.6.455.733.733,0,0,0,.08.006.63.63,0,0,0,.506-.247h0a4.776,4.776,0,0,0,.964-2.482,6.155,6.155,0,0,0-.569-2.824Z" transform="translate(-76.555 -126.168)" fill="#fff"/>
        </g>
      </g>
      <g id="Group_2761" data-name="Group 2761" transform="translate(0 0)">
        <g id="Group_2760" data-name="Group 2760" clip-path="url(#clip-path)">
          <path id="Path_5509" data-name="Path 5509" d="M75.288,114.108a.767.767,0,0,0-.6-.452.634.634,0,0,0-.588.241,4.741,4.741,0,0,0-.961,2.473,6.114,6.114,0,0,0,.572,2.819.767.767,0,0,0,.6.452.731.731,0,0,0,.08.006.63.63,0,0,0,.506-.247h0a4.753,4.753,0,0,0,.961-2.476A6.109,6.109,0,0,0,75.288,114.108Z" transform="translate(-63.216 -92.77)" fill="#fff"/>
        </g>
      </g>
      <g id="Group_2763" data-name="Group 2763" transform="translate(0 0)">
        <g id="Group_2762" data-name="Group 2762" clip-path="url(#clip-path)">
          <path id="Path_5511" data-name="Path 5511" d="M75.058,107.049a7.314,7.314,0,0,0-2.467-1.723,5.935,5.935,0,0,0-2.806-.343.627.627,0,0,0-.518.408.7.7,0,0,0,.173.732,7.283,7.283,0,0,0,2.467,1.723,5.742,5.742,0,0,0,2.1.384,6.327,6.327,0,0,0,.715-.042.627.627,0,0,0,.518-.408A.717.717,0,0,0,75.058,107.049Z" transform="translate(-60.479 -86.651)" fill="#fff"/>
        </g>
      </g>
      <g id="Group_2765" data-name="Group 2765" transform="translate(0 0)">
        <g id="Group_2764" data-name="Group 2764" clip-path="url(#clip-path)">
          <path id="Path_5513" data-name="Path 5513" d="M88.1,120.635a7.319,7.319,0,0,0-1.777-2.441.709.709,0,0,0-.735-.158.628.628,0,0,0-.4.53h0a5.99,5.99,0,0,0,.408,2.819,7.369,7.369,0,0,0,1.777,2.443.743.743,0,0,0,.5.2.661.661,0,0,0,.238-.044.628.628,0,0,0,.4-.53,6,6,0,0,0-.408-2.822Z" transform="translate(-71.669 -95.818)" fill="#fff"/>
        </g>
      </g>
      <g id="Group_2767" data-name="Group 2767" transform="translate(0 0)">
        <g id="Group_2766" data-name="Group 2766" clip-path="url(#clip-path)">
          <path id="Path_5515" data-name="Path 5515" d="M49.634,149.131a6.554,6.554,0,0,0-2.765-.961,5,5,0,0,0-2.643.564.628.628,0,0,0-.336.542.753.753,0,0,0,.372.664,6.554,6.554,0,0,0,2.765.961c.116.009.232.012.343.012a5.1,5.1,0,0,0,2.3-.574A.628.628,0,0,0,50,149.8.753.753,0,0,0,49.634,149.131Z" transform="translate(-42.681 -117.005)" fill="#fff"/>
        </g>
      </g>
      <g id="Group_2769" data-name="Group 2769" transform="translate(0 0)">
        <g id="Group_2768" data-name="Group 2768" clip-path="url(#clip-path)">
          <path id="Path_5517" data-name="Path 5517" d="M50.891,73.746a6.93,6.93,0,0,0-1.949-2.223,5.3,5.3,0,0,0-2.592-.887.612.612,0,0,0-.572.292.745.745,0,0,0-.006.759,6.952,6.952,0,0,0,1.946,2.223,4.831,4.831,0,0,0,.8.446,5.483,5.483,0,0,0,1.789.44.612.612,0,0,0,.572-.292.732.732,0,0,0,.008-.758Z" transform="translate(-43.933 -62.554)" fill="#fff"/>
        </g>
      </g>
      <g id="Group_2771" data-name="Group 2771" transform="translate(0 0)">
        <g id="Group_2770" data-name="Group 2770" clip-path="url(#clip-path)">
          <path id="Path_5519" data-name="Path 5519" d="M40.99,95.967a.74.74,0,0,0-.643-.25,4.711,4.711,0,0,0-2.438,1.027A4.586,4.586,0,0,0,36.6,99.018h0a.722.722,0,0,0,.173.652.746.746,0,0,0,.55.256.481.481,0,0,0,.09-.006,4.727,4.727,0,0,0,2.441-1.027,4.586,4.586,0,0,0,1.307-2.273A.722.722,0,0,0,40.99,95.967Z" transform="translate(-37.55 -80.169)" fill="#fff"/>
        </g>
      </g>
      <g id="Group_2773" data-name="Group 2773" transform="translate(0 0)">
        <g id="Group_2772" data-name="Group 2772" clip-path="url(#clip-path)">
          <path id="Path_5521" data-name="Path 5521" d="M47.868,113.6a7.355,7.355,0,0,0-2.426-1.786,5.99,5.99,0,0,0-2.806-.417.62.62,0,0,0-.53.4.709.709,0,0,0,.155.735,7.4,7.4,0,0,0,2.429,1.783,5.88,5.88,0,0,0,2.262.44c.211,0,.4-.012.548-.024a.62.62,0,0,0,.53-.4.717.717,0,0,0-.161-.732Z" transform="translate(-41.397 -91.171)" fill="#fff"/>
        </g>
      </g>
      <g id="Group_2775" data-name="Group 2775" transform="translate(0 0)">
        <g id="Group_2774" data-name="Group 2774" clip-path="url(#clip-path)">
          <path id="Path_5523" data-name="Path 5523" d="M71.045,79.279a.775.775,0,0,0-.524-.527,5.655,5.655,0,0,0-2.795-.146A4.531,4.531,0,0,0,65.5,79.969a.648.648,0,0,0-.134.622.775.775,0,0,0,.524.527,6.462,6.462,0,0,0,1.753.262,4.233,4.233,0,0,0,3.271-1.48.667.667,0,0,0,.135-.622Z" transform="translate(-57.745 -68.072)" fill="#fff"/>
        </g>
      </g>
      <g id="Group_2777" data-name="Group 2777" transform="translate(0 0)">
        <g id="Group_2776" data-name="Group 2776" clip-path="url(#clip-path)">
          <path id="Path_5525" data-name="Path 5525" d="M58.685,100.356h0A7.2,7.2,0,0,0,56.1,98.844a5.629,5.629,0,0,0-2.786-.075.619.619,0,0,0-.467.452.726.726,0,0,0,.235.72,7.2,7.2,0,0,0,2.581,1.512,5.285,5.285,0,0,0,1.512.211,5.638,5.638,0,0,0,1.274-.141.619.619,0,0,0,.467-.452A.725.725,0,0,0,58.685,100.356Z" transform="translate(-48.961 -82.218)" fill="#fff"/>
        </g>
      </g>
      <g id="Group_2779" data-name="Group 2779" transform="translate(0 0)">
        <g id="Group_2778" data-name="Group 2778" clip-path="url(#clip-path)">
          <path id="Path_5527" data-name="Path 5527" d="M39.846,78.8a.768.768,0,0,0-.6-.452.634.634,0,0,0-.586.241,4.728,4.728,0,0,0-.961,2.467,6.116,6.116,0,0,0,.564,2.806.768.768,0,0,0,.6.452.727.727,0,0,0,.08.006.634.634,0,0,0,.506-.247,4.714,4.714,0,0,0,.961-2.467A6.153,6.153,0,0,0,39.846,78.8Z" transform="translate(-38.325 -67.97)" fill="#fff"/>
        </g>
      </g>
      <g id="Group_2781" data-name="Group 2781" transform="translate(0 0)">
        <g id="Group_2780" data-name="Group 2780" clip-path="url(#clip-path)">
          <path id="Path_5529" data-name="Path 5529" d="M54.031,86.91a6.933,6.933,0,0,0-2.682-1.25,5.338,5.338,0,0,0-2.729.229.617.617,0,0,0-.408.5.741.741,0,0,0,.3.7,6.933,6.933,0,0,0,2.682,1.25,4.74,4.74,0,0,0,.916.086,5.5,5.5,0,0,0,1.815-.316.617.617,0,0,0,.408-.5.737.737,0,0,0-.3-.7Z" transform="translate(-45.713 -73.049)" fill="#fff"/>
        </g>
      </g>
      <g id="Group_2783" data-name="Group 2783" transform="translate(0 0)">
        <g id="Group_2782" data-name="Group 2782" clip-path="url(#clip-path)">
          <path id="Path_5531" data-name="Path 5531" d="M54.726,96.045a.775.775,0,0,0-.476-.56.662.662,0,0,0-.634.075h0a4.467,4.467,0,0,0-1.581,2.068,5.4,5.4,0,0,0-.1,2.765.775.775,0,0,0,.476.56.7.7,0,0,0,.256.048.653.653,0,0,0,.381-.122,4.462,4.462,0,0,0,1.581-2.071,5.417,5.417,0,0,0,.1-2.763Z" transform="translate(-48.238 -79.975)" fill="#fff"/>
        </g>
      </g>
      <g id="Group_2785" data-name="Group 2785" transform="translate(0 0)">
        <g id="Group_2784" data-name="Group 2784" clip-path="url(#clip-path)">
          <path id="Path_5533" data-name="Path 5533" d="M87.347,94.947a.74.74,0,0,0-.643-.25,4.71,4.71,0,0,0-2.438,1.027A4.553,4.553,0,0,0,82.963,98h0a.722.722,0,0,0,.173.652.747.747,0,0,0,.554.256.481.481,0,0,0,.089-.006,4.71,4.71,0,0,0,2.438-1.027,4.576,4.576,0,0,0,1.3-2.274A.722.722,0,0,0,87.347,94.947Z" transform="translate(-70.112 -79.452)" fill="#fff"/>
        </g>
      </g>
      <g id="Group_2787" data-name="Group 2787" transform="translate(0 0)">
        <g id="Group_2786" data-name="Group 2786" clip-path="url(#clip-path)">
          <path id="Path_5535" data-name="Path 5535" d="M79.566,80.961a.775.775,0,0,0-.6-.452.634.634,0,0,0-.586.241,4.7,4.7,0,0,0-.958,2.467,6.075,6.075,0,0,0,.572,2.806.775.775,0,0,0,.6.452.733.733,0,0,0,.08.006.634.634,0,0,0,.506-.247,4.716,4.716,0,0,0,.958-2.47,6.108,6.108,0,0,0-.572-2.8Z" transform="translate(-66.224 -69.487)" fill="#fff"/>
        </g>
      </g>
      <g id="Group_2790" data-name="Group 2790" transform="translate(0 0)">
        <g id="Group_2789" data-name="Group 2789" clip-path="url(#clip-path)">
          <g id="Group_2788" data-name="Group 2788" transform="translate(0.226 30.183)">
            <path id="Path_5537" data-name="Path 5537" d="M40.59,144.9Z" transform="translate(-40.59 -144.9)" fill="#fff"/>
          </g>
        </g>
      </g>
      <g id="Group_2792" data-name="Group 2792" transform="translate(0 0)">
        <g id="Group_2791" data-name="Group 2791" clip-path="url(#clip-path)">
          <path id="Path_5539" data-name="Path 5539" d="M93.189,143.744a6.662,6.662,0,0,0-4.114-4.166.64.64,0,0,0-.846.83,6.676,6.676,0,0,0,4.113,4.17.677.677,0,0,0,.25.048.628.628,0,0,0,.446-.182.662.662,0,0,0,.15-.7Z" transform="translate(-73.796 -110.946)" fill="#fff"/>
        </g>
      </g>
      <g id="Group_2794" data-name="Group 2794" transform="translate(0 0)">
        <g id="Group_2793" data-name="Group 2793" clip-path="url(#clip-path)">
          <path id="Path_5541" data-name="Path 5541" d="M79.816,159.981a6.645,6.645,0,0,0-2.768-.961,5,5,0,0,0-2.643.564.628.628,0,0,0-.336.542.753.753,0,0,0,.372.664h0a6.526,6.526,0,0,0,2.768.961c.116.009.232.012.345.012a5.113,5.113,0,0,0,2.3-.574.628.628,0,0,0,.336-.542A.771.771,0,0,0,79.816,159.981Z" transform="translate(-63.879 -124.626)" fill="#fff"/>
        </g>
      </g>
      <g id="Group_2796" data-name="Group 2796" transform="translate(0 0)">
        <g id="Group_2795" data-name="Group 2795" clip-path="url(#clip-path)">
          <path id="Path_5543" data-name="Path 5543" d="M147.366,55.283a4.954,4.954,0,0,0-1.221-2.488,4.741,4.741,0,0,0-2.452-1.223.734.734,0,0,0-.655.211.76.76,0,0,0-.217.672,4.953,4.953,0,0,0,1.221,2.488,4.741,4.741,0,0,0,2.452,1.223.593.593,0,0,0,.125.012.775.775,0,0,0,.747-.9Z" transform="translate(-112.161 -49.157)" fill="#fff"/>
        </g>
      </g>
      <g id="Group_2798" data-name="Group 2798" transform="translate(0 0)">
        <g id="Group_2797" data-name="Group 2797" clip-path="url(#clip-path)">
          <path id="Path_5545" data-name="Path 5545" d="M120.662,59.208a.622.622,0,0,0-.536-.372.753.753,0,0,0-.688.363,7.259,7.259,0,0,0-1.092,2.9,5.54,5.54,0,0,0,.458,2.827.622.622,0,0,0,.536.372h.051a.76.76,0,0,0,.634-.363,7.259,7.259,0,0,0,1.092-2.9A5.52,5.52,0,0,0,120.662,59.208Z" transform="translate(-94.956 -54.266)" fill="#fff"/>
        </g>
      </g>
      <g id="Group_2800" data-name="Group 2800" transform="translate(0 0)">
        <g id="Group_2799" data-name="Group 2799" clip-path="url(#clip-path)">
          <path id="Path_5547" data-name="Path 5547" d="M99.616,63.072a.634.634,0,0,0-.4-.512,5.314,5.314,0,0,0-2.819-.285,7.059,7.059,0,0,0-2.779,1.292.758.758,0,0,0-.309.711.634.634,0,0,0,.4.512h0a5.519,5.519,0,0,0,1.944.366,5.015,5.015,0,0,0,.872-.078,7.075,7.075,0,0,0,2.783-1.292A.782.782,0,0,0,99.616,63.072Z" transform="translate(-77.389 -56.628)" fill="#fff"/>
        </g>
      </g>
      <g id="Group_2802" data-name="Group 2802" transform="translate(0 0)">
        <g id="Group_2801" data-name="Group 2801" clip-path="url(#clip-path)">
          <path id="Path_5549" data-name="Path 5549" d="M128.783,47.383a4.92,4.92,0,0,0-1.265-2.458,4.771,4.771,0,0,0-2.476-1.175.769.769,0,0,0-.857.9,4.92,4.92,0,0,0,1.265,2.458,4.771,4.771,0,0,0,2.476,1.175.727.727,0,0,0,.652-.229A.741.741,0,0,0,128.783,47.383Z" transform="translate(-99.069 -43.665)" fill="#fff"/>
        </g>
      </g>
      <g id="Group_2804" data-name="Group 2804" transform="translate(0 0)">
        <g id="Group_2803" data-name="Group 2803" clip-path="url(#clip-path)">
          <path id="Path_5551" data-name="Path 5551" d="M131.63,60.122a4.639,4.639,0,0,0-2.2-1.6.713.713,0,0,0-.661.11.775.775,0,0,0-.321.652,5.286,5.286,0,0,0,.83,2.691,4.639,4.639,0,0,0,2.2,1.6.64.64,0,0,0,.223.039.739.739,0,0,0,.438-.149.775.775,0,0,0,.321-.652,5.233,5.233,0,0,0-.83-2.691Z" transform="translate(-102.073 -54.02)" fill="#fff"/>
        </g>
      </g>
      <g id="Group_2806" data-name="Group 2806" transform="translate(0 0)">
        <g id="Group_2805" data-name="Group 2805" clip-path="url(#clip-path)">
          <path id="Path_5553" data-name="Path 5553" d="M128.087,79.874a4.617,4.617,0,0,0-1.777,2.056.712.712,0,0,0,.054.667.775.775,0,0,0,.625.372,5.278,5.278,0,0,0,2.753-.6,4.646,4.646,0,0,0,1.779-2.056.617.617,0,0,0,.056-.221.731.731,0,0,0-.11-.446.77.77,0,0,0-.625-.372,5.286,5.286,0,0,0-2.756.6Z" transform="translate(-100.53 -68.617)" fill="#fff"/>
        </g>
      </g>
      <g id="Group_2808" data-name="Group 2808" transform="translate(0 0)">
        <g id="Group_2807" data-name="Group 2807" clip-path="url(#clip-path)">
          <path id="Path_5555" data-name="Path 5555" d="M114.507,81.361a.647.647,0,0,0,.661.221,6.913,6.913,0,0,0,2.748-1.339,7.831,7.831,0,0,0,1.923-2.512.691.691,0,0,0-.066-.747.64.64,0,0,0-.533-.238,1.014,1.014,0,0,0-.128.018,6.939,6.939,0,0,0-2.748,1.333,7.823,7.823,0,0,0-1.925,2.515.7.7,0,0,0,.068.749Z" transform="translate(-92.179 -66.848)" fill="#fff"/>
        </g>
      </g>
      <g id="Group_2810" data-name="Group 2810" transform="translate(0 0)">
        <g id="Group_2809" data-name="Group 2809" clip-path="url(#clip-path)">
          <path id="Path_5557" data-name="Path 5557" d="M158.291,67.853h0a4.959,4.959,0,0,0-2.661-.8,6.619,6.619,0,0,0-2.889.818.787.787,0,0,0-.416.652.646.646,0,0,0,.292.577,4.971,4.971,0,0,0,2.631.8h.027a6.458,6.458,0,0,0,2.9-.818.787.787,0,0,0,.417-.652A.648.648,0,0,0,158.291,67.853Z" transform="translate(-118.841 -60.037)" fill="#fff"/>
        </g>
      </g>
      <g id="Group_2812" data-name="Group 2812" transform="translate(0 0)">
        <g id="Group_2811" data-name="Group 2811" clip-path="url(#clip-path)">
          <path id="Path_5559" data-name="Path 5559" d="M57.741,64.693h0a4.959,4.959,0,0,0-2.661-.8,6.619,6.619,0,0,0-2.889.818.787.787,0,0,0-.417.652.646.646,0,0,0,.292.577,4.971,4.971,0,0,0,2.631.8h.027a6.458,6.458,0,0,0,2.9-.818.787.787,0,0,0,.417-.652A.634.634,0,0,0,57.741,64.693Z" transform="translate(-48.217 -57.818)" fill="#fff"/>
        </g>
      </g>
      <g id="Group_2814" data-name="Group 2814" transform="translate(0 0)">
        <g id="Group_2813" data-name="Group 2813" clip-path="url(#clip-path)">
          <path id="Path_5561" data-name="Path 5561" d="M110.307,50.221a4.961,4.961,0,0,0-2.652-.8,6.392,6.392,0,0,0-2.884.822.784.784,0,0,0-.414.652.634.634,0,0,0,.292.574,4.947,4.947,0,0,0,2.622.8h.03a6.417,6.417,0,0,0,2.889-.822.775.775,0,0,0,.414-.652.653.653,0,0,0-.3-.574Z" transform="translate(-85.153 -47.654)" fill="#fff"/>
        </g>
      </g>
      <g id="Group_2816" data-name="Group 2816" transform="translate(0 0)">
        <g id="Group_2815" data-name="Group 2815" clip-path="url(#clip-path)">
          <path id="Path_5563" data-name="Path 5563" d="M97.794,39.5a.634.634,0,0,0-.455-.493.722.722,0,0,0-.732.235,7.71,7.71,0,0,0-1.6,2.71,6.163,6.163,0,0,0-.131,2.949.634.634,0,0,0,.455.493.737.737,0,0,0,.178.024.749.749,0,0,0,.554-.259h0a7.682,7.682,0,0,0,1.6-2.708A6.125,6.125,0,0,0,97.794,39.5Z" transform="translate(-78.41 -40.327)" fill="#fff"/>
        </g>
      </g>
      <g id="Group_2818" data-name="Group 2818" transform="translate(0 0)">
        <g id="Group_2817" data-name="Group 2817" clip-path="url(#clip-path)">
          <path id="Path_5565" data-name="Path 5565" d="M144.383,66.056a.634.634,0,0,0-.577-.3.771.771,0,0,0-.646.431,6.956,6.956,0,0,0-.779,2.956,5.279,5.279,0,0,0,.795,2.705.634.634,0,0,0,.545.3h.032a.771.771,0,0,0,.646-.431,6.836,6.836,0,0,0,.779-2.956A5.221,5.221,0,0,0,144.383,66.056Z" transform="translate(-111.86 -59.129)" fill="#fff"/>
        </g>
      </g>
      <g id="Group_2820" data-name="Group 2820" transform="translate(0 0)">
        <g id="Group_2819" data-name="Group 2819" clip-path="url(#clip-path)">
          <path id="Path_5567" data-name="Path 5567" d="M113.215,95.2A4.973,4.973,0,0,0,112,92.718a4.758,4.758,0,0,0-2.446-1.226.726.726,0,0,0-.652.211.76.76,0,0,0-.217.672,4.973,4.973,0,0,0,1.217,2.485,4.758,4.758,0,0,0,2.446,1.226.6.6,0,0,0,.128.012.751.751,0,0,0,.527-.226.768.768,0,0,0,.214-.67Z" transform="translate(-88.182 -77.196)" fill="#fff"/>
        </g>
      </g>
      <g id="Group_2822" data-name="Group 2822" transform="translate(0 0)">
        <g id="Group_2821" data-name="Group 2821" clip-path="url(#clip-path)">
          <path id="Path_5569" data-name="Path 5569" d="M94.814,87.767a4.929,4.929,0,0,0-1.262-2.455,4.757,4.757,0,0,0-2.47-1.175.734.734,0,0,0-.652.226.748.748,0,0,0-.205.672,4.929,4.929,0,0,0,1.261,2.456,4.792,4.792,0,0,0,2.47,1.178h0a.761.761,0,0,0,.116.009.775.775,0,0,0,.741-.911Z" transform="translate(-75.216 -72.031)" fill="#fff"/>
        </g>
      </g>
      <g id="Group_2824" data-name="Group 2824" transform="translate(0 0)">
        <g id="Group_2823" data-name="Group 2823" clip-path="url(#clip-path)">
          <path id="Path_5571" data-name="Path 5571" d="M107.651,71.23a.634.634,0,0,0-.443-.506.722.722,0,0,0-.735.217,7.732,7.732,0,0,0-1.664,2.672,6.246,6.246,0,0,0-.211,2.96.634.634,0,0,0,.443.506.709.709,0,0,0,.194.03.751.751,0,0,0,.542-.244,7.7,7.7,0,0,0,1.664-2.672A6.3,6.3,0,0,0,107.651,71.23Z" transform="translate(-85.26 -62.598)" fill="#fff"/>
        </g>
      </g>
      <g id="Group_2826" data-name="Group 2826" transform="translate(0 0)">
        <g id="Group_2825" data-name="Group 2825" clip-path="url(#clip-path)">
          <path id="Path_5573" data-name="Path 5573" d="M101.72,104.913a4.663,4.663,0,0,0-2.194-1.6h0a.712.712,0,0,0-.661.107.769.769,0,0,0-.319.652,5.274,5.274,0,0,0,.83,2.688,4.642,4.642,0,0,0,2.194,1.6.646.646,0,0,0,.226.039.741.741,0,0,0,.435-.146.769.769,0,0,0,.319-.652A5.29,5.29,0,0,0,101.72,104.913Z" transform="translate(-81.071 -85.478)" fill="#fff"/>
        </g>
      </g>
      <g id="Group_2828" data-name="Group 2828" transform="translate(0 0)">
        <g id="Group_2827" data-name="Group 2827" clip-path="url(#clip-path)">
          <path id="Path_5575" data-name="Path 5575" d="M71.022,90.918a4.707,4.707,0,0,0-1.6-2.209.668.668,0,0,0-.643-.09.786.786,0,0,0-.493.574,5.9,5.9,0,0,0,.07,2.92,4.707,4.707,0,0,0,1.6,2.209.634.634,0,0,0,.4.134.735.735,0,0,0,.247-.044.786.786,0,0,0,.493-.574A5.9,5.9,0,0,0,71.022,90.918Z" transform="translate(-59.713 -75.158)" fill="#fff"/>
        </g>
      </g>
      <g id="Group_2830" data-name="Group 2830" transform="translate(0 0)">
        <g id="Group_2829" data-name="Group 2829" clip-path="url(#clip-path)">
          <path id="Path_5577" data-name="Path 5577" d="M94.355,116.79a.639.639,0,0,0-.646-.25,6.878,6.878,0,0,0-2.8,1.2,7.756,7.756,0,0,0-2.032,2.411.7.7,0,0,0,.03.75.639.639,0,0,0,.521.262.593.593,0,0,0,.125-.012,6.869,6.869,0,0,0,2.8-1.2,7.823,7.823,0,0,0,2.036-2.414.7.7,0,0,0-.03-.747Z" transform="translate(-74.212 -94.79)" fill="#fff"/>
        </g>
      </g>
      <g id="Group_2832" data-name="Group 2832" transform="translate(0 0)">
        <g id="Group_2831" data-name="Group 2831" clip-path="url(#clip-path)">
          <path id="Path_5579" data-name="Path 5579" d="M124.1,107.762a4.978,4.978,0,0,0-2.631-.806h-.021a6.418,6.418,0,0,0-2.889.815.775.775,0,0,0-.414.649.646.646,0,0,0,.292.577,4.969,4.969,0,0,0,2.633.808h.021a6.457,6.457,0,0,0,2.889-.813.775.775,0,0,0,.414-.652.649.649,0,0,0-.294-.579Z" transform="translate(-94.839 -88.068)" fill="#fff"/>
        </g>
      </g>
      <g id="Group_2834" data-name="Group 2834" transform="translate(0 0)">
        <g id="Group_2833" data-name="Group 2833" clip-path="url(#clip-path)">
          <path id="Path_5581" data-name="Path 5581" d="M126.1,93.5a.621.621,0,0,0-.5-.438.738.738,0,0,0-.715.295h0a7.5,7.5,0,0,0-1.369,2.81,5.866,5.866,0,0,0,.146,2.908.621.621,0,0,0,.5.438.807.807,0,0,0,.122.012.751.751,0,0,0,.6-.307,7.47,7.47,0,0,0,1.369-2.81A5.894,5.894,0,0,0,126.1,93.5Z" transform="translate(-98.526 -78.302)" fill="#fff"/>
        </g>
      </g>
      <g id="Group_2836" data-name="Group 2836" transform="translate(0 0)">
        <g id="Group_2835" data-name="Group 2835" clip-path="url(#clip-path)">
          <path id="Path_5583" data-name="Path 5583" d="M81.158,65a.622.622,0,0,0-.536-.372.751.751,0,0,0-.684.363,7.249,7.249,0,0,0-1.09,2.889,5.546,5.546,0,0,0,.458,2.819.622.622,0,0,0,.536.372h.051a.76.76,0,0,0,.634-.363,7.249,7.249,0,0,0,1.09-2.889A5.626,5.626,0,0,0,81.158,65Z" transform="translate(-67.215 -58.334)" fill="#fff"/>
        </g>
      </g>
      <g id="Group_2838" data-name="Group 2838" transform="translate(0 0)">
        <g id="Group_2837" data-name="Group 2837" clip-path="url(#clip-path)">
          <path id="Path_5585" data-name="Path 5585" d="M92.564,73.953a4.651,4.651,0,0,0-2.28-1.48,5.638,5.638,0,0,0-2.889.119.788.788,0,0,0-.533.527.673.673,0,0,0,.125.64h0A4.319,4.319,0,0,0,90.41,75.38a6.565,6.565,0,0,0,1.744-.256.787.787,0,0,0,.533-.53A.673.673,0,0,0,92.564,73.953Z" transform="translate(-72.844 -63.749)" fill="#fff"/>
        </g>
      </g>
      <g id="Group_2840" data-name="Group 2840" transform="translate(0 0)">
        <g id="Group_2839" data-name="Group 2839" clip-path="url(#clip-path)">
          <path id="Path_5587" data-name="Path 5587" d="M83.994,52.239a4.929,4.929,0,0,0-1.262-2.455,4.78,4.78,0,0,0-2.47-1.175.734.734,0,0,0-.649.226.756.756,0,0,0-.205.672,4.929,4.929,0,0,0,1.259,2.456,4.78,4.78,0,0,0,2.47,1.175h0a.772.772,0,0,0,.857-.9Z" transform="translate(-67.619 -47.078)" fill="#fff"/>
        </g>
      </g>
      <g id="Group_2842" data-name="Group 2842" transform="translate(0 0)">
        <g id="Group_2841" data-name="Group 2841" clip-path="url(#clip-path)">
          <path id="Path_5589" data-name="Path 5589" d="M64.447,52.091a4.933,4.933,0,0,0-2.616-.8H61.8a6.413,6.413,0,0,0-2.875.818.784.784,0,0,0-.414.652.641.641,0,0,0,.289.574,4.933,4.933,0,0,0,2.616.8h.027a6.377,6.377,0,0,0,2.878-.818.784.784,0,0,0,.414-.652.634.634,0,0,0-.289-.574Z" transform="translate(-52.951 -48.968)" fill="#fff"/>
        </g>
      </g>
      <g id="Group_2844" data-name="Group 2844" transform="translate(0 0)">
        <g id="Group_2843" data-name="Group 2843" clip-path="url(#clip-path)">
          <path id="Path_5591" data-name="Path 5591" d="M110.238,105.956a.634.634,0,0,0-.574-.3.771.771,0,0,0-.646.431,6.96,6.96,0,0,0-.775,2.949,5.215,5.215,0,0,0,.795,2.7.634.634,0,0,0,.545.3h.032a.768.768,0,0,0,.646-.428,6.96,6.96,0,0,0,.775-2.949A5.262,5.262,0,0,0,110.238,105.956Z" transform="translate(-87.881 -87.154)" fill="#fff"/>
        </g>
      </g>
      <g id="Group_2846" data-name="Group 2846" transform="translate(0 0)">
        <g id="Group_2845" data-name="Group 2845" clip-path="url(#clip-path)">
          <path id="Path_5593" data-name="Path 5593" d="M155.846,80.326a4.953,4.953,0,0,0-1.221-2.488,4.773,4.773,0,0,0-2.452-1.226.734.734,0,0,0-.655.211.76.76,0,0,0-.217.672h0a4.954,4.954,0,0,0,1.221,2.488,4.773,4.773,0,0,0,2.452,1.226.6.6,0,0,0,.128.012.751.751,0,0,0,.526-.226A.76.76,0,0,0,155.846,80.326Z" transform="translate(-118.117 -66.745)" fill="#fff"/>
        </g>
      </g>
      <g id="Group_2848" data-name="Group 2848" transform="translate(0 0)">
        <g id="Group_2847" data-name="Group 2847" clip-path="url(#clip-path)">
          <path id="Path_5595" data-name="Path 5595" d="M140.757,90.24a4.638,4.638,0,0,0-2.2-1.6h0a.7.7,0,0,0-.661.11.775.775,0,0,0-.319.652,5.286,5.286,0,0,0,.83,2.691,4.639,4.639,0,0,0,2.2,1.6.645.645,0,0,0,.226.039.739.739,0,0,0,.438-.149.775.775,0,0,0,.319-.652A5.262,5.262,0,0,0,140.757,90.24Z" transform="translate(-108.486 -75.173)" fill="#fff"/>
        </g>
      </g>
      <g id="Group_2850" data-name="Group 2850" transform="translate(0 0)">
        <g id="Group_2849" data-name="Group 2849" clip-path="url(#clip-path)">
          <path id="Path_5597" data-name="Path 5597" d="M157.869,94.362a4.981,4.981,0,0,0-2.634-.806h-.02a6.583,6.583,0,0,0-2.889.815.787.787,0,0,0-.416.652.646.646,0,0,0,.292.577,4.981,4.981,0,0,0,2.634.806h.021a6.582,6.582,0,0,0,2.889-.815.787.787,0,0,0,.416-.652.643.643,0,0,0-.292-.577Z" transform="translate(-118.547 -78.656)" fill="#fff"/>
        </g>
      </g>
      <g id="Group_2853" data-name="Group 2853" transform="translate(0 0)">
        <g id="Group_2852" data-name="Group 2852" clip-path="url(#clip-path)">
          <g id="Group_2851" data-name="Group 2851" transform="translate(20.716 -2.723)">
            <path id="Path_5599" data-name="Path 5599" d="M114.9,34.338a6.234,6.234,0,0,0-2.9.652,7.78,7.78,0,0,0-2.4,2.044.724.724,0,0,0-.1.762.634.634,0,0,0,.569.363h.1a6.262,6.262,0,0,0,2.795-.652,7.7,7.7,0,0,0,2.4-2.044.724.724,0,0,0,.106-.762A.629.629,0,0,0,114.9,34.338Z" transform="translate(-109.433 -34.336)" fill="#fff"/>
          </g>
        </g>
      </g>
      <g id="Group_2855" data-name="Group 2855" transform="translate(0 0)">
        <g id="Group_2854" data-name="Group 2854" clip-path="url(#clip-path)">
          <path id="Path_5601" data-name="Path 5601" d="M163.445,120.087a4.633,4.633,0,0,0-1.6-2.032,4.464,4.464,0,0,0-2.479-.634.7.7,0,0,0-.574.336.729.729,0,0,0-.07.679,4.612,4.612,0,0,0,1.6,2.03,4.391,4.391,0,0,0,2.36.64h.116a.7.7,0,0,0,.574-.336.722.722,0,0,0,.073-.681Z" transform="translate(-123.298 -95.413)" fill="#fff"/>
        </g>
      </g>
      <g id="Group_2857" data-name="Group 2857" transform="translate(0 0)">
        <g id="Group_2856" data-name="Group 2856" clip-path="url(#clip-path)">
          <path id="Path_5603" data-name="Path 5603" d="M142.161,130.87a5.145,5.145,0,0,0-.973-2.488.61.61,0,0,0-.586-.247.725.725,0,0,0-.574.482,6.651,6.651,0,0,0-.428,2.851,5.155,5.155,0,0,0,.973,2.488.614.614,0,0,0,.5.253.528.528,0,0,0,.092-.006.725.725,0,0,0,.574-.482,6.863,6.863,0,0,0,.426-2.851Z" transform="translate(-109.889 -102.937)" fill="#fff"/>
        </g>
      </g>
      <g id="Group_2859" data-name="Group 2859" transform="translate(0 0)">
        <g id="Group_2858" data-name="Group 2858" clip-path="url(#clip-path)">
          <path id="Path_5605" data-name="Path 5605" d="M122.211,134.748a.615.615,0,0,0-.485-.4,4.962,4.962,0,0,0-2.625.289,6.584,6.584,0,0,0-2.28,1.72.736.736,0,0,0-.149.735.615.615,0,0,0,.485.4,4.976,4.976,0,0,0,.8.063,4.775,4.775,0,0,0,1.825-.352,6.465,6.465,0,0,0,2.283-1.72A.736.736,0,0,0,122.211,134.748Z" transform="translate(-93.773 -107.258)" fill="#fff"/>
        </g>
      </g>
      <g id="Group_2861" data-name="Group 2861" transform="translate(0 0)">
        <g id="Group_2860" data-name="Group 2860" clip-path="url(#clip-path)">
          <path id="Path_5607" data-name="Path 5607" d="M142.984,116.514a4.63,4.63,0,0,0-1.637-2,4.446,4.446,0,0,0-2.491-.586.71.71,0,0,0-.569.345.727.727,0,0,0-.056.679,4.587,4.587,0,0,0,1.637,1.994,4.359,4.359,0,0,0,2.277.592c.078,0,.149,0,.211-.006a.71.71,0,0,0,.569-.345.721.721,0,0,0,.059-.676Z" transform="translate(-108.903 -92.959)" fill="#fff"/>
        </g>
      </g>
      <g id="Group_2863" data-name="Group 2863" transform="translate(0 0)">
        <g id="Group_2862" data-name="Group 2862" clip-path="url(#clip-path)">
          <path id="Path_5609" data-name="Path 5609" d="M155.309,98.6a.612.612,0,0,0-.524-.39.7.7,0,0,0-.655.352,7.2,7.2,0,0,0-.994,2.768,5.8,5.8,0,0,0,.39,2.741.619.619,0,0,0,.524.393h.054a.71.71,0,0,0,.6-.352,7.184,7.184,0,0,0,.994-2.768A5.862,5.862,0,0,0,155.309,98.6Z" transform="translate(-119.392 -81.919)" fill="#fff"/>
        </g>
      </g>
      <g id="Group_2865" data-name="Group 2865" transform="translate(0 0)">
        <g id="Group_2864" data-name="Group 2864" clip-path="url(#clip-path)">
          <path id="Path_5611" data-name="Path 5611" d="M152.766,131.859a4.8,4.8,0,0,0-1.286-2.292,4.333,4.333,0,0,0-2.321-1.03.689.689,0,0,0-.6.238.741.741,0,0,0-.17.681,4.8,4.8,0,0,0,1.285,2.292,4.334,4.334,0,0,0,2.321,1.03.786.786,0,0,0,.086.006.686.686,0,0,0,.518-.244.741.741,0,0,0,.171-.681Z" transform="translate(-116.059 -103.221)" fill="#fff"/>
        </g>
      </g>
      <g id="Group_2867" data-name="Group 2867" transform="translate(0 0)">
        <g id="Group_2866" data-name="Group 2866" clip-path="url(#clip-path)">
          <path id="Path_5613" data-name="Path 5613" d="M148.335,143.068a.634.634,0,0,0-.667-.107h0a6.413,6.413,0,0,0-2.321,1.646,7.259,7.259,0,0,0-1.384,2.6.674.674,0,0,0,.182.7.614.614,0,0,0,.414.158.7.7,0,0,0,.253-.051,6.458,6.458,0,0,0,2.321-1.643,7.348,7.348,0,0,0,1.387-2.6A.689.689,0,0,0,148.335,143.068Z" transform="translate(-112.947 -113.319)" fill="#fff"/>
        </g>
      </g>
      <g id="Group_2869" data-name="Group 2869" transform="translate(0 0)">
        <g id="Group_2868" data-name="Group 2868" clip-path="url(#clip-path)">
          <path id="Path_5615" data-name="Path 5615" d="M129.573,121.818a.628.628,0,0,0-.393-.488,4.6,4.6,0,0,0-2.577-.211,5.954,5.954,0,0,0-2.467,1.312.758.758,0,0,0-.259.7.634.634,0,0,0,.393.488,4.836,4.836,0,0,0,1.672.309,4.081,4.081,0,0,0,.9-.1,5.966,5.966,0,0,0,2.47-1.312A.761.761,0,0,0,129.573,121.818Z" transform="translate(-98.856 -97.945)" fill="#fff"/>
        </g>
      </g>
      <g id="Group_2871" data-name="Group 2871" transform="translate(0 0)">
        <g id="Group_2870" data-name="Group 2870" clip-path="url(#clip-path)">
          <path id="Path_5617" data-name="Path 5617" d="M131.618,105.472a.619.619,0,0,0-.613-.229,5.87,5.87,0,0,0-2.515,1.161,7.181,7.181,0,0,0-1.786,2.331.7.7,0,0,0,.056.741.613.613,0,0,0,.493.241.6.6,0,0,0,.125-.012h0a5.833,5.833,0,0,0,2.515-1.161,7.215,7.215,0,0,0,1.789-2.333.7.7,0,0,0-.064-.739Z" transform="translate(-100.793 -86.855)" fill="#fff"/>
        </g>
      </g>
      <g id="Group_2873" data-name="Group 2873" transform="translate(0 0)">
        <g id="Group_2872" data-name="Group 2872" clip-path="url(#clip-path)">
          <path id="Path_5619" data-name="Path 5619" d="M140.246,162.936a4.64,4.64,0,0,0-1.6-2.03,4.453,4.453,0,0,0-2.473-.64.716.716,0,0,0-.574.333.729.729,0,0,0-.07.679,4.64,4.64,0,0,0,1.6,2.03,4.386,4.386,0,0,0,2.363.64h.11a.712.712,0,0,0,.574-.333A.73.73,0,0,0,140.246,162.936Z" transform="translate(-107.01 -125.509)" fill="#fff"/>
        </g>
      </g>
      <g id="Group_2875" data-name="Group 2875" transform="translate(0 0)">
        <g id="Group_2874" data-name="Group 2874" clip-path="url(#clip-path)">
          <path id="Path_5621" data-name="Path 5621" d="M119.023,173.652a5.187,5.187,0,0,0-.97-2.485.61.61,0,0,0-.586-.247.727.727,0,0,0-.574.479,6.727,6.727,0,0,0-.423,2.845,5.187,5.187,0,0,0,.97,2.485.615.615,0,0,0,.5.253.526.526,0,0,0,.092-.006.727.727,0,0,0,.574-.479A6.879,6.879,0,0,0,119.023,173.652Z" transform="translate(-93.643 -132.99)" fill="#fff"/>
        </g>
      </g>
      <g id="Group_2877" data-name="Group 2877" transform="translate(0 0)">
        <g id="Group_2876" data-name="Group 2876" clip-path="url(#clip-path)">
          <path id="Path_5623" data-name="Path 5623" d="M120.815,159.261a4.593,4.593,0,0,0-1.634-1.994,4.435,4.435,0,0,0-2.485-.589.71.71,0,0,0-.569.345.722.722,0,0,0-.056.676,4.593,4.593,0,0,0,1.634,1.994,4.354,4.354,0,0,0,2.28.6h.205a.71.71,0,0,0,.569-.345A.727.727,0,0,0,120.815,159.261Z" transform="translate(-93.338 -122.985)" fill="#fff"/>
        </g>
      </g>
      <g id="Group_2879" data-name="Group 2879" transform="translate(0 0)">
        <g id="Group_2878" data-name="Group 2878" clip-path="url(#clip-path)">
          <path id="Path_5625" data-name="Path 5625" d="M132.124,141.485a.612.612,0,0,0-.524-.39.7.7,0,0,0-.652.352h0a7.205,7.205,0,0,0-.991,2.759,5.814,5.814,0,0,0,.39,2.735.612.612,0,0,0,.524.39h.054a.71.71,0,0,0,.6-.352,7.205,7.205,0,0,0,.991-2.759,5.867,5.867,0,0,0-.393-2.735Z" transform="translate(-103.112 -112.043)" fill="#fff"/>
        </g>
      </g>
      <g id="Group_2881" data-name="Group 2881" transform="translate(0 0)">
        <g id="Group_2880" data-name="Group 2880" clip-path="url(#clip-path)">
          <path id="Path_5627" data-name="Path 5627" d="M120.448,118.089a4.377,4.377,0,0,0-1.89-1.7.643.643,0,0,0-.628.048.768.768,0,0,0-.352.643,5.519,5.519,0,0,0,.634,2.649,4.377,4.377,0,0,0,1.89,1.7.6.6,0,0,0,.268.059.676.676,0,0,0,.36-.107.768.768,0,0,0,.352-.643,5.45,5.45,0,0,0-.634-2.649Z" transform="translate(-94.439 -94.648)" fill="#fff"/>
        </g>
      </g>
      <g id="Group_2884" data-name="Group 2884" transform="translate(0 0)">
        <g id="Group_2883" data-name="Group 2883" clip-path="url(#clip-path)">
          <g id="Group_2882" data-name="Group 2882" transform="translate(34.905 32.591)">
            <path id="Path_5629" data-name="Path 5629" d="M157.11,152.99Z" transform="translate(-157.11 -152.99)" fill="#fff"/>
          </g>
        </g>
      </g>
      <g id="Group_2886" data-name="Group 2886" transform="translate(0 0)">
        <g id="Group_2885" data-name="Group 2885" clip-path="url(#clip-path)">
          <path id="Path_5631" data-name="Path 5631" d="M106.45,164.627a.628.628,0,0,0-.393-.488,4.6,4.6,0,0,0-2.572-.211,5.92,5.92,0,0,0-2.462,1.307.755.755,0,0,0-.259.7.622.622,0,0,0,.393.488,4.76,4.76,0,0,0,1.676.312,4.175,4.175,0,0,0,.9-.1h0a5.936,5.936,0,0,0,2.467-1.307A.761.761,0,0,0,106.45,164.627Z" transform="translate(-82.623 -128.012)" fill="#fff"/>
        </g>
      </g>
      <g id="Group_2888" data-name="Group 2888" transform="translate(0 0)">
        <g id="Group_2887" data-name="Group 2887" clip-path="url(#clip-path)">
          <path id="Path_5633" data-name="Path 5633" d="M107.137,140.616a5.175,5.175,0,0,0-.97-2.485.61.61,0,0,0-.586-.247.725.725,0,0,0-.574.482,6.789,6.789,0,0,0-.423,2.849,5.188,5.188,0,0,0,.97,2.485.61.61,0,0,0,.493.253.528.528,0,0,0,.092-.006.725.725,0,0,0,.574-.482,6.751,6.751,0,0,0,.424-2.849Z" transform="translate(-85.295 -109.785)" fill="#fff"/>
        </g>
      </g>
      <g id="Group_2890" data-name="Group 2890" transform="translate(0 0)">
        <g id="Group_2889" data-name="Group 2889" clip-path="url(#clip-path)">
          <path id="Path_5635" data-name="Path 5635" d="M114.4,147.055a4.307,4.307,0,0,0-2.372-.9,5.266,5.266,0,0,0-2.608.672.763.763,0,0,0-.4.607.666.666,0,0,0,.247.583,4.307,4.307,0,0,0,2.369.9h.161a5.405,5.405,0,0,0,2.446-.676.762.762,0,0,0,.4-.607.656.656,0,0,0-.244-.58Z" transform="translate(-88.429 -115.595)" fill="#fff"/>
        </g>
      </g>
      <g id="Group_2892" data-name="Group 2892" transform="translate(0 0)">
        <g id="Group_2891" data-name="Group 2891" clip-path="url(#clip-path)">
          <path id="Path_5637" data-name="Path 5637" d="M109.595,127.762a4.593,4.593,0,0,0-1.634-1.994,4.461,4.461,0,0,0-2.485-.589.71.71,0,0,0-.569.345.727.727,0,0,0-.056.679,4.593,4.593,0,0,0,1.634,1.994,4.357,4.357,0,0,0,2.274.592h.211a.71.71,0,0,0,.569-.345.72.72,0,0,0,.056-.681Z" transform="translate(-85.458 -100.862)" fill="#fff"/>
        </g>
      </g>
      <g id="Group_2894" data-name="Group 2894" transform="translate(0 0)">
        <g id="Group_2893" data-name="Group 2893" clip-path="url(#clip-path)">
          <path id="Path_5639" data-name="Path 5639" d="M103.933,128.778a.634.634,0,0,0-.393-.488,4.581,4.581,0,0,0-2.572-.211,5.959,5.959,0,0,0-2.462,1.309.762.762,0,0,0-.259.7.634.634,0,0,0,.393.488,4.817,4.817,0,0,0,1.67.309,4.011,4.011,0,0,0,.9-.1,5.959,5.959,0,0,0,2.462-1.309.744.744,0,0,0,.262-.7Z" transform="translate(-80.855 -102.834)" fill="#fff"/>
        </g>
      </g>
      <g id="Group_2897" data-name="Group 2897" transform="translate(0 0)">
        <g id="Group_2896" data-name="Group 2896" clip-path="url(#clip-path)">
          <g id="Group_2895" data-name="Group 2895" transform="translate(39.897 28.971)">
            <path id="Path_5641" data-name="Path 5641" d="M173.88,140.83Z" transform="translate(-173.88 -140.83)" fill="#fff"/>
          </g>
        </g>
      </g>
      <g id="Group_2899" data-name="Group 2899" transform="translate(0 0)">
        <g id="Group_2898" data-name="Group 2898" clip-path="url(#clip-path)">
          <path id="Path_5643" data-name="Path 5643" d="M163.82,130.107a.618.618,0,0,0-.607-.167.744.744,0,0,0-.524.538,6.383,6.383,0,0,0-.131,2.845,4.862,4.862,0,0,0,1.256,2.309.614.614,0,0,0,.443.187.655.655,0,0,0,.167-.021.744.744,0,0,0,.524-.538,6.337,6.337,0,0,0,.131-2.845,4.9,4.9,0,0,0-1.259-2.309Z" transform="translate(-125.957 -104.195)" fill="#fff"/>
        </g>
      </g>
      <g id="Group_2901" data-name="Group 2901" transform="translate(0 0)">
        <g id="Group_2900" data-name="Group 2900" clip-path="url(#clip-path)">
          <path id="Path_5645" data-name="Path 5645" d="M148.028,91.837a.646.646,0,0,0-.7.059,6.484,6.484,0,0,0-2.748,4.988.648.648,0,0,0,.324.625.628.628,0,0,0,.3.078.662.662,0,0,0,.4-.137,6.484,6.484,0,0,0,2.748-4.988.648.648,0,0,0-.322-.625Z" transform="translate(-113.399 -77.393)" fill="#fff"/>
        </g>
      </g>
      <g id="Group_2903" data-name="Group 2903" transform="translate(0 0)">
        <g id="Group_2902" data-name="Group 2902" clip-path="url(#clip-path)">
          <path id="Path_5647" data-name="Path 5647" d="M166.858,101.3a4.92,4.92,0,0,0-1.256-2.312.618.618,0,0,0-.607-.166.744.744,0,0,0-.524.538,6.465,6.465,0,0,0-.131,2.849,4.92,4.92,0,0,0,1.256,2.312.613.613,0,0,0,.44.187.657.657,0,0,0,.167-.021.744.744,0,0,0,.524-.538A6.554,6.554,0,0,0,166.858,101.3Z" transform="translate(-127.209 -82.337)" fill="#fff"/>
        </g>
      </g>
    </g>
    <g id="Group_2907" data-name="Group 2907" transform="translate(6.937 4.896)">
      <path id="Path_5649" data-name="Path 5649" d="M89.125,66.125c-1.247-3.509-3.545-1.164-6.7,1.741-2.336,2.146-5.074,4.533-6.336,5.628a.19.19,0,0,1-.307-.2,58.506,58.506,0,0,0,1.837-9.426c.866-7.006-1.55-9.485-4.863-9.577a16.046,16.046,0,0,0-11.509,5.045c-2.414,2.837.765,3.652,4.857,4.937,3.03.949,6.467,2.128,8.048,2.678a.19.19,0,0,1-.018.363,62.494,62.494,0,0,0-9.09,3.121c-6.5,2.753-7.438,6.086-5.863,9A16.012,16.012,0,0,0,69.3,86.881c3.665.672,2.779-2.488,1.845-6.676-.688-3.075-1.381-6.608-1.7-8.265a.19.19,0,0,1,.321-.17,70.322,70.322,0,0,0,7.241,6.272c5.634,4.253,8.991,3.4,10.726.574A16.06,16.06,0,0,0,89.125,66.125Z" transform="translate(-58.512 -54.288)" fill="#ff5c0c"/>
      <g id="Group_2905" data-name="Group 2905" transform="translate(5.17 5.757)">
        <path id="Path_5650" data-name="Path 5650" d="M120.946,103.7a.233.233,0,0,1-.048-.455,18.893,18.893,0,0,0,5.351-2.429,11.768,11.768,0,0,0,3.051-4.351.519.519,0,0,1,.987.137c.194,1.378-.173,3.512-3.366,5.333C124.029,103.587,122.032,103.781,120.946,103.7Z" transform="translate(-107.383 -89.451)" fill="#ff712c"/>
        <path id="Path_5651" data-name="Path 5651" d="M86.886,79.078a.232.232,0,0,1-.369.268,18.86,18.86,0,0,0-4.78-3.419,11.75,11.75,0,0,0-5.292-.467.52.52,0,0,1-.375-.925c1.1-.857,3.128-1.607,6.3.25C85.247,76.465,86.414,78.1,86.886,79.078Z" transform="translate(-75.873 -73.632)" fill="#ff712c"/>
        <path id="Path_5652" data-name="Path 5652" d="M87.548,115.271a.232.232,0,0,1,.417.185,18.849,18.849,0,0,0-.572,5.849,11.707,11.707,0,0,0,2.244,4.815.52.52,0,0,1-.613.789c-1.289-.521-2.956-1.9-2.935-5.584C86.1,118,86.932,116.17,87.548,115.271Z" transform="translate(-83.051 -102.807)" fill="#ff712c"/>
      </g>
      <g id="Group_2906" data-name="Group 2906" transform="translate(4.424 2.853)">
        <path id="Path_5653" data-name="Path 5653" d="M81.188,146.963a9.71,9.71,0,0,0,1.3,1.45,3.21,3.21,0,0,1-1.333-.146,2.562,2.562,0,0,1-.53-.256,2.66,2.66,0,0,1-1.2-2.735v-.015a.39.39,0,0,1,.741-.083A9.184,9.184,0,0,0,81.188,146.963Z" transform="translate(-77.597 -120.815)" fill="#fff"/>
        <path id="Path_5654" data-name="Path 5654" d="M77.649,64.39c.289.211.564.428.83.658a.088.088,0,0,1-.07.155,9.039,9.039,0,0,0-3.048.036,9.724,9.724,0,0,0-1.872.545h0a.09.09,0,0,1-.11-.131,6.22,6.22,0,0,1,.827-1.009,2.659,2.659,0,0,1,3.3-.352Z" transform="translate(-73.365 -63.873)" fill="#fff"/>
        <path id="Path_5655" data-name="Path 5655" d="M152.579,99.768a2.665,2.665,0,0,1-1.64,3.042c-.331.131-.664.247-1,.345a.088.088,0,0,1-.092-.141,9.072,9.072,0,0,0,1.613-2.586,9.585,9.585,0,0,0,.55-1.869h0a.089.089,0,0,1,.17-.024,6.465,6.465,0,0,1,.4,1.233Z" transform="translate(-127.071 -88.18)" fill="#fff"/>
      </g>
    </g>
  </g>
</svg>
