<svg id="Сгруппировать_5802" data-name="Сгруппировать 5802" xmlns="http://www.w3.org/2000/svg" width="513.584" height="636.831" viewBox="0 0 513.584 636.831">
  <path id="Контур_11690" data-name="Контур 11690" d="M-575.171,1970.351l15.341-14.644-17.268-18.094,24.262-25.4-24.262-25.4,24.262-25.41-24.262-25.415,17.268-18.088-15.341-14.644-31.249,32.731,24.256,25.415-24.256,25.41,24.256,25.4-24.256,25.4Z" transform="translate(737.767 -1782.433)" fill="#00b052"/>
  <path id="Контур_11691" data-name="Контур 11691" d="M-376.057,2230.46l-25.415.826-.152,4.481-.176,5.605-.351,11.475H-425.8v14.62l-4.78.152-7.427.234-1.154,35.414-3.719.117-31.695,1.037-.8,24.677-21.38-.68,1.417-44.727,35.443-1.154,1.119-35.443,15.891-.5,12.3-.381,7.257-.234.141-4.6.176-5.605.8-25.24,45.465-1.447Z" transform="translate(496.75 -1950.55)" fill="#00b052"/>
  <path id="Контур_11692" data-name="Контур 11692" d="M-638.671,1830.836a11.835,11.835,0,0,1,0,16.928,12.324,12.324,0,0,1-17.192,0,11.8,11.8,0,0,1,0-16.928A12.324,12.324,0,0,1-638.671,1830.836ZM-726.3,1809.58v192.282l-128.477-99.2v129.895h107.865l-37.716,37.716-5.6,5.6-11.469,11.475h60.712V2123.5H-837.83l-58.68,58.68h54.17v-41.605h101.351v41.605h113.318V1900.991h69.235V1809.58H-726.3Z" transform="translate(913.286 -1785.055)" fill="#00b052"/>
  <path id="Контур_11693" data-name="Контур 11693" d="M-742.612,1813.433l-13-19.183,39.163-26.54,13,19.183Z" transform="translate(975.768 -1767.71)" fill="#1d5632"/>
  <path id="Контур_11694" data-name="Контур 11694" d="M-500.215,2427.867H-601.566v-98.956h101.351Zm-101.351-152.188h101.351v36.152H-601.566Zm-4.774,160.705h118.713V2264.21H-606.34Z" transform="translate(672.511 -1973.388)" fill="#fff"/>
  <path id="Контур_11695" data-name="Контур 11695" d="M-1022.574,2307.877h-101.351v-36.152h101.351Zm0,116.03h-101.351v-98.956h101.351Zm8.552-169.257h-118.455a8.541,8.541,0,0,0-8.517,8.523v169.251a8.552,8.552,0,0,0,8.517,8.558h118.455a8.533,8.533,0,0,0,8.517-8.558V2263.173A8.522,8.522,0,0,0-1014.022,2254.65ZM-934.94,2371.1h-53.484v17.068h53.484a18.05,18.05,0,0,1,18.017,17.813,18.073,18.073,0,0,1-18.017,17.93h-53.484v8.517a24.922,24.922,0,0,1-1.57,8.558h55.054a34.781,34.781,0,0,0,19.523-5.992,35.287,35.287,0,0,0,9.612-9.671,34.959,34.959,0,0,0,4.071-8.64,35.363,35.363,0,0,0,1.295-5.043,43.381,43.381,0,0,0,.592-5.307v-.761A35.207,35.207,0,0,0-934.94,2371.1Zm-105.446,212.127a42.635,42.635,0,0,1-41.781-33.821H-998.6A42.582,42.582,0,0,1-1040.386,2583.223Zm321.146-159.17a120.166,120.166,0,0,0-27.835-3.245,118.684,118.684,0,0,0-58.826,15.569c43.257-101.58-12.061-177.451-12.711-178.307a8.328,8.328,0,0,0-6.812-3.274,5.307,5.307,0,0,0-.738-.146h-50.954a8.533,8.533,0,0,0-8.552,8.523,8.557,8.557,0,0,0,8.552,8.546h47.182c9.94,15.394,45.354,79.913,5.278,164.834a247.7,247.7,0,0,1-19.494,33.885c-.117.205-.146.439-.264.645-1.236,1.74-2.448,3.508-3.6,5.336a118.567,118.567,0,0,0-18.34,55.909h-33.616a.533.533,0,0,0-.123-.176c-.41-.592-.849-1.265-1.353-2.038-.117-.141-.2-.322-.322-.5-.533-.826-1.089-1.71-1.71-2.741-.029-.059-.094-.146-.146-.234-.562-.978-1.154-2.032-1.775-3.186a3.629,3.629,0,0,1-.293-.562c-.65-1.177-1.265-2.442-1.915-3.8-.123-.263-.234-.533-.387-.8-.621-1.388-1.265-2.829-1.915-4.364a6.661,6.661,0,0,0-.234-.679c-.615-1.529-1.207-3.128-1.8-4.774a2.936,2.936,0,0,1-.146-.475c-.592-1.71-1.148-3.538-1.652-5.424a9.812,9.812,0,0,1-.293-1.037c-.5-1.88-.978-3.8-1.388-5.8-.059-.352-.123-.709-.205-1.06q-.624-3.189-1.066-6.549a.5.5,0,0,0-.029-.205c-.264-2.214-.469-4.481-.586-6.842-.029-.357-.059-.708-.059-1.089-.123-2.3-.152-4.692-.088-7.14,0-.439.029-.914.029-1.383q.132-3.717.527-7.609c.029-.3.088-.621.117-.914.3-2.565.679-5.16,1.207-7.814.029-.3.094-.562.123-.855a.091.091,0,0,0,.029-.059,51.658,51.658,0,0,1-18.047,3.743h-.029c-.264,1.886-.5,3.749-.68,5.6-.059.445-.059.89-.117,1.359-.146,1.863-.264,3.684-.357,5.488-.023.732-.023,1.47-.059,2.179-.023,1.564-.023,3.122-.023,4.662.023.674.023,1.353.059,2.027.059,1.921.146,3.843.322,5.729a2.712,2.712,0,0,0,.029.5c.146,2.039.381,4.042.679,5.986.059.621.176,1.207.264,1.8.211,1.359.445,2.718.679,4.012.117.65.264,1.265.381,1.886.269,1.388.592,2.712.92,4.006.082.475.205.949.316,1.388.451,1.74.89,3.391,1.394,5.014.146.416.264.826.41,1.242.381,1.207.761,2.413,1.177,3.561.176.563.381,1.1.592,1.623.351,1.037.738,2.009,1.119,2.981.211.5.416,1,.592,1.476.533,1.265,1.06,2.478,1.593,3.655.117.263.234.533.381.826.5,1.09,1.037,2.15,1.535,3.181.234.475.469.914.709,1.388.351.679.7,1.388,1.089,2.062.117.234.264.5.381.738h-219.766a99.894,99.894,0,0,1,43.849-74.278h-26.868a116.575,116.575,0,0,0-34.436,82.8v8.552h57.76a59.755,59.755,0,0,0,59.184,50.9,59.627,59.627,0,0,0,59.154-50.9h122.989a8.558,8.558,0,0,0,8.552-8.552c0-.059-.029-.117-.029-.176s.029-.117.029-.205a101.641,101.641,0,0,1,13.917-51.341,100.423,100.423,0,0,1,9.882-14.24l72.831,71.683a8.5,8.5,0,0,0,5.986,2.448,8.453,8.453,0,0,0,6.074-2.572,8.524,8.524,0,0,0-.088-12.061l-72.808-71.625a104.764,104.764,0,0,1,14.07-10.145,102.04,102.04,0,0,1,52.752-14.737,102.721,102.721,0,0,1,23.881,2.8,8.5,8.5,0,0,0,10.268-6.344,8.519,8.519,0,0,0-6.314-10.286Zm-27.835,56.583a59.3,59.3,0,0,0-20.524,3.714l14.128,13.894a45.9,45.9,0,0,1,6.4-.533,42.828,42.828,0,0,1,42.753,42.783,42.8,42.8,0,0,1-42.753,42.73,42.781,42.781,0,0,1-42.759-42.73,45.652,45.652,0,0,1,.416-5.717l-14.128-13.917a59.392,59.392,0,0,0-3.356,19.634,59.883,59.883,0,0,0,59.828,59.8,59.883,59.883,0,0,0,59.828-59.8,59.917,59.917,0,0,0-59.828-59.857Zm9.021-166.516c-12.5-3.21-26.154-12.294-26.154-20.343s13.654-17.133,26.154-20.349Zm8.523-58.943c-20.847,0-51.78,16.219-51.78,38.6,0,22.411,30.933,38.624,51.78,38.624a8.553,8.553,0,0,0,8.552-8.546V2263.7A8.533,8.533,0,0,0-729.532,2255.177Zm-293.042,52.7h-101.351v-36.152h101.351Zm0,116.03h-101.351v-98.956h101.351Zm8.552-169.257h-118.455a8.54,8.54,0,0,0-8.517,8.522v169.251a8.552,8.552,0,0,0,8.517,8.558h118.455a8.533,8.533,0,0,0,8.517-8.558V2263.173A8.522,8.522,0,0,0-1014.022,2254.65ZM-934.94,2371.1h-53.484v17.069h53.484a18.05,18.05,0,0,1,18.017,17.813,18.073,18.073,0,0,1-18.017,17.93h-53.484v8.517a24.919,24.919,0,0,1-1.57,8.558h55.054a34.779,34.779,0,0,0,19.523-5.992,35.289,35.289,0,0,0,9.612-9.67,34.959,34.959,0,0,0,4.071-8.64,35.363,35.363,0,0,0,1.295-5.043,43.39,43.39,0,0,0,.592-5.307v-.761A35.208,35.208,0,0,0-934.94,2371.1Zm-105.446,212.127a42.635,42.635,0,0,1-41.781-33.821H-998.6A42.582,42.582,0,0,1-1040.386,2583.224Zm321.146-159.17a120.179,120.179,0,0,0-27.835-3.245,118.689,118.689,0,0,0-58.826,15.569c43.257-101.58-12.061-177.451-12.711-178.306a8.327,8.327,0,0,0-6.812-3.274,5.271,5.271,0,0,0-.738-.146h-50.954a8.533,8.533,0,0,0-8.552,8.522,8.557,8.557,0,0,0,8.552,8.546h47.182c9.94,15.393,45.354,79.913,5.278,164.834a247.687,247.687,0,0,1-19.494,33.885c-.117.205-.146.439-.264.645-1.236,1.74-2.448,3.509-3.6,5.336a118.566,118.566,0,0,0-18.34,55.909h-33.616a.533.533,0,0,0-.123-.176c-.41-.592-.849-1.265-1.353-2.039-.117-.141-.2-.322-.322-.5-.533-.826-1.089-1.71-1.71-2.741-.029-.059-.094-.146-.146-.234-.562-.978-1.154-2.032-1.775-3.186a3.621,3.621,0,0,1-.293-.562c-.65-1.177-1.265-2.442-1.915-3.8-.123-.264-.234-.533-.387-.8-.621-1.388-1.265-2.829-1.915-4.364a6.677,6.677,0,0,0-.234-.679c-.615-1.529-1.207-3.128-1.8-4.774a2.936,2.936,0,0,1-.146-.475c-.592-1.71-1.148-3.538-1.652-5.424a9.808,9.808,0,0,1-.293-1.037c-.5-1.88-.978-3.8-1.388-5.8-.059-.352-.123-.709-.205-1.061q-.624-3.189-1.066-6.548a.5.5,0,0,0-.029-.205c-.264-2.214-.469-4.481-.586-6.842-.029-.357-.059-.709-.059-1.09-.123-2.3-.152-4.692-.088-7.14,0-.439.029-.914.029-1.382q.132-3.717.527-7.609c.029-.3.088-.621.117-.914.3-2.565.679-5.16,1.207-7.814.029-.3.094-.562.123-.855a.091.091,0,0,0,.029-.059,51.664,51.664,0,0,1-18.047,3.743h-.029c-.264,1.886-.5,3.749-.68,5.6-.059.445-.059.89-.117,1.359-.146,1.863-.264,3.685-.357,5.489-.023.732-.023,1.47-.059,2.179-.023,1.564-.023,3.122-.023,4.663.023.673.023,1.353.059,2.027.059,1.921.146,3.843.322,5.729a2.708,2.708,0,0,0,.029.5c.146,2.039.381,4.042.679,5.986.059.621.176,1.207.264,1.8.211,1.359.445,2.718.679,4.012.117.65.264,1.265.381,1.886.269,1.388.592,2.712.92,4.007.082.474.205.949.316,1.388.451,1.74.89,3.391,1.394,5.014.146.416.264.826.41,1.242.381,1.207.761,2.413,1.177,3.561.176.562.381,1.1.592,1.623.351,1.037.738,2.009,1.119,2.981.211.5.416,1,.592,1.476.533,1.265,1.06,2.478,1.593,3.655.117.264.234.533.381.826.5,1.09,1.037,2.15,1.535,3.18.234.475.469.914.709,1.388.351.679.7,1.388,1.089,2.062.117.234.264.5.381.738h-219.766a99.894,99.894,0,0,1,43.849-74.278h-26.868a116.574,116.574,0,0,0-34.436,82.8v8.552h57.76a59.755,59.755,0,0,0,59.184,50.9,59.627,59.627,0,0,0,59.154-50.9h122.989a8.558,8.558,0,0,0,8.552-8.552c0-.059-.029-.117-.029-.176s.029-.117.029-.205a101.64,101.64,0,0,1,13.917-51.34,100.426,100.426,0,0,1,9.882-14.24l72.831,71.684a8.5,8.5,0,0,0,5.986,2.448,8.451,8.451,0,0,0,6.074-2.571,8.524,8.524,0,0,0-.088-12.061l-72.808-71.625a104.785,104.785,0,0,1,14.07-10.145,102.04,102.04,0,0,1,52.752-14.737,102.734,102.734,0,0,1,23.881,2.8,8.5,8.5,0,0,0,10.268-6.344,8.52,8.52,0,0,0-6.314-10.286Zm-27.835,56.583a59.3,59.3,0,0,0-20.524,3.714l14.128,13.894a45.9,45.9,0,0,1,6.4-.533,42.828,42.828,0,0,1,42.753,42.783,42.8,42.8,0,0,1-42.753,42.73,42.781,42.781,0,0,1-42.759-42.73,45.655,45.655,0,0,1,.416-5.717l-14.128-13.917a59.394,59.394,0,0,0-3.356,19.634,59.883,59.883,0,0,0,59.828,59.8,59.883,59.883,0,0,0,59.828-59.8,59.917,59.917,0,0,0-59.828-59.857Zm9.021-166.515c-12.5-3.21-26.154-12.295-26.154-20.343s13.654-17.133,26.154-20.349Zm8.523-58.944c-20.847,0-51.78,16.219-51.78,38.6,0,22.41,30.933,38.624,51.78,38.624a8.553,8.553,0,0,0,8.552-8.546V2263.7a8.533,8.533,0,0,0-8.552-8.523Z" transform="translate(1194.87 -1969.428)" fill="#1d5632"/>
  <path id="Контур_11696" data-name="Контур 11696" d="M-1022.574,2307.877h-101.351v-36.152h101.351Zm0,116.03h-101.351v-98.956h101.351Zm8.552-169.257h-118.455a8.541,8.541,0,0,0-8.517,8.523v169.251a8.552,8.552,0,0,0,8.517,8.558h118.455a8.533,8.533,0,0,0,8.517-8.558V2263.173A8.522,8.522,0,0,0-1014.022,2254.65ZM-934.94,2371.1h-53.484v17.068h53.484a18.05,18.05,0,0,1,18.017,17.813,18.073,18.073,0,0,1-18.017,17.93h-53.484v8.517a24.922,24.922,0,0,1-1.57,8.558h55.054a34.781,34.781,0,0,0,19.523-5.992,35.287,35.287,0,0,0,9.612-9.671,34.959,34.959,0,0,0,4.071-8.64,35.363,35.363,0,0,0,1.295-5.043,43.381,43.381,0,0,0,.592-5.307v-.761A35.207,35.207,0,0,0-934.94,2371.1Zm-105.446,212.127a42.635,42.635,0,0,1-41.781-33.821H-998.6A42.582,42.582,0,0,1-1040.386,2583.223Zm321.146-159.17a120.166,120.166,0,0,0-27.835-3.245,118.684,118.684,0,0,0-58.826,15.569c43.257-101.58-12.061-177.451-12.711-178.307a8.328,8.328,0,0,0-6.812-3.274,5.307,5.307,0,0,0-.738-.146h-50.954a8.533,8.533,0,0,0-8.552,8.523,8.557,8.557,0,0,0,8.552,8.546h47.182c9.94,15.394,45.354,79.913,5.278,164.834a247.7,247.7,0,0,1-19.494,33.885c-.117.205-.146.439-.264.645-1.236,1.74-2.448,3.508-3.6,5.336a118.567,118.567,0,0,0-18.34,55.909h-33.616a.533.533,0,0,0-.123-.176c-.41-.592-.849-1.265-1.353-2.038-.117-.141-.2-.322-.322-.5-.533-.826-1.089-1.71-1.71-2.741-.029-.059-.094-.146-.146-.234-.562-.978-1.154-2.032-1.775-3.186a3.629,3.629,0,0,1-.293-.562c-.65-1.177-1.265-2.442-1.915-3.8-.123-.263-.234-.533-.387-.8-.621-1.388-1.265-2.829-1.915-4.364a6.661,6.661,0,0,0-.234-.679c-.615-1.529-1.207-3.128-1.8-4.774a2.936,2.936,0,0,1-.146-.475c-.592-1.71-1.148-3.538-1.652-5.424a9.812,9.812,0,0,1-.293-1.037c-.5-1.88-.978-3.8-1.388-5.8-.059-.352-.123-.709-.205-1.06q-.624-3.189-1.066-6.549a.5.5,0,0,0-.029-.205c-.264-2.214-.469-4.481-.586-6.842-.029-.357-.059-.708-.059-1.089-.123-2.3-.152-4.692-.088-7.14,0-.439.029-.914.029-1.383q.132-3.717.527-7.609c.029-.3.088-.621.117-.914.3-2.565.679-5.16,1.207-7.814.029-.3.094-.562.123-.855a.091.091,0,0,0,.029-.059,51.658,51.658,0,0,1-18.047,3.743h-.029c-.264,1.886-.5,3.749-.68,5.6-.059.445-.059.89-.117,1.359-.146,1.863-.264,3.684-.357,5.488-.023.732-.023,1.47-.059,2.179-.023,1.564-.023,3.122-.023,4.662.023.674.023,1.353.059,2.027.059,1.921.146,3.843.322,5.729a2.712,2.712,0,0,0,.029.5c.146,2.039.381,4.042.679,5.986.059.621.176,1.207.264,1.8.211,1.359.445,2.718.679,4.012.117.65.264,1.265.381,1.886.269,1.388.592,2.712.92,4.006.082.475.205.949.316,1.388.451,1.74.89,3.391,1.394,5.014.146.416.264.826.41,1.242.381,1.207.761,2.413,1.177,3.561.176.563.381,1.1.592,1.623.351,1.037.738,2.009,1.119,2.981.211.5.416,1,.592,1.476.533,1.265,1.06,2.478,1.593,3.655.117.263.234.533.381.826.5,1.09,1.037,2.15,1.535,3.181.234.475.469.914.709,1.388.351.679.7,1.388,1.089,2.062.117.234.264.5.381.738h-219.766a99.894,99.894,0,0,1,43.849-74.278h-26.868a116.575,116.575,0,0,0-34.436,82.8v8.552h57.76a59.755,59.755,0,0,0,59.184,50.9,59.627,59.627,0,0,0,59.154-50.9h122.989a8.558,8.558,0,0,0,8.552-8.552c0-.059-.029-.117-.029-.176s.029-.117.029-.205a101.641,101.641,0,0,1,13.917-51.341,100.423,100.423,0,0,1,9.882-14.24l72.831,71.683a8.5,8.5,0,0,0,5.986,2.448,8.453,8.453,0,0,0,6.074-2.572,8.524,8.524,0,0,0-.088-12.061l-72.808-71.625a104.764,104.764,0,0,1,14.07-10.145,102.04,102.04,0,0,1,52.752-14.737,102.721,102.721,0,0,1,23.881,2.8,8.5,8.5,0,0,0,10.268-6.344,8.519,8.519,0,0,0-6.314-10.286Zm-27.835,56.583a59.3,59.3,0,0,0-20.524,3.714l14.128,13.894a45.9,45.9,0,0,1,6.4-.533,42.828,42.828,0,0,1,42.753,42.783,42.8,42.8,0,0,1-42.753,42.73,42.781,42.781,0,0,1-42.759-42.73,45.652,45.652,0,0,1,.416-5.717l-14.128-13.917a59.392,59.392,0,0,0-3.356,19.634,59.883,59.883,0,0,0,59.828,59.8,59.883,59.883,0,0,0,59.828-59.8,59.917,59.917,0,0,0-59.828-59.857Zm9.021-166.516c-12.5-3.21-26.154-12.294-26.154-20.343s13.654-17.133,26.154-20.349Zm8.523-58.943c-20.847,0-51.78,16.219-51.78,38.6,0,22.411,30.933,38.624,51.78,38.624a8.553,8.553,0,0,0,8.552-8.546V2263.7A8.533,8.533,0,0,0-729.532,2255.177Zm-293.042,52.7h-101.351v-36.152h101.351Zm0,116.03h-101.351v-98.956h101.351Zm8.552-169.257h-118.455a8.54,8.54,0,0,0-8.517,8.522v169.251a8.552,8.552,0,0,0,8.517,8.558h118.455a8.533,8.533,0,0,0,8.517-8.558V2263.173A8.522,8.522,0,0,0-1014.022,2254.65ZM-934.94,2371.1h-53.484v17.069h53.484a18.05,18.05,0,0,1,18.017,17.813,18.073,18.073,0,0,1-18.017,17.93h-53.484v8.517a24.919,24.919,0,0,1-1.57,8.558h55.054a34.779,34.779,0,0,0,19.523-5.992,35.289,35.289,0,0,0,9.612-9.67,34.959,34.959,0,0,0,4.071-8.64,35.363,35.363,0,0,0,1.295-5.043,43.39,43.39,0,0,0,.592-5.307v-.761A35.208,35.208,0,0,0-934.94,2371.1Zm-105.446,212.127a42.635,42.635,0,0,1-41.781-33.821H-998.6A42.582,42.582,0,0,1-1040.386,2583.224Zm321.146-159.17a120.179,120.179,0,0,0-27.835-3.245,118.689,118.689,0,0,0-58.826,15.569c43.257-101.58-12.061-177.451-12.711-178.306a8.327,8.327,0,0,0-6.812-3.274,5.271,5.271,0,0,0-.738-.146h-50.954a8.533,8.533,0,0,0-8.552,8.522,8.557,8.557,0,0,0,8.552,8.546h47.182c9.94,15.393,45.354,79.913,5.278,164.834a247.687,247.687,0,0,1-19.494,33.885c-.117.205-.146.439-.264.645-1.236,1.74-2.448,3.509-3.6,5.336a118.566,118.566,0,0,0-18.34,55.909h-33.616a.533.533,0,0,0-.123-.176c-.41-.592-.849-1.265-1.353-2.039-.117-.141-.2-.322-.322-.5-.533-.826-1.089-1.71-1.71-2.741-.029-.059-.094-.146-.146-.234-.562-.978-1.154-2.032-1.775-3.186a3.621,3.621,0,0,1-.293-.562c-.65-1.177-1.265-2.442-1.915-3.8-.123-.264-.234-.533-.387-.8-.621-1.388-1.265-2.829-1.915-4.364a6.677,6.677,0,0,0-.234-.679c-.615-1.529-1.207-3.128-1.8-4.774a2.936,2.936,0,0,1-.146-.475c-.592-1.71-1.148-3.538-1.652-5.424a9.808,9.808,0,0,1-.293-1.037c-.5-1.88-.978-3.8-1.388-5.8-.059-.352-.123-.709-.205-1.061q-.624-3.189-1.066-6.548a.5.5,0,0,0-.029-.205c-.264-2.214-.469-4.481-.586-6.842-.029-.357-.059-.709-.059-1.09-.123-2.3-.152-4.692-.088-7.14,0-.439.029-.914.029-1.382q.132-3.717.527-7.609c.029-.3.088-.621.117-.914.3-2.565.679-5.16,1.207-7.814.029-.3.094-.562.123-.855a.091.091,0,0,0,.029-.059,51.664,51.664,0,0,1-18.047,3.743h-.029c-.264,1.886-.5,3.749-.68,5.6-.059.445-.059.89-.117,1.359-.146,1.863-.264,3.685-.357,5.489-.023.732-.023,1.47-.059,2.179-.023,1.564-.023,3.122-.023,4.663.023.673.023,1.353.059,2.027.059,1.921.146,3.843.322,5.729a2.708,2.708,0,0,0,.029.5c.146,2.039.381,4.042.679,5.986.059.621.176,1.207.264,1.8.211,1.359.445,2.718.679,4.012.117.65.264,1.265.381,1.886.269,1.388.592,2.712.92,4.007.082.474.205.949.316,1.388.451,1.74.89,3.391,1.394,5.014.146.416.264.826.41,1.242.381,1.207.761,2.413,1.177,3.561.176.562.381,1.1.592,1.623.351,1.037.738,2.009,1.119,2.981.211.5.416,1,.592,1.476.533,1.265,1.06,2.478,1.593,3.655.117.264.234.533.381.826.5,1.09,1.037,2.15,1.535,3.18.234.475.469.914.709,1.388.351.679.7,1.388,1.089,2.062.117.234.264.5.381.738h-219.766a99.894,99.894,0,0,1,43.849-74.278h-26.868a116.574,116.574,0,0,0-34.436,82.8v8.552h57.76a59.755,59.755,0,0,0,59.184,50.9,59.627,59.627,0,0,0,59.154-50.9h122.989a8.558,8.558,0,0,0,8.552-8.552c0-.059-.029-.117-.029-.176s.029-.117.029-.205a101.64,101.64,0,0,1,13.917-51.34,100.426,100.426,0,0,1,9.882-14.24l72.831,71.684a8.5,8.5,0,0,0,5.986,2.448,8.451,8.451,0,0,0,6.074-2.571,8.524,8.524,0,0,0-.088-12.061l-72.808-71.625a104.785,104.785,0,0,1,14.07-10.145,102.04,102.04,0,0,1,52.752-14.737,102.734,102.734,0,0,1,23.881,2.8,8.5,8.5,0,0,0,10.268-6.344,8.52,8.52,0,0,0-6.314-10.286Zm-27.835,56.583a59.3,59.3,0,0,0-20.524,3.714l14.128,13.894a45.9,45.9,0,0,1,6.4-.533,42.828,42.828,0,0,1,42.753,42.783,42.8,42.8,0,0,1-42.753,42.73,42.781,42.781,0,0,1-42.759-42.73,45.655,45.655,0,0,1,.416-5.717l-14.128-13.917a59.394,59.394,0,0,0-3.356,19.634,59.883,59.883,0,0,0,59.828,59.8,59.883,59.883,0,0,0,59.828-59.8,59.917,59.917,0,0,0-59.828-59.857Zm9.021-166.515c-12.5-3.21-26.154-12.295-26.154-20.343s13.654-17.133,26.154-20.349Zm8.523-58.944c-20.847,0-51.78,16.219-51.78,38.6,0,22.41,30.933,38.624,51.78,38.624a8.553,8.553,0,0,0,8.552-8.546V2263.7a8.533,8.533,0,0,0-8.552-8.523Z" transform="translate(1194.87 -1969.428)" fill="none" stroke="#144d29" stroke-miterlimit="10" stroke-width="11.92"/>
  <path id="Контур_11697" data-name="Контур 11697" d="M-802.038,2229.22l-90.562-38.115,8.382-19.915,90.562,38.114Z" transform="translate(1146.216 -1934.854)" fill="#00b052"/>
  <path id="Контур_11698" data-name="Контур 11698" d="M-939.68,2401.369l29.832-30.6,55.165,53.789,30.98-31.771,23.564,22.973-60.806,62.364-16.571-16.155v.006Z" transform="translate(1180.275 -2017.531)" fill="#00b052"/>
  <path id="Контур_11699" data-name="Контур 11699" d="M-738.034,1864.067H-767.96v-8.833c0-10.995,6.49-16.764,15.141-16.764,9.911,0,14.784,6.847,14.784,20.366v5.231Z" transform="translate(1017.587 -1797.023)" fill="#fff"/>
</svg>
