<svg id="_1890182871424" xmlns="http://www.w3.org/2000/svg" width="183.789" height="187.68" viewBox="0 0 183.789 187.68">
  <path id="Контур_11470" data-name="Контур 11470" d="M-45638.6,17311.449l6.172,6.193-2.625,2.617-6.574-6.6,2.625-2.617Zm-10.2,16.559-.02-43.973.035-22.889.2-.389a7.522,7.522,0,0,1,3.414-3.486,7.938,7.938,0,0,1,4.367-.686l0-.014.582.086.512.105c.086.018.172.035.3.064a4.846,4.846,0,0,0,2.266.172,2.847,2.847,0,0,0,1.125-.719,6.22,6.22,0,0,1,4.594-1.8,6.164,6.164,0,0,1,3.859,1.262,11,11,0,0,1,2.137,2.32,6.807,6.807,0,0,0,.945,1.127.371.371,0,0,0,.332.094c.133-.025.324-.07.535-.119l.063-.016c1.973-.463,6.07-1.428,8.887,3.092l.281.449-.035,22.021-.25,44.111q-17.062-.129-34.125-.248Zm3.7-3.047,26.762.059.2-38.465-26.98-.045Zm20.8-4.326-17.246-17.3,2.625-2.617,17.648,17.707-2.625,2.617Zm2.66-11.979-2.223,2.215-17.648-17.709,2.625-2.615,17.648,17.707-.406.4Zm-17.105-31.453a1.561,1.561,0,0,1-.863-.842,1.547,1.547,0,0,1-.012-1.2,1.554,1.554,0,0,1,.84-.861,1.574,1.574,0,0,1,1.2-.014,1.563,1.563,0,0,1,.859.844,1.56,1.56,0,0,1,.016,1.2,1.573,1.573,0,0,1-.844.861A1.563,1.563,0,0,1-45638.734,17277.2Zm-4.828,1.76a1.58,1.58,0,0,1,.844-.861,1.555,1.555,0,0,1,1.2-.012l.113.043.012.012a1.555,1.555,0,0,1,.738.787,1.56,1.56,0,0,1,.012,1.2l-.043.111-.012.01a1.571,1.571,0,0,1-.785.74,1.573,1.573,0,0,1-1.156.031l-.047-.018a1.566,1.566,0,0,1-.859-.842,1.554,1.554,0,0,1-.031-1.156Zm9.773-3.648a1.561,1.561,0,0,1,.84-.861,1.574,1.574,0,0,1,1.2-.012,1.586,1.586,0,0,1,.863.842,1.577,1.577,0,0,1,.012,1.2,1.573,1.573,0,0,1-.844.861,1.563,1.563,0,0,1-1.2.014,1.561,1.561,0,0,1-.863-.842A1.565,1.565,0,0,1-45633.789,17275.314Zm6.406,16.369,6.172,6.193-2.625,2.617-6.574-6.6,2.625-2.617Zm-17.691-29.615-.016,9.711a14.218,14.218,0,0,1,3.879-2.713,13.989,13.989,0,0,1,6.016-1.354,12.773,12.773,0,0,1,1.289.064c.176.016.352.037.523.059a9.184,9.184,0,0,0-2.133-4.461,10.188,10.188,0,0,0-5.031-3,4.833,4.833,0,0,0-2.777.125A3.613,3.613,0,0,0-45645.074,17262.068Zm26.984,1.717a2.993,2.993,0,0,0-1.941-1.3,7.056,7.056,0,0,0-2.672.27l-.02,0c-.266.061-.5.117-.75.162-2.566.479-3.863-1.221-4.9-2.609l-.031-.043c-.832-1.119-1.551-2.088-3.023-2.09a2.754,2.754,0,0,0-2.145.889l-.008.006c-.2.172-.395.336-.586.482a12.415,12.415,0,0,1,2.523,2.77,13,13,0,0,1,1.977,5.221c.043.283.082.568.109.852l.043.535a14.223,14.223,0,0,1,1.906,1.027,14.373,14.373,0,0,1,1.574,1.18,13.944,13.944,0,0,1,3.652-2.566,13.769,13.769,0,0,1,4.285-1.281Zm-.031,19.066.02-11.809a10.265,10.265,0,0,0-5.852,3.273,10.205,10.205,0,0,0-2.605,6.807,10.06,10.06,0,0,0,.059,1.08c.02.211.051.422.086.635Zm-12.039-.02c-.023-.178-.043-.354-.055-.527-.035-.379-.051-.773-.051-1.186a13.888,13.888,0,0,1,.563-3.891,13.9,13.9,0,0,1,1.379-3.176,10.311,10.311,0,0,0-2.988-1.865,10.315,10.315,0,0,0-3.887-.77,10.336,10.336,0,0,0-6.18,2.049,10.32,10.32,0,0,0-3.723,5.248l0,4.092Zm7.945-7.92a1.57,1.57,0,0,1,.84-.863,1.583,1.583,0,0,1,1.2-.014,1.583,1.583,0,0,1,.863.844,1.56,1.56,0,0,1,.012,1.2,1.561,1.561,0,0,1-.844.861,1.563,1.563,0,0,1-1.2.014,1.574,1.574,0,0,1-.863-.842A1.577,1.577,0,0,1-45622.215,17274.912Zm-2.715,4.391v0a1.57,1.57,0,0,1,.844-.859,1.554,1.554,0,0,1,1.2-.016l.105.035.023.023a1.574,1.574,0,0,1,.738.785,1.59,1.59,0,0,1,.016,1.2l-.047.115-.012.01a1.559,1.559,0,0,1-.785.738,1.57,1.57,0,0,1-1.082.057h-.016l-.105-.043a1.56,1.56,0,0,1-.859-.842A1.554,1.554,0,0,1-45624.93,17279.3Z" transform="translate(45664.527 -17201.936)" fill="#04472a"/>
  <path id="Контур_11471" data-name="Контур 11471" d="M-46195.27,16275.765a26.745,26.745,0,0,1-4.691,4.454,16.516,16.516,0,0,1-4.945,2.538,13.738,13.738,0,0,1-3.391.561c-9.539.467-17.094-4.814-23.617-13.765,2.043.973,6.3,1.242,8.047,1.087a23.677,23.677,0,0,0,4.672-1.316,13.937,13.937,0,0,1,4.5-.962,19.47,19.47,0,0,1,6.27,1.2c1.055.361,3.2,1.26,3.266,1.187-4.531-3.682-9.02-5.211-14.98-2.555.332-.389,5.047-4.316,9.973-4.738a16.156,16.156,0,0,1,4.344.223,14.3,14.3,0,0,1,3.289,1.068,15.319,15.319,0,0,1,3.441,2.2c.875.725,1.7,1.513,2.6,2.2a8.444,8.444,0,0,0,3.7,1.671c.238.041.48.081.727.125a19.707,19.707,0,0,1-6.34,3.335,20.564,20.564,0,0,1-12.121.492c.027.031,1.066.56,1.566.789a18.805,18.805,0,0,0,4.938,1.58,12.219,12.219,0,0,0,4.09-.174,40.459,40.459,0,0,0,5.176-1.794C-46194.961,16275.4-46195.117,16275.582-46195.27,16275.765Z" transform="translate(46231.914 -16237.564)" fill="#e31e24"/>
  <path id="Контур_11472" data-name="Контур 11472" d="M-44432,15442.7l4.613,1.724a6.633,6.633,0,0,0,8.309-3.952l3.4-8.186-18.648-6.964-2.273,6.843A8.285,8.285,0,0,0-44432,15442.7Z" transform="translate(44485.441 -15422.072)" fill="#04472a"/>
  <path id="Контур_11473" data-name="Контур 11473" d="M-44762.621,15810.454v27.6h0v30h-17.281v12.813h33.918v-9.01h0v-15.778H-44723l5.738,10.824-15.27,8.091,6,11.324,29.973-15.883-4.219-7.961v0l-3.387-6.394h46.227l-57.777-57.769h41.438v-50.575l-49.949,38.558v-75.307h-65.359v25.154a21.018,21.018,0,0,0,12.48-4.091l3.449,4.411a26.562,26.562,0,0,1-15.93,5.291v4.83h26.965v38.709l-20.992-5.816-.023,8.728,21.016,5.822v7.9l-32.355,5.315,1.363,8.3C-44784,15813.966-44776.4,15812.719-44762.621,15810.454Zm104.387,38.408-.3-9.617-13.8-.443-.437-13.8-13.8-.437-.437-13.8-9.891-.313.266-8.328,17.7.563.441,13.8,13.8.438.438,13.8,13.8.443.551,17.429Zm-56.492-74.24-5.973-5.7,6.723-7.045-9.445-9.894,9.445-9.894-9.445-9.894,9.445-9.9-6.723-7.045,5.973-5.7,12.172,12.748-9.449,9.9,9.449,9.894-9.449,9.894,9.449,9.894Z" transform="translate(44833.699 -15698.644)" fill="#00b052"/>
  <path id="Контур_11474" data-name="Контур 11474" d="M-43535.867,15783.11l4.613,1.724a8.288,8.288,0,0,0,10.383-4.94l2.77-6.659-18.648-6.965-2.8,8.412A6.633,6.633,0,0,0-43535.867,15783.11Z" transform="translate(43612.469 -15753.833)" fill="#04472a"/>
  <path id="Контур_11475" data-name="Контур 11475" d="M-44363.129,15325.861l-46.473-17.354,1.383-3.706,46.473,17.355Z" transform="translate(44458.711 -15304.801)" fill="#04472a"/>
</svg>
