<svg id="Сгруппировать_5620" data-name="Сгруппировать 5620" xmlns="http://www.w3.org/2000/svg" width="144.758" height="180.594" viewBox="0 0 144.758 180.594">
  <g id="Сгруппировать_5619" data-name="Сгруппировать 5619" transform="translate(5.074 10.706)">
    <path id="Контур_11531" data-name="Контур 11531" d="M-24898.094,6677.573a4.794,4.794,0,0,1-6.7,0,4.6,4.6,0,0,1,0-6.581,4.8,4.8,0,0,1,6.7,0A4.6,4.6,0,0,1-24898.094,6677.573Zm-37.937,20.734h65.363v-35.6h-65.363Zm0-35.6v0Z" transform="translate(24936.031 -6662.71)" fill="#00b052"/>
  </g>
  <path id="Контур_11532" data-name="Контур 11532" d="M-23888.588,6750.075l-8.51-8.512v-78.814h-38.4v145.1h104.691Z" transform="translate(23967.535 -6652.042)" fill="#00b052"/>
  <path id="Контур_11533" data-name="Контур 11533" d="M-22472.1,6674.275l-5.975-5.7,6.721-7.044-9.445-9.9,9.445-9.895-9.445-9.893,9.449-9.9-6.725-7.045,5.975-5.7,12.168,12.749-9.445,9.9,9.445,9.893-9.445,9.895,9.445,9.9Z" transform="translate(22552.041 -6599.936)" fill="#00b052"/>
  <path id="Контур_11534" data-name="Контур 11534" d="M-24024.6,6281.014l-3-10.54,17.723-5.044,3,10.539Z" transform="translate(24057.156 -6265.43)" fill="#1d5632"/>
  <path id="Контур_11535" data-name="Контур 11535" d="M-24542.98,11377.8h-16.641v30.008h-17.279v12.814h33.918v-9.01h0Z" transform="translate(24591.652 -11240.025)" fill="#00b052"/>
  <path id="Контур_11536" data-name="Контур 11536" d="M-23007.477,11377.8h-16.643v30.008h-17.281v12.814h33.92v-9.01h0Z" transform="translate(23097.533 -11240.025)" fill="#00b052"/>
  <path id="Контур_11537" data-name="Контур 11537" d="M-25022.4,8733.507l31.994,20.989,4.617-7.038-31.994-20.988Z" transform="translate(25025.145 -8660.147)" fill="#00b052"/>
  <path id="Контур_11538" data-name="Контур 11538" d="M-23088.3,8076.988h65.521V8026.41Z" transform="translate(23143.17 -7978.954)" fill="#00b052"/>
  <path id="Контур_11539" data-name="Контур 11539" d="M-21458.227,10091.337l-.3-9.618-13.8-.441-.439-13.8-13.8-.437-.437-13.8-9.891-.315.264-8.327,17.707.563.438,13.8,13.8.438.439,13.8,13.8.442.557,17.43Z" transform="translate(21594.654 -9942.755)" fill="#00b052"/>
  <path id="Контур_11540" data-name="Контур 11540" d="M-25124.062,9921.105l38.248-1.083-.236-8.413-38.25,1.085Z" transform="translate(25124.301 -9813.349)" fill="#00b052"/>
  <path id="Контур_11541" data-name="Контур 11541" d="M-23821.27,6939.743h-10.148v-3c0-3.729,2.2-5.687,5.133-5.687,3.363,0,5.016,2.324,5.016,6.909Z" transform="translate(23866.26 -6913.123)" fill="#fff"/>
</svg>
