<svg id="_1890182873632" xmlns="http://www.w3.org/2000/svg" width="285.593" height="65.91" viewBox="0 0 285.593 65.91">
  <path id="Контур_11455" data-name="Контур 11455" d="M-12032.079,358.991a17.51,17.51,0,0,1-3.393,2.511,10.807,10.807,0,0,1-3.4,1.251,9.045,9.045,0,0,1-2.241.092c-6.216-.457-10.692-4.479-14.2-10.8a13.408,13.408,0,0,0,5.127,1.346,15.475,15.475,0,0,0,3.131-.481,9.138,9.138,0,0,1,2.988-.266,12.7,12.7,0,0,1,3.965,1.278c.654.317,1.972,1.07,2.021,1.028-2.643-2.746-5.43-4.094-9.5-2.848a12.828,12.828,0,0,1,6.836-2.275,10.586,10.586,0,0,1,2.8.489,9.407,9.407,0,0,1,2.045.955,10.025,10.025,0,0,1,2.057,1.7c.506.54.977,1.115,1.507,1.635a5.5,5.5,0,0,0,2.262,1.374c.152.045.3.092.461.14a12.86,12.86,0,0,1-4.372,1.654,13.415,13.415,0,0,1-7.891-.645c.016.021.645.447.95.636a12.335,12.335,0,0,0,3.072,1.416,8.025,8.025,0,0,0,2.665.214,26.52,26.52,0,0,0,3.5-.751Z" transform="translate(12055.32 -326.731)" fill="red"/>
  <path id="Контур_11456" data-name="Контур 11456" d="M-8450.985,286.15v19.085h-7.3V280.67h17.556v5.48Z" transform="translate(8555.227 -259.438)" fill="#00ae42"/>
  <path id="Контур_11457" data-name="Контур 11457" d="M-7696.72,286.038v6.187h1.08c2.8,0,4.212-1.006,4.212-3.053,0-1.792-1.191-3.134-3.466-3.134Zm-7.27,19.236V280.71h10.1q4.7,0,7.156,2.459a7.832,7.832,0,0,1,2.5,5.891,7.933,7.933,0,0,1-2.5,5.964,9.193,9.193,0,0,1-6.709,2.423h-3.243v7.828Z" transform="translate(7821.254 -259.477)" fill="#00ae42"/>
  <path id="Контур_11458" data-name="Контур 11458" d="M-6844.339,282.3h-7.269V269.851h-.15l-14.614,13.008h-.817V257.736h7.306V270.11h.149l14.538-13.01h.858Z" transform="translate(7007.004 -236.503)" fill="#00ae42"/>
  <path id="Контур_11459" data-name="Контур 11459" d="M-5907.307,285.852h-4.4l-.672,7.79a32.406,32.406,0,0,1-1.229,7.009,8.093,8.093,0,0,1-6.076,5.182,12.64,12.64,0,0,1-1.753.336l-2.683-4.922a6.239,6.239,0,0,0,3.5-1.641,6.393,6.393,0,0,0,1.155-3.651c.56-7.083,1.007-12.19,1.267-15.284h18.229v24.566h-7.3c0-2.125,0-5.368-.037-9.654Z" transform="translate(6089.35 -259.438)" fill="#00ae42"/>
  <path id="Контур_11460" data-name="Контур 11460" d="M-4852.164,293.382v5.367h3.392a2.628,2.628,0,0,0,2.909-2.682c0-1.642-1.3-2.685-3.094-2.685Zm-7.307,10.549v-24.6h7.307v9.17h3.99c3.317,0,5.889.97,7.193,2.161a6.382,6.382,0,0,1,1.528,2.049,7.655,7.655,0,0,1,.895,3.8,6.85,6.85,0,0,1-2.346,5.406,8.653,8.653,0,0,1-5.852,2.014Z" transform="translate(5053.391 -258.134)" fill="#00ae42"/>
  <path id="Контур_11461" data-name="Контур 11461" d="M-3573.359,261.5c0,1.378.708,2.237,1.9,2.237a2.024,2.024,0,0,0,2.014-2.237,1.93,1.93,0,0,0-2.014-2.052A1.9,1.9,0,0,0-3573.359,261.5Zm8.239,11.145h-12.488v-3.727h12.488Zm-1.492-15.246a5.322,5.322,0,0,1,1.826,4.175c0,3.428-2.645,5.816-6.671,5.816-4.175,0-6.747-2.388-6.747-5.816a5.357,5.357,0,0,1,1.864-4.175,7,7,0,0,1,4.883-1.679A6.776,6.776,0,0,1-3566.613,257.4Zm-26.95,23.56h-7.307v-25.2h.857l12.823,12.152h.15V256.392h7.3v25.125h-.82l-12.9-12.637h-.112Z" transform="translate(3828.709 -235.16)" fill="#00ae42"/>
  <path id="Контур_11462" data-name="Контур 11462" d="M-2096.471,290.435v-4.773h-5.09v-20.2h-.784l-11.815,5.255v5.891l5.739-2.348v11.4h-5.739v4.773Z" transform="translate(2382.064 -244.638)" fill="#00ae42"/>
  <path id="Контур_11463" data-name="Контур 11463" d="M-11530.03-479.925h-4v-1.18a1.986,1.986,0,0,1,2.021-2.241c1.325,0,1.976.915,1.976,2.722Zm.862-27.265a33.006,33.006,0,0,0-30.751,21.109,12.684,12.684,0,0,1,2.862.554,11.319,11.319,0,0,1,2.488,1.158c.073.044.144.089.213.135a27.144,27.144,0,0,1,25.188-17.1,27.129,27.129,0,0,1,27.1,27.1,27.08,27.08,0,0,1-11.334,22.029l-2.465-2.628,3.594-3.831-3.594-3.834,2.811-3,.783-.834h0l-3.593-3.829,3.593-3.829-3.593-3.829,2.766-2.947.827-.883h0l-4.61-4.915-2.312,2.168h0l2.576,2.747-.884.941-2.709,2.889h0l2.229,2.379,1.363,1.451-3.593,3.829h0l1.362,1.452,2.23,2.377-2.9,3.095-.689.735h0l3.593,3.833-3.593,3.831,3.595,3.835-1.354,1.441a26.052,26.052,0,0,1-2.545,1.006v-37.47h-24.868v13.778h10.257V-447.8a27.178,27.178,0,0,1-20.781-22.045,11.932,11.932,0,0,1-2.324.665,10.334,10.334,0,0,1-1.807.152c-.3,0-.615-.01-.936-.035-.251-.018-.5-.044-.752-.073a33.009,33.009,0,0,0,32.561,27.854,32.994,32.994,0,0,0,32.954-32.956A32.992,32.992,0,0,0-11529.168-507.19Z" transform="translate(11575.03 507.19)" fill="#00ae42"/>
</svg>
