<svg id="_1890182864704" xmlns="http://www.w3.org/2000/svg" width="184.383" height="187.68" viewBox="0 0 184.383 187.68">
  <path id="Контур_11476" data-name="Контур 11476" d="M-24600.629,18338.217l-22.437-6.217-.234,8.67,22.672,6.281Z" transform="translate(24676.428 -18250.42)" fill="#00b052"/>
  <path id="Контур_11477" data-name="Контур 11477" d="M-26594.594,17357.125l8.74-8.754a.22.22,0,0,1,.16-.1c3.6-.232,7.906,0,11.572,0,.082-.148.17-.293.256-.43.113-.18.219-.338.318-.484a3.438,3.438,0,0,0,.8-2.27,3.217,3.217,0,0,0-.213-1.264,5.577,5.577,0,0,0-.586-1.006,8.882,8.882,0,0,1-.969-1.717,7.027,7.027,0,0,1-.49-2.7,7.385,7.385,0,0,1,.311-2.2,6.756,6.756,0,0,1,.664-1.469.258.258,0,0,1,.035-.078c.074-.125.15-.246.225-.361l.232-.35a3.738,3.738,0,0,0,.754-1.627c.018-.1.023-.213.031-.311s.006-.18.006-.289a3.214,3.214,0,0,0-.213-1.262,5.505,5.505,0,0,0-.586-1,8.877,8.877,0,0,1-.969-1.715,7.02,7.02,0,0,1-.49-2.7c0-.156,0-.316.014-.48s.02-.309.035-.451l.01-.072c.016-.137.033-.268.057-.395v-.008c.021-.119.045-.24.072-.357a.227.227,0,0,1,.223-.178l3.594,0a.23.23,0,0,1,.229.229.231.231,0,0,1-.035.121c-.051.1-.1.193-.139.293a2.527,2.527,0,0,0-.092.275.209.209,0,0,1-.016.08l-.043.193c-.014.074-.027.152-.035.234l-.02.24,0,.232a3.439,3.439,0,0,0,.8,2.268,8.923,8.923,0,0,1,.971,1.721,7.057,7.057,0,0,1,.49,2.7c0,.191-.008.381-.02.57s-.029.355-.053.523l-.014.109a6.485,6.485,0,0,1-.58,1.918l-.006.012a10.5,10.5,0,0,1-.793,1.322,5.57,5.57,0,0,0-.588,1,3.253,3.253,0,0,0-.213,1.264,3.44,3.44,0,0,0,.8,2.266,8.9,8.9,0,0,1,.971,1.723,7.057,7.057,0,0,1,.49,2.7,7.418,7.418,0,0,1-.268,2.049,6.439,6.439,0,0,1-.439,1.131h4.525c.084-.148.17-.291.256-.428.113-.18.219-.338.316-.484a5.534,5.534,0,0,0,.588-1,3.253,3.253,0,0,0,.213-1.264,3.264,3.264,0,0,0-.213-1.266,5.548,5.548,0,0,0-.586-1,8.9,8.9,0,0,1-.971-1.719,7.052,7.052,0,0,1-.488-2.7,7.313,7.313,0,0,1,.311-2.2,6.641,6.641,0,0,1,.666-1.471.2.2,0,0,1,.035-.078c.072-.125.148-.246.225-.361l.227-.342a7.809,7.809,0,0,0,.49-.791l.006-.012a2.714,2.714,0,0,0,.26-.828l.01-.062c.01-.076.018-.158.021-.244s.008-.184.008-.293a3.25,3.25,0,0,0-.213-1.262,5.44,5.44,0,0,0-.586-1l-.01-.016a8.974,8.974,0,0,1-.961-1.7,7.046,7.046,0,0,1-.49-2.7q0-.205.012-.434c.006-.139.018-.275.029-.406l.01-.088c.016-.146.035-.291.059-.432s.049-.279.08-.41a.225.225,0,0,1,.221-.176l3.6,0a.228.228,0,0,1,.227.229.23.23,0,0,1-.033.121,2.858,2.858,0,0,0-.139.293,2.526,2.526,0,0,0-.094.275.209.209,0,0,1-.014.08l-.043.193c-.016.074-.027.152-.037.234s-.012.162-.018.24l0,.232a3.253,3.253,0,0,0,.213,1.264,5.5,5.5,0,0,0,.586,1,9.088,9.088,0,0,1,.971,1.721,7.057,7.057,0,0,1,.49,2.7c0,.191-.008.381-.02.57s-.029.355-.053.523l-.014.109a7.231,7.231,0,0,1-1.379,3.25l-.012.016a5.6,5.6,0,0,0-.576.988,3.253,3.253,0,0,0-.213,1.264,3.253,3.253,0,0,0,.213,1.264,5.582,5.582,0,0,0,.588,1,9.028,9.028,0,0,1,.969,1.721,7.057,7.057,0,0,1,.49,2.7,7.418,7.418,0,0,1-.268,2.049,6.439,6.439,0,0,1-.441,1.131h4.527c.084-.148.17-.291.254-.428.115-.18.221-.338.318-.484a5.534,5.534,0,0,0,.588-1,3.253,3.253,0,0,0,.213-1.264,3.264,3.264,0,0,0-.213-1.266,5.426,5.426,0,0,0-.574-.984l-.021-.031a7.05,7.05,0,0,1-1.451-4.408,7.308,7.308,0,0,1,.313-2.2,6.731,6.731,0,0,1,.664-1.471.258.258,0,0,1,.035-.078c.074-.125.15-.246.227-.361l.227-.344a7.585,7.585,0,0,0,.49-.789l.006-.012a2.709,2.709,0,0,0,.26-.83l.01-.061c.01-.076.016-.158.021-.244s.008-.184.008-.293a3.25,3.25,0,0,0-.213-1.262,5.554,5.554,0,0,0-.586-1l-.01-.016a8.766,8.766,0,0,1-.961-1.7,7.064,7.064,0,0,1-.49-2.7q0-.2.012-.416c.006-.135.016-.266.027-.391l.008-.074c.016-.156.035-.309.059-.453s.053-.3.084-.434a.226.226,0,0,1,.223-.176l3.592,0a.229.229,0,0,1,.229.229.215.215,0,0,1-.035.121c-.051.1-.1.193-.137.293a2.491,2.491,0,0,0-.092.266v.01a.223.223,0,0,1-.014.08c-.02.07-.035.143-.049.219s-.029.172-.039.266l-.012.2,0,.219a3.435,3.435,0,0,0,.8,2.268l0,.006a8.761,8.761,0,0,1,.967,1.715,7.02,7.02,0,0,1,.49,2.7c0,.2-.008.4-.02.6s-.033.377-.059.551l-.008.053a6.545,6.545,0,0,1-.578,1.918l-.006.012a10.357,10.357,0,0,1-.795,1.322l-.01.014a5.485,5.485,0,0,0-.576.988,3.217,3.217,0,0,0-.213,1.264,3.439,3.439,0,0,0,.8,2.268l0,.006a8.966,8.966,0,0,1,.967,1.715,7.057,7.057,0,0,1,.49,2.7,7.418,7.418,0,0,1-.268,2.049,6.439,6.439,0,0,1-.441,1.131h13.051a.231.231,0,0,1,.15.057c2.846,2.586,5.8,5.8,8.551,8.564a.226.226,0,0,1,0,.322l-2.244,2.238a.228.228,0,0,1-.322,0l-6.371-6.383-4.277,41.967a.227.227,0,0,1-.227.2l-36.473,0a.226.226,0,0,1-.227-.219l-5.395-42.053-6.707,6.721a.23.23,0,0,1-.322,0l-2.244-2.238A.228.228,0,0,1-26594.594,17357.125Zm19.551,18.686,3.156-.3a.225.225,0,0,1,.246.205l.887,9.34h9.465a.23.23,0,0,1,.229.229v3.172a.228.228,0,0,1-.229.227h-12.555a.229.229,0,0,1-.227-.207l-1.178-12.418A.228.228,0,0,1-26575.043,17375.811Zm-5.059-23.918,8.518,10.7h19.066l8.518-10.7Zm3.393,39.717h30.412l3.625-35.564-8.031,10.09a.225.225,0,0,1-.178.084l-22.342,0a.228.228,0,0,1-.187-.1l-7.828-9.836Z" transform="translate(26594.66 -17268.697)" fill="#04472a"/>
  <path id="Контур_11478" data-name="Контур 11478" d="M-26536.066,16275.765a26.813,26.813,0,0,1-4.691,4.454,16.529,16.529,0,0,1-4.943,2.538,13.738,13.738,0,0,1-3.393.561c-9.537.467-17.094-4.814-23.617-13.765,2.043.973,6.3,1.242,8.047,1.087a23.639,23.639,0,0,0,4.672-1.316,13.937,13.937,0,0,1,4.5-.962,19.48,19.48,0,0,1,6.27,1.2c1.053.361,3.2,1.26,3.266,1.187-4.533-3.682-9.021-5.211-14.98-2.555.33-.389,5.045-4.316,9.973-4.738a16.142,16.142,0,0,1,4.342.223,14.268,14.268,0,0,1,3.289,1.068,15.375,15.375,0,0,1,3.443,2.2c.873.725,1.7,1.513,2.6,2.2a8.427,8.427,0,0,0,3.7,1.671c.24.041.48.081.727.125a19.711,19.711,0,0,1-6.34,3.335,20.558,20.558,0,0,1-12.119.492c.025.031,1.063.56,1.563.789a18.865,18.865,0,0,0,4.939,1.58,12.217,12.217,0,0,0,4.09-.174,40.6,40.6,0,0,0,5.178-1.794c-.2.232-.352.412-.5.595Z" transform="translate(26573.303 -16237.564)" fill="#e31e24"/>
  <path id="Контур_11479" data-name="Контур 11479" d="M-24772.8,15442.7l4.613,1.724a6.631,6.631,0,0,0,8.307-3.952l3.4-8.186-18.65-6.964-2.275,6.843A8.288,8.288,0,0,0-24772.8,15442.7Z" transform="translate(24826.834 -15422.072)" fill="#04472a"/>
  <path id="Контур_11480" data-name="Контур 11480" d="M-25103.434,15810.454v27.6h0v30h-17.279v12.813h33.918v-9.01h0v-15.778h22.988l5.736,10.824-15.27,8.091,6,11.324,29.971-15.883-4.219-7.961,0,0-3.389-6.394h46.229l-57.777-57.769h41.438v-50.575l-49.951,38.558,0-75.307h-65.361v25.154a21.019,21.019,0,0,0,12.482-4.091l3.449,4.411a26.571,26.571,0,0,1-15.932,5.291v4.83h26.965v55.339l-32.355,5.315,1.365,8.3Zm104.387,38.408-.3-9.617-13.8-.443-.439-13.8-13.8-.437-.437-13.8-9.891-.313.264-8.328,17.707.563.438,13.8,13.795.438.441,13.8,13.8.443.553,17.429Zm-56.49-74.24-5.975-5.7,6.725-7.045-9.447-9.894,9.447-9.894-9.447-9.894,9.447-9.9-6.725-7.045,5.977-5.7,12.168,12.748-9.447,9.9,9.447,9.894-9.447,9.894,9.447,9.894Z" transform="translate(25175.104 -15698.644)" fill="#00b052"/>
  <path id="Контур_11481" data-name="Контур 11481" d="M-23876.77,15783.11l4.613,1.724a8.289,8.289,0,0,0,10.383-4.94l2.768-6.659-18.648-6.965-2.8,8.412A6.632,6.632,0,0,0-23876.77,15783.11Z" transform="translate(23953.963 -15753.833)" fill="#04472a"/>
  <path id="Контур_11482" data-name="Контур 11482" d="M-24703.926,15325.861l-46.473-17.354,1.381-3.706,46.475,17.355Z" transform="translate(24800.1 -15304.801)" fill="#04472a"/>
</svg>
