<svg id="Сгруппировать_5618" data-name="Сгруппировать 5618" xmlns="http://www.w3.org/2000/svg" width="174.902" height="178.055" viewBox="0 0 174.902 178.055">
  <path id="Контур_11511" data-name="Контур 11511" d="M-44563.957,6671.011a4.8,4.8,0,0,1,6.7,0,4.584,4.584,0,0,1,.188,6.372c-.07-.081-.148-.17-.23-.25a6.477,6.477,0,0,0-7.672-1.021A4.6,4.6,0,0,1-44563.957,6671.011Zm-31.234-8.281v23.764h15.543a6.212,6.212,0,0,0,.211,5.6h-15.754v6.23h65.363v-35.6Z" transform="translate(44630.406 -6654.562)" fill="#00b052"/>
  <path id="Контур_11512" data-name="Контур 11512" d="M-43590.316,6671.012a4.8,4.8,0,0,1,6.7,0,4.577,4.577,0,0,1,.188,6.372c-.066-.081-.148-.17-.227-.25a6.48,6.48,0,0,0-7.672-1.021A4.6,4.6,0,0,1-43590.316,6671.012Zm42.641,79.045-8.512-8.511V6662.73h-38.4v145.1h104.691Z" transform="translate(43656.766 -6654.563)" fill="#00b052"/>
  <path id="Контур_11513" data-name="Контур 11513" d="M-43465.7,7131.117a1.826,1.826,0,0,1-.191.21,4.791,4.791,0,0,1-6.7,0,4.292,4.292,0,0,1-1.012-1.481,6.481,6.481,0,0,1,7.672,1.021C-43465.848,7130.947-43465.77,7131.038-43465.7,7131.117Z" transform="translate(43539.043 -7108.297)" fill="#fff"/>
  <path id="Контур_11514" data-name="Контур 11514" d="M-42131.2,6674.255l-5.977-5.7,6.723-7.045-9.445-9.895,9.445-9.895-9.445-9.893,9.445-9.9-6.723-7.044,5.977-5.7,12.164,12.749-9.445,9.9,9.445,9.893-9.445,9.895,9.445,9.895Z" transform="translate(42241.281 -6602.456)" fill="#00b052"/>
  <path id="Контур_11515" data-name="Контур 11515" d="M-43335.68,6373.667l-17.621-5.376,2.629-8.631,17.625,5.375Z" transform="translate(43421.984 -6359.66)" fill="#1d5632"/>
  <path id="Контур_11516" data-name="Контур 11516" d="M-44202.176,11377.8h-16.645v30.008h-17.281v12.814h33.922v-9.01h0Z" transform="translate(44280.996 -11242.565)" fill="#00b052"/>
  <path id="Контур_11517" data-name="Контур 11517" d="M-42666.57,11377.8h-16.641v30.008h-17.277v12.814h33.918v-9.01h0Z" transform="translate(42786.766 -11242.565)" fill="#00b052"/>
  <path id="Контур_11518" data-name="Контур 11518" d="M-44728.1,9137.211l36.875,10.216,2.246-8.111-36.875-10.216Z" transform="translate(44759.73 -9054.466)" fill="#00b052"/>
  <path id="Контур_11519" data-name="Контур 11519" d="M-42747.5,8076.988h65.523V8026.41Z" transform="translate(42832.508 -7981.493)" fill="#00b052"/>
  <path id="Контур_11520" data-name="Контур 11520" d="M-41117.426,10091.337l-.309-9.618-13.8-.441-.441-13.8-13.8-.437-.437-13.8-9.891-.315.262-8.327,17.707.563.438,13.8,13.8.437.441,13.8,13.8.442.559,17.43Z" transform="translate(41284 -9945.294)" fill="#00b052"/>
  <path id="Контур_11521" data-name="Контур 11521" d="M-43583.16,7139.747a6.49,6.49,0,0,1-9.051,0,6.222,6.222,0,0,1,0-8.892,6.339,6.339,0,0,1,1.379-1.019,6.479,6.479,0,0,1,7.672,1.019c.082.081.16.17.23.25A6.211,6.211,0,0,1-43583.16,7139.747Z" transform="translate(43656.273 -7108.285)" fill="#00b052"/>
  <path id="Контур_11522" data-name="Контур 11522" d="M-45866.719,8518.205c-.129-.051-.258-.1-.379-.16a3.076,3.076,0,0,1-1.48-1.6v-.01a3.018,3.018,0,0,1,.082-2.541,3.077,3.077,0,0,1,2.051-1.64l-.133,2.83Zm-.937,20.614c-9.762,2.279-21.406-3.511-25.477-12.674l27.066-22.473-.262,5.81a5.807,5.807,0,0,0-4.609,3.191,5.872,5.872,0,0,0,.441,5.931,5.507,5.507,0,0,0,1.008,1.1,5.225,5.225,0,0,0,1.172.78,6.027,6.027,0,0,0,1.469.489l-.121,2.731Zm-.32,7.11a23.8,23.8,0,0,1-3.871.341c-10.613.09-21.914-6.28-26.754-15.573l3.309-2.75a21.945,21.945,0,0,0,1.75,2.99c5.563,8,16.184,12.582,25.766,10.7l-.1,2.11Zm-34-15.973.438.95a26.877,26.877,0,0,0,2.352,4.071,33.752,33.752,0,0,0,27.777,14,27.311,27.311,0,0,0,5.031-.591l1.027-.221.223-4.87.848-18.843.391-8.633.82-18.174Z" transform="translate(45901.973 -8440.034)" fill="#1d5632"/>
  <path id="Контур_11523" data-name="Контур 11523" d="M-45246.184,9386.762a3.05,3.05,0,0,1-1.789,1.551,3.073,3.073,0,0,1-2.363-.16,3.076,3.076,0,0,1-1.559-1.79,3.079,3.079,0,0,1,.168-2.36,3.055,3.055,0,0,1,1.781-1.561,3.1,3.1,0,0,1,2.371.16,3.123,3.123,0,0,1,1.16,1A3.126,3.126,0,0,1-45246.184,9386.762Zm2.738-3.24a5.743,5.743,0,0,0-2.918-3.351,5.724,5.724,0,0,0-4.441-.311,5.739,5.739,0,0,0-3.359,2.921,5.835,5.835,0,0,0-.312,4.451,6.113,6.113,0,0,0,.742,1.48,5.888,5.888,0,0,0,2.191,1.88,5.758,5.758,0,0,0,4.441.3,5.773,5.773,0,0,0,3.359-2.921A5.792,5.792,0,0,0-45243.445,9383.521Z" transform="translate(45272.219 -9298.169)" fill="#1d5632"/>
  <path id="Контур_11524" data-name="Контур 11524" d="M-45419.254,9548.826a1.139,1.139,0,0,0,1.23-1.042,1.142,1.142,0,0,0-1.043-1.228,1.137,1.137,0,0,0-1.227,1.041A1.138,1.138,0,0,0-45419.254,9548.826Z" transform="translate(45433.277 -9460.669)" fill="#1d5632"/>
  <path id="Контур_11525" data-name="Контур 11525" d="M-44820.363,9870.206a1.138,1.138,0,0,0,1.227-1.042,1.137,1.137,0,0,0-1.043-1.227,1.136,1.136,0,0,0-1.227,1.04A1.139,1.139,0,0,0-44820.363,9870.206Z" transform="translate(44850.531 -9773.39)" fill="#1d5632"/>
  <path id="Контур_11526" data-name="Контур 11526" d="M-44755.973,9424.2a1.138,1.138,0,0,0,1.23-1.041,1.138,1.138,0,0,0-1.043-1.228,1.144,1.144,0,0,0-1.23,1.04A1.143,1.143,0,0,0-44755.973,9424.2Z" transform="translate(44787.875 -9339.4)" fill="#1d5632"/>
  <path id="Контур_11527" data-name="Контур 11527" d="M-44962.934,9126.677a1.14,1.14,0,0,0,1.043,1.229,1.138,1.138,0,0,0,1.227-1.042,1.139,1.139,0,0,0-1.039-1.229A1.14,1.14,0,0,0-44962.934,9126.677Z" transform="translate(44988.242 -9051.091)" fill="#1d5632"/>
  <path id="Контур_11528" data-name="Контур 11528" d="M-44793.934,10018.709l37.758-6.206-1.367-8.3-37.758,6.2Z" transform="translate(44825.125 -9905.983)" fill="#00b052"/>
  <path id="Контур_11529" data-name="Контур 11529" d="M-44037.582,7544.561v5.6h-1.07a6.209,6.209,0,0,1-.211-5.6Z" transform="translate(44089.625 -7512.629)" fill="#fff"/>
  <path id="Контур_11530" data-name="Контур 11530" d="M-44027.473,7416.673a6.5,6.5,0,0,1-1.07,1.4,6.49,6.49,0,0,1-9.051,0,6.64,6.64,0,0,1-1.09-1.429,6.212,6.212,0,0,1-.211-5.6,6.272,6.272,0,0,1,1.3-1.86,6.492,6.492,0,0,1,9.051,0,6.5,6.5,0,0,1,1.07,1.4A6.239,6.239,0,0,1-44027.473,7416.673Z" transform="translate(44089.652 -7379.11)" fill="#00b052"/>
</svg>
