<svg id="Сгруппировать_5803" data-name="Сгруппировать 5803" xmlns="http://www.w3.org/2000/svg" width="136.574" height="182.23" viewBox="0 0 136.574 182.23">
  <path id="Контур_11549" data-name="Контур 11549" d="M-34507.949,6342.608l-4.613,1.723a6.629,6.629,0,0,1-8.3-3.952l-3.4-8.185,18.648-6.965,2.277,6.843A8.291,8.291,0,0,1-34507.949,6342.608Z" transform="translate(34635.809 -6321.982)" fill="#1d5632"/>
  <path id="Контур_11550" data-name="Контур 11550" d="M-34653.922,6662.72v35.6h65.363v-6.481h-.2a26.863,26.863,0,0,1-16.664-5.311l3.449-4.412c4.332,3.391,9.582,4.13,13.414,4.11v-23.5Z" transform="translate(34724.984 -6650.378)" fill="#00b052"/>
  <path id="Контур_11551" data-name="Контур 11551" d="M-33653.6,6807.82l66.289-66.287V6662.72h38.406v145.1h-104.7Z" transform="translate(33661.633 -6650.378)" fill="#00b052"/>
  <path id="Контур_11552" data-name="Контур 11552" d="M-33544.895,6920.746a4.607,4.607,0,0,0,0,6.587,4.8,4.8,0,0,0,6.7,0,4.6,4.6,0,0,0,0-6.587A4.8,4.8,0,0,0-33544.895,6920.746Z" transform="translate(33644.133 -6900.123)" fill="#fff"/>
  <path id="Контур_11553" data-name="Контур 11553" d="M-32186.531,6674.255l5.975-5.7-6.721-7.045,9.445-9.895-9.445-9.895,9.445-9.893-9.449-9.9,6.725-7.044-5.975-5.7-12.168,12.749,9.445,9.9-9.445,9.893,9.445,9.895-9.445,9.895Z" transform="translate(32249.908 -6598.281)" fill="#00b052"/>
  <path id="Контур_11554" data-name="Контур 11554" d="M-34294.8,11377.8h16.645v30.008h17.277v12.814h-33.918v-9.01h0Z" transform="translate(34387.629 -11238.391)" fill="#00b052"/>
  <path id="Контур_11555" data-name="Контур 11555" d="M-32759.3,11377.8h16.641v30.008h17.283v12.814h-33.922v-9.01h0Z" transform="translate(32812.32 -11238.391)" fill="#00b052"/>
  <path id="Контур_11556" data-name="Контур 11556" d="M-34603.273,8687.087l-29.855,23.935-5.266-6.565,29.855-23.937Z" transform="translate(34739.281 -8613.8)" fill="#00b052"/>
  <path id="Контур_11557" data-name="Контур 11557" d="M-32740.777,8076.988h-65.523V8026.41Z" transform="translate(32829.602 -7977.318)" fill="#00b052"/>
  <path id="Контур_11558" data-name="Контур 11558" d="M-31206.475,10091.337l.3-9.618,13.8-.441.439-13.8,13.8-.437.436-13.8,9.891-.315-.264-8.327-17.705.563-.439,13.8-13.795.437-.443,13.8-13.8.442-.557,17.43Z" transform="translate(31214.803 -9941.12)" fill="#00b052"/>
  <path id="Контур_11559" data-name="Контур 11559" d="M-33651.066,7130.883a6.21,6.21,0,0,0,0,8.888,6.478,6.478,0,0,0,9.047,0,6.217,6.217,0,0,0,0-8.888A6.48,6.48,0,0,0-33651.066,7130.883Z" transform="translate(33750.297 -7104.134)" fill="#00b052"/>
  <path id="Контур_11560" data-name="Контур 11560" d="M-34627.359,9856.479l-32.035-20.934,4.605-7.045,32.031,20.934Z" transform="translate(34759.332 -9730.844)" fill="#00b052"/>
  <path id="Контур_11561" data-name="Контур 11561" d="M-34495.422,6225.808l46.473-17.354-1.383-3.7-46.473,17.354Z" transform="translate(34581.141 -6204.75)" fill="#1d5632"/>
  <path id="Контур_11562" data-name="Контур 11562" d="M-33609.469,6682.971l-4.613,1.723a8.287,8.287,0,0,1-10.383-4.939l-2.77-6.659,18.652-6.966,2.8,8.412A6.634,6.634,0,0,1-33609.469,6682.971Z" transform="translate(33714.934 -6653.696)" fill="#1d5632"/>
</svg>
