<svg id="Сгруппировать_5624" data-name="Сгруппировать 5624" xmlns="http://www.w3.org/2000/svg" width="164.113" height="187.68" viewBox="0 0 164.113 187.68">
  <path id="Контур_11563" data-name="Контур 11563" d="M-14957.876,15412.9a4.808,4.808,0,0,1,6.72,0,4.6,4.6,0,0,1,.493,6.029,6.3,6.3,0,0,0-1.466-2.228,6.5,6.5,0,0,0-7.062-1.333A4.584,4.584,0,0,1-14957.876,15412.9Zm42.766,79.281-8.537-8.535v-79.052h-38.513v145.532h105Z" transform="translate(15013.213 -15392.773)" fill="#00b052"/>
  <path id="Контур_11564" data-name="Контур 11564" d="M-13494.476,15416.167l-5.991-5.719,6.745-7.065-9.478-9.926,9.478-9.923-9.478-9.923,9.478-9.928-6.745-7.062,5.994-5.722,12.205,12.784-9.476,9.928,9.476,9.923-9.476,9.923,9.476,9.926Z" transform="translate(13593.569 -15340.529)" fill="#00b052"/>
  <path id="Контур_11565" data-name="Контур 11565" d="M-13826.128,19930.9l-14.749,7.814,14.095,26.594-15.315,8.117,6.018,11.355,30.062-15.93-4.23-7.984v0Z" transform="translate(13923.335 -19797.102)" fill="#00b052"/>
  <path id="Контур_11566" data-name="Контур 11566" d="M-15571.472,20133.8h-16.692v30.1h-17.334v12.854h34.023v-9.037h0Z" transform="translate(15639.213 -19994.537)" fill="#00b052"/>
  <path id="Контур_11567" data-name="Контур 11567" d="M-15606,17098.551l22.961,30.75,6.764-5.049-22.96-30.752Z" transform="translate(15639.701 -17036.168)" fill="#00b052"/>
  <path id="Контур_11568" data-name="Контур 11568" d="M-14112.5,16823.029h65.718V16772.3Z" transform="translate(14186.448 -16723.625)" fill="#00b052"/>
  <path id="Контур_11569" data-name="Контур 11569" d="M-12477.509,18843.477l-.307-9.648-13.844-.443-.439-13.842-13.841-.436-.439-13.842-9.92-.314.265-8.352,17.759.563.439,13.842,13.838.436.442,13.844,13.847.445.555,17.482Z" transform="translate(12633.265 -18693.371)" fill="#00b052"/>
  <path id="Контур_11570" data-name="Контур 11570" d="M-15986.6,17777.908l33.236,19.189,4.22-7.311-33.236-19.187Z" transform="translate(16010.042 -17695.021)" fill="#00b052"/>
  <g id="Сгруппировать_5623" data-name="Сгруппировать 5623" transform="translate(0)">
    <path id="Контур_11571" data-name="Контур 11571" d="M-15927.267,15418.875a6.278,6.278,0,0,0-1.464-2.228,6.5,6.5,0,0,0-7.063-1.333,4.584,4.584,0,0,1,1.314-2.469,4.808,4.808,0,0,1,6.722,0A4.6,4.6,0,0,1-15927.267,15418.875Zm-38.543-14.336v25.23a21.089,21.089,0,0,0,12.521-4.1l3.46,4.424a26.652,26.652,0,0,1-15.98,5.308v4.845h65.56v-35.7Z" transform="translate(15989.814 -15392.724)" fill="#00b052"/>
    <g id="_1890182234608" transform="translate(0 1.655)">
      <path id="Контур_11572" data-name="Контур 11572" d="M-14846.288,15779.657a4.353,4.353,0,0,1-.491.572,4.806,4.806,0,0,1-6.722,0,4.594,4.594,0,0,1-1.314-4.132,6.5,6.5,0,0,1,7.063,1.333A6.274,6.274,0,0,1-14846.288,15779.657Z" transform="translate(14908.836 -15755.428)" fill="#fff"/>
      <path id="Контур_11573" data-name="Контур 11573" d="M-14985.243,15786.336a6.5,6.5,0,0,1-9.069,0,5.945,5.945,0,0,1-.963-1.224,6.168,6.168,0,0,1,0-6.472,5.919,5.919,0,0,1,.963-1.224,6.12,6.12,0,0,1,2.006-1.334,6.505,6.505,0,0,1,7.063,1.334,6.265,6.265,0,0,1,1.464,2.228A6.224,6.224,0,0,1-14985.243,15786.336Z" transform="translate(15046.327 -15755.414)" fill="#00b052"/>
      <path id="Контур_11574" data-name="Контур 11574" d="M-15927.275,15408.975a6.274,6.274,0,0,0-1.464-2.227,6.5,6.5,0,0,0-7.063-1.333,4.587,4.587,0,0,1,1.314-2.469,4.808,4.808,0,0,1,6.722,0A4.6,4.6,0,0,1-15927.275,15408.975Zm-38.543-14.336v35.7h65.56v-35.7Z" transform="translate(15989.823 -15384.745)" fill="#00b052"/>
      <path id="Контур_11575" data-name="Контур 11575" d="M-14935.652,15043.966l-17.447-6.088,3.622-10.378,17.447,6.088Z" transform="translate(15004.396 -15027.5)" fill="#1d5632"/>
      <path id="Контур_11576" data-name="Контур 11576" d="M-16833.707,16009.726a22.913,22.913,0,0,1-18.453-9.267l-4.41,3.274a28.407,28.407,0,0,0,22.871,11.5,28.328,28.328,0,0,0,16.934-5.608l-3.3-4.418A22.846,22.846,0,0,1-16833.707,16009.726Z" transform="translate(16856.57 -15974.238)" fill="#fefefe" fill-rule="evenodd"/>
    </g>
    <path id="Контур_11577" data-name="Контур 11577" d="M-15172.4,14984.021a9.537,9.537,0,0,1,12.308,2.728,9.427,9.427,0,0,1,6.165-.308,9.421,9.421,0,0,1,5.631,4.431l.072.118a9.428,9.428,0,0,1,.809,7.237,9.379,9.379,0,0,1-4.542,5.689l-15.564,8.605-8.605-15.564A9.525,9.525,0,0,1-15172.4,14984.021Z" transform="translate(15222.571 -14982.382)" fill="red"/>
    <path id="Контур_11578" data-name="Контур 11578" d="M-15831.131,14966.688a4.721,4.721,0,0,1,6.09,1.35,4.666,4.666,0,0,1,3.051-.151,4.664,4.664,0,0,1,2.786,2.191l.035.059a4.664,4.664,0,0,1,.4,3.581,4.64,4.64,0,0,1-2.246,2.815l-7.7,4.258-4.258-7.7A4.712,4.712,0,0,1-15831.131,14966.688Z" transform="translate(15861.132 -14966.101)" fill="red"/>
  </g>
</svg>
