<svg id="_1890182861008" xmlns="http://www.w3.org/2000/svg" width="189.047" height="179.75" viewBox="0 0 189.047 179.75">
  <g id="Сгруппировать_5617" data-name="Сгруппировать 5617" transform="translate(49.363 9.863)">
    <path id="Контур_11495" data-name="Контур 11495" d="M-7606.3,6677.313a6.313,6.313,0,0,0-.72-.851,6.459,6.459,0,0,0-7.492-1.12,4.582,4.582,0,0,1,1.26-4.341,4.8,4.8,0,0,1,6.7,0A4.586,4.586,0,0,1-7606.3,6677.313Zm-38.187,21h65.362v-35.6h-65.362Zm0-35.6v0Z" transform="translate(7644.49 -6662.72)" fill="#00b052"/>
  </g>
  <path id="Контур_11496" data-name="Контур 11496" d="M-6640.019,6671.03a4.794,4.794,0,0,1,6.7,0,4.585,4.585,0,0,1,.251,6.311,6.337,6.337,0,0,0-.721-.849,6.459,6.459,0,0,0-7.491-1.121A4.581,4.581,0,0,1-6640.019,6671.03Zm42.638,79.045-8.511-8.51v-78.816H-6644.3v145.1h104.7Z" transform="translate(6720.616 -6652.885)" fill="#00b052"/>
  <path id="Контур_11497" data-name="Контур 11497" d="M-6524,7106.985c-.08.089-.159.18-.25.27a4.8,4.8,0,0,1-6.7,0,4.409,4.409,0,0,1-1.26-2.241,6.459,6.459,0,0,1,7.492,1.121A6.274,6.274,0,0,1-6524,7106.985Z" transform="translate(6611.547 -7082.529)" fill="#fff"/>
  <path id="Контур_11498" data-name="Контур 11498" d="M-6648.4,7115.034a6.461,6.461,0,0,1-9.042,0,6.157,6.157,0,0,1-1.469-2.24,6.164,6.164,0,0,1,0-4.4,6.129,6.129,0,0,1,1.469-2.24,6.169,6.169,0,0,1,1.55-1.121,6.46,6.46,0,0,1,7.491,1.121,6.444,6.444,0,0,1,.721.85A6.2,6.2,0,0,1-6648.4,7115.034Z" transform="translate(6735.232 -7082.546)" fill="#00b052"/>
  <path id="Контур_11499" data-name="Контур 11499" d="M-5180.562,6674.275l-5.974-5.7,6.725-7.044-9.448-9.9,9.448-9.895-9.448-9.893,9.448-9.9-6.726-7.045,5.977-5.7,12.169,12.749-9.446,9.9,9.446,9.893-9.446,9.895,9.446,9.9Z" transform="translate(5304.788 -6600.779)" fill="#00b052"/>
  <path id="Контур_11500" data-name="Контур 11500" d="M-6617.514,6313.146l-17.4-6.07,3.61-10.346,17.4,6.068Z" transform="translate(6711.48 -6296.729)" fill="#1d5632"/>
  <path id="Контур_11501" data-name="Контур 11501" d="M-5715.917,11377.8h-16.641v30.008h-17.281v12.814h33.92v-9.01h0Z" transform="translate(5850.261 -11240.869)" fill="#00b052"/>
  <path id="Контур_11502" data-name="Контур 11502" d="M-7251.4,11377.8h-16.64v30.008h-17.282v12.814h33.92v-9.01h0Z" transform="translate(7344.361 -11240.869)" fill="#00b052"/>
  <path id="Контур_11503" data-name="Контур 11503" d="M-7538.149,8678.337l34.265,17.029,3.745-7.537L-7534.4,8670.8Z" transform="translate(7590.378 -8606.821)" fill="#00b052"/>
  <path id="Контур_11504" data-name="Контур 11504" d="M-5796.81,8076.988h65.521V8026.41Z" transform="translate(5895.966 -7979.797)" fill="#00b052"/>
  <path id="Контур_11505" data-name="Контур 11505" d="M-4166.665,10091.337l-.306-9.618-13.8-.441-.44-13.8-13.8-.437-.437-13.8-9.889-.315.264-8.327,17.705.563.438,13.8,13.8.438.44,13.8,13.8.442.555,17.43Z" transform="translate(4347.384 -9943.599)" fill="#00b052"/>
  <path id="Контур_11506" data-name="Контур 11506" d="M-9453.338,6372.823l-2.721,12.783-12.792-2.731a5.582,5.582,0,0,1-3.571-2.451,5.661,5.661,0,0,1-.81-4.18l.02-.09a5.677,5.677,0,0,1,2.46-3.581,5.676,5.676,0,0,1,4.3-.78l1.621.309.4-1.65a5.675,5.675,0,0,1,6.73-4.361A5.684,5.684,0,0,1-9453.338,6372.823Zm-3.771-9.521a8.538,8.538,0,0,0-9.833,5.54,8.437,8.437,0,0,0-5.361,1.341,8.438,8.438,0,0,0-3.67,5.261l-.031.12a8.442,8.442,0,0,0,1.191,6.411,8.4,8.4,0,0,0,5.371,3.691l15.573,3.321,3.32-15.574A8.526,8.526,0,0,0-9457.108,6363.3Z" transform="translate(9476.194 -6361.324)" fill="red"/>
  <path id="Контур_11507" data-name="Контур 11507" d="M-8465.5,8240.411a1.279,1.279,0,0,0-1.436,1.1,1.276,1.276,0,0,0,1.1,1.434,1.279,1.279,0,0,0,1.437-1.1A1.279,1.279,0,0,0-8465.5,8240.411Z" transform="translate(8494.146 -8188.021)" fill="#1d5632"/>
  <path id="Контур_11508" data-name="Контур 11508" d="M-8814.24,7831.657a24.391,24.391,0,0,1-8.2,7.42,24.02,24.02,0,0,1-11.812,3.011,24.236,24.236,0,0,1-3.861-.341c-13.052-2.16-21.724-14.792-19.983-27.905l.57-4.32a1.267,1.267,0,0,0-1.1-1.431l-3.542-.471a8.8,8.8,0,0,1,10.4-6.321,9.228,9.228,0,0,1,6.861,10.322l-.779,5.921,18.262,2.419,11.713,1.562h.01l5.372.71c-.11.6-.241,1.179-.4,1.76A24.3,24.3,0,0,1-8814.24,7831.657Zm-44.249-34.337a1.374,1.374,0,0,1,1.562-1.209,1.357,1.357,0,0,1,1.109.889,1.28,1.28,0,0,0,2.471-.339,1.381,1.381,0,0,1,1.561-1.211,1.385,1.385,0,0,1,1.2,1.39,1.245,1.245,0,0,1-.01.19,1.275,1.275,0,0,0,2.289.959,1.411,1.411,0,0,1,1.311-.57,1.388,1.388,0,0,1,1.19,1.581,1.472,1.472,0,0,1-1.56,1.25c-.12,0-.341-.02-.341-.02a11.513,11.513,0,0,0-4.5-1.61,11.3,11.3,0,0,0-4.761.38A1.485,1.485,0,0,1-8858.489,7797.32Zm35.708,20.685-3.441-.46-16.593-2.2.5-3.8a11.5,11.5,0,0,0-2.94-9.292,3.958,3.958,0,0,0,1.98-2.91,3.984,3.984,0,0,0-3.392-4.45,3.975,3.975,0,0,0-1.989.279,3.708,3.708,0,0,0-2.8-2.249,3,3,0,0,0-.431-.03,3.867,3.867,0,0,0-2.86,1.47,4.013,4.013,0,0,0-1.841-.79,3.978,3.978,0,0,0-4.43,3.42,3.929,3.929,0,0,0,1.149,3.321,11.5,11.5,0,0,0-5.361,9.482l5,.669-.5,3.8a26.875,26.875,0,0,0,14.412,27.446l-1.131,8.511-4.551-.609-.34,2.541,7.1.94.339-2.53-.01-.01,1.021-7.751a26.744,26.744,0,0,0,6.241,1.611c.42.059.85.1,1.271.14l-.932,7.011-4.56-.6-.341,2.531,7.1.941.34-2.53h-.009l.629-4.752.341-2.51a26.723,26.723,0,0,0,15.862-5.432,26.662,26.662,0,0,0,6.071-6.38,26.236,26.236,0,0,0,3.561-7.632,26.093,26.093,0,0,0,.951-5.141Z" transform="translate(8881.695 -7752.57)" fill="#1d5632"/>
  <path id="Контур_11509" data-name="Контур 11509" d="M-8024.911,8823.18a.3.3,0,0,0,.035.006l18.756,2.486a10.114,10.114,0,0,1-4.251,6.6c-2.574,1.639-6.219,2.331-10.794,1.725,0,0-.337,2.536-.373,2.53l.036.006c5,.663,9.285-.055,12.5-2.1,3.535-2.25,5.659-6.115,5.947-10.928l-21.486-2.851S-8024.875,8823.186-8024.911,8823.18Z" transform="translate(8064.023 -8752.633)" fill="#1d5632"/>
  <path id="Контур_11510" data-name="Контур 11510" d="M-7721.34,9502.152l38.246,1.146.252-8.412-38.246-1.146Z" transform="translate(7768.631 -9407.584)" fill="#00b052"/>
</svg>
