<svg id="_1890182869408" xmlns="http://www.w3.org/2000/svg" width="145.07" height="187.676" viewBox="0 0 145.07 187.676">
  <path id="Контур_11466" data-name="Контур 11466" d="M-34490.7,15441.8l4.613,1.723a6.628,6.628,0,0,0,8.3-3.951l3.4-8.186-18.648-6.965-2.277,6.844A8.291,8.291,0,0,0-34490.7,15441.8Z" transform="translate(34505.418 -15421.175)" fill="#04472a"/>
  <path id="Контур_11467" data-name="Контур 11467" d="M-34821.332,15809.554v27.6h0v30.006h-17.281v12.813h33.918v-9.01h0v-15.779h22.988l5.734,10.824-15.27,8.092,6,11.323,29.969-15.882-4.219-7.962h0l-3.391-6.394h46.23l-57.781-57.769h41.441v-50.575l-49.953,38.558v-75.307h-65.359v25.154a21.044,21.044,0,0,0,12.484-4.091l3.445,4.411a26.568,26.568,0,0,1-15.93,5.291v4.83h26.965v38.708l-20.992-5.815-.02,8.728,21.012,5.821v7.9l-32.355,5.316,1.367,8.3Zm104.387,38.409-.3-9.618-13.8-.442-.437-13.8-13.8-.438-.437-13.8-9.891-.314.262-8.328,17.707.563.438,13.8,13.8.438.438,13.8,13.8.442.555,17.429Zm-56.492-74.24-5.973-5.7,6.727-7.045-9.449-9.894,9.449-9.895-9.449-9.894,9.449-9.895-6.727-7.045,5.977-5.7,12.168,12.749-9.445,9.895,9.445,9.894-9.445,9.895,9.445,9.894Z" transform="translate(34853.688 -15697.745)" fill="#00b052"/>
  <path id="Контур_11468" data-name="Контур 11468" d="M-33594.676,15782.213l4.613,1.723a8.288,8.288,0,0,0,10.383-4.939l2.77-6.659-18.652-6.966-2.8,8.412A6.632,6.632,0,0,0-33594.676,15782.213Z" transform="translate(33632.555 -15752.938)" fill="#04472a"/>
  <path id="Контур_11469" data-name="Контур 11469" d="M-34421.828,15325.059l-46.473-17.355,1.383-3.7,46.473,17.355Z" transform="translate(34478.688 -15304)" fill="#04472a"/>
</svg>
