<svg xmlns="http://www.w3.org/2000/svg" width="148.07" height="179.41" viewBox="0 0 148.07 179.41">
  <g id="Сгруппировать_5621" data-name="Сгруппировать 5621" transform="translate(0 -0.004)">
    <path id="Контур_11542" data-name="Контур 11542" d="M11797,5411.518l-5.978-5.7,6.727-7.047-9.451-9.9,9.451-9.9-9.451-9.9,9.451-9.9-6.727-7.047,5.978-5.7,12.17,12.75-9.448,9.9,9.448,9.9-9.448,9.9,9.448,9.9Z" transform="translate(-11712.266 -5338.32)" fill="#00b052"/>
    <path id="Контур_11543" data-name="Контур 11543" d="M12716.8,8790.688l9.9.321.061,1.745.066,2.184.138,4.469h9.211v5.7l1.862.059,2.895.091.447,13.795,1.447.046,12.348.4.311,9.613,8.327-.262-.55-17.424-13.807-.449-.437-13.807-6.192-.2-4.789-.149-2.827-.091-.056-1.792-.068-2.184-.312-9.831-17.708-.563Z" transform="translate(-12615.742 -8681.655)" fill="#00b052"/>
    <path id="Контур_11544" data-name="Контур 11544" d="M9363.542,5408.271a4.61,4.61,0,0,0,0,6.592,4.8,4.8,0,0,0,6.7,0,4.591,4.591,0,0,0,0-6.592A4.8,4.8,0,0,0,9363.542,5408.271Zm34.136-8.282v74.9l50.045-38.639v50.6h-42.017l14.691,14.69,2.182,2.181,4.468,4.469,14.071,14.082,22.856,22.856H9359.257V5435.6h-26.968v-35.607Z" transform="translate(-9322.441 -5390.436)" fill="#00b052"/>
    <path id="Контур_11545" data-name="Контур 11545" d="M10540.456,5063.3l5.063-7.473-15.256-10.338-5.063,7.473Z" transform="translate(-10483.205 -5045.49)" fill="#1d5632"/>
    <path id="Контур_11546" data-name="Контур 11546" d="M9368.715,8484.124l35.276-14.847-3.267-7.758-35.274,14.847Z" transform="translate(-9354.709 -8369.461)" fill="#00b052"/>
    <path id="Контур_11547" data-name="Контур 11547" d="M9021.225,10163.216l-11.62-11.916-21.489,20.95-12.066-12.375-9.179,8.946,23.685,24.295,6.453-6.293h0Z" transform="translate(-8966.87 -10013.704)" fill="#00b052"/>
    <path id="Контур_11548" data-name="Контур 11548" d="M10420.7,5654.571h11.655v-3.44c0-4.282-2.528-6.53-5.9-6.53-3.862,0-5.759,2.668-5.759,7.934Z" transform="translate(-10381.521 -5628.455)" fill="#fff"/>
  </g>
</svg>
