<svg id="_1890182861056" xmlns="http://www.w3.org/2000/svg" width="140.25" height="185.199" viewBox="0 0 140.25 185.199">
  <path id="Контур_11483" data-name="Контур 11483" d="M-15911.821,6677a6.272,6.272,0,0,0-1.459-2.22,6.483,6.483,0,0,0-7.043-1.33,4.577,4.577,0,0,1,1.311-2.461,4.8,4.8,0,0,1,6.7,0A4.586,4.586,0,0,1-15911.821,6677Zm-38.428-14.293v25.155a21.024,21.024,0,0,0,12.483-4.091l3.449,4.411a26.582,26.582,0,0,1-15.933,5.292v4.83h65.363v-35.6Z" transform="translate(15950.811 -6652.846)" fill="#00b052"/>
  <path id="Контур_11484" data-name="Контур 11484" d="M-14945.418,6671.03a4.794,4.794,0,0,1,6.7,0,4.585,4.585,0,0,1,.49,6.011,6.271,6.271,0,0,0-1.461-2.22,6.48,6.48,0,0,0-7.041-1.33A4.579,4.579,0,0,1-14945.418,6671.03Zm42.639,79.045-8.513-8.51v-78.816h-38.4v145.1H-14845Z" transform="translate(14977.215 -6652.885)" fill="#00b052"/>
  <path id="Контур_11485" data-name="Контур 11485" d="M-14834.058,7046.583a4.257,4.257,0,0,1-.49.57,4.794,4.794,0,0,1-6.7,0,4.579,4.579,0,0,1-1.31-4.12,6.483,6.483,0,0,1,7.042,1.33A6.262,6.262,0,0,1-14834.058,7046.583Z" transform="translate(14873.048 -7022.427)" fill="#fff"/>
  <path id="Контур_11486" data-name="Контур 11486" d="M-14972.668,7053.25a6.481,6.481,0,0,1-9.042,0,5.866,5.866,0,0,1-.96-1.22,6.145,6.145,0,0,1,0-6.452,5.84,5.84,0,0,1,.96-1.22,6.108,6.108,0,0,1,2-1.331,6.487,6.487,0,0,1,7.043,1.331,6.25,6.25,0,0,1,1.459,2.22A6.206,6.206,0,0,1-14972.668,7053.25Z" transform="translate(15010.197 -7022.422)" fill="#00b052"/>
  <path id="Контур_11487" data-name="Контур 11487" d="M-13486.3,6674.275l-5.972-5.7,6.724-7.044-9.448-9.9,9.448-9.895-9.448-9.893,9.448-9.9-6.724-7.045,5.975-5.7,12.167,12.749-9.445,9.9,9.445,9.893-9.445,9.895,9.445,9.9Z" transform="translate(13561.729 -6600.779)" fill="#00b052"/>
  <path id="Контур_11488" data-name="Контур 11488" d="M-14923.2,6313.146l-17.4-6.07,3.611-10.346,17.4,6.068Z" transform="translate(14968.37 -6296.729)" fill="#1d5632"/>
  <path id="Контур_11489" data-name="Контур 11489" d="M-13816.979,11175.6l-14.7,7.791,14.051,26.516-15.27,8.093,6,11.321,29.973-15.881-4.22-7.964h0Z" transform="translate(13890.522 -11044.119)" fill="#00b052"/>
  <path id="Контур_11490" data-name="Контур 11490" d="M-15557.077,11377.8h-16.639v30.008H-15591v12.814h33.918v-9.01h0Z" transform="translate(15601.241 -11240.869)" fill="#00b052"/>
  <path id="Контур_11491" data-name="Контур 11491" d="M-15591.6,8351.676l22.893,30.659,6.745-5.036-22.9-30.659Z" transform="translate(15601.827 -8291.396)" fill="#00b052"/>
  <path id="Контур_11492" data-name="Контур 11492" d="M-14102.5,8076.988h65.521V8026.41Z" transform="translate(14152.856 -7979.797)" fill="#00b052"/>
  <path id="Контур_11493" data-name="Контур 11493" d="M-12472.426,10091.337l-.3-9.618-13.8-.441-.439-13.8-13.8-.437-.439-13.8-9.89-.315.264-8.327,17.705.563.439,13.8,13.8.438.438,13.8,13.8.442.555,17.43Z" transform="translate(12604.343 -9943.599)" fill="#00b052"/>
  <path id="Контур_11494" data-name="Контур 11494" d="M-15971.1,9028.968l33.14,19.133,4.206-7.289-33.136-19.132Z" transform="translate(15971.1 -8948.245)" fill="#00b052"/>
</svg>
